<?xml version="1.0" encoding="UTF-8"?>
<svg version="1.1" xmlns="http://www.w3.org/2000/svg" width="920" height="500">
<path d="M0 0 C303.6 0 607.2 0 920 0 C920 165 920 330 920 500 C616.4 500 312.8 500 0 500 C0 335 0 170 0 0 Z " fill="#FEFEFE" transform="translate(0,0)"/>
<path d="M0 0 C0.09265338 10.23115995 0.1637413 20.4622202 0.20724869 30.69371414 C0.22812944 35.44456036 0.2564559 40.19511969 0.30175781 44.94580078 C0.3451983 49.52993339 0.36913343 54.11378994 0.37950897 58.69811249 C0.38690359 60.44765316 0.40134355 62.19717862 0.42292023 63.94660187 C0.45193101 66.39604925 0.45595708 68.84435395 0.45410156 71.29394531 C0.46848267 72.01827255 0.48286377 72.74259979 0.49768066 73.48887634 C0.47214352 76.60153089 0.1531224 78.73251925 -1.40155029 81.44828796 C-5.47190282 83.87897384 -9.3720901 83.5650677 -14.02929688 83.53344727 C-15.04758072 83.54206284 -16.06586456 83.55067841 -17.11500549 83.55955505 C-20.48317839 83.58227027 -23.85052309 83.57546601 -27.21875 83.56640625 C-29.55757902 83.57163913 -31.89640593 83.57791437 -34.23522949 83.58518982 C-39.13787769 83.59560417 -44.04023581 83.59101713 -48.94287109 83.57641602 C-55.23152679 83.55922194 -61.51926939 83.58272677 -67.80782318 83.61790562 C-72.63765541 83.63984458 -77.46726794 83.63844664 -82.2971344 83.6301403 C-84.61602276 83.62931897 -86.93492697 83.63621701 -89.25376892 83.65091133 C-92.49332156 83.66829295 -95.73121777 83.65386682 -98.97070312 83.63110352 C-100.41244652 83.64864182 -100.41244652 83.64864182 -101.88331604 83.66653442 C-108.35212851 83.57385359 -108.35212851 83.57385359 -111.61120605 80.68711853 C-113.1582728 77.69376467 -113.48672329 75.61431605 -112.8515625 72.2890625 C-109.24185394 62.58590096 -100.09405344 54.34749788 -93 47 C-92.46648926 46.4416748 -91.93297852 45.88334961 -91.38330078 45.30810547 C-87.19978508 41.0131558 -82.77557757 37.24492771 -78 33.625 C-77.25943359 33.06337158 -76.51886719 32.50174316 -75.75585938 31.9230957 C-55.57849192 16.85253207 -25.87313274 0 0 0 Z " fill="#434244" transform="translate(223,220)"/>
<path d="M0 0 C1.216875 -0.02900391 2.43375 -0.05800781 3.6875 -0.08789062 C15.00893579 -0.16651171 24.81923057 1.92560144 33.59765625 9.40234375 C41.29678203 17.13308811 43.78348665 26.74655214 44 37.4375 C43.91829815 49.69277778 41.04457843 61.39660266 32.09765625 70.25390625 C16.97618522 82.23738781 2.1428559 79.3125 -17.5 79.3125 C-17.5 53.5725 -17.5 27.8325 -17.5 1.3125 C-11.68392677 -0.14151831 -5.97432491 0.04628867 0 0 Z " fill="#434244" transform="translate(274.5,206.6875)"/>
<path d="M0 0 C0.99731644 -0.0071553 1.99463287 -0.01431061 3.02217102 -0.02168274 C6.31537833 -0.0385769 9.60722577 -0.01916194 12.90039062 0.00219727 C15.1905529 0.00136864 17.48071513 -0.0010905 19.77087402 -0.00511169 C24.56927402 -0.00797021 29.36720738 0.0067374 34.16552734 0.03417969 C40.3160989 0.06826192 46.46583596 0.06224441 52.61644745 0.04351711 C57.34510248 0.03294844 62.07356334 0.04188387 66.80220032 0.05690193 C69.07000655 0.06208514 71.33783304 0.06160028 73.6056366 0.05535698 C76.775295 0.04990661 79.94375893 0.07027553 83.11328125 0.09765625 C84.05057571 0.09113037 84.98787018 0.08460449 85.9535675 0.07788086 C90.16942792 0.13980421 92.47224987 0.27512809 96.14099121 2.50990295 C98.46636092 5.08478722 98.68069681 6.26655138 98.55664062 9.69360352 C98.54632813 10.55083008 98.53601563 11.40805664 98.52539062 12.29125977 C97.9585185 15.12089644 97.28870996 15.84729655 95.05664062 17.63110352 C92.86206055 18.24365234 92.86206055 18.24365234 90.28710938 18.58813477 C89.32699951 18.72767578 88.36688965 18.8672168 87.37768555 19.01098633 C86.34361572 19.15375 85.3095459 19.29651367 84.24414062 19.44360352 C65.22135299 22.36908527 47.47038715 27.39770982 30.05664062 35.63110352 C29.39615723 35.94273437 28.73567383 36.25436523 28.05517578 36.57543945 C13.25505882 43.70211998 0.00029682 53.27769511 -11.81835938 64.64672852 C-13.94335938 66.63110352 -13.94335938 66.63110352 -14.94335938 66.63110352 C-15.05934088 58.76419135 -15.1481183 50.89748038 -15.20242023 43.02992725 C-15.22848632 39.37641459 -15.26382714 35.72348792 -15.32055664 32.0703125 C-15.37498703 28.54301404 -15.4048024 25.01627824 -15.41774559 21.48859215 C-15.43144576 19.4915395 -15.47046231 17.49471245 -15.50984192 15.4980011 C-15.51021957 14.27711288 -15.51059723 13.05622467 -15.51098633 11.79833984 C-15.52208939 10.72578445 -15.53319244 9.65322906 -15.54463196 8.548172 C-13.7759752 -0.0324502 -7.31422078 -0.09124062 0 0 Z " fill="#F58323" transform="translate(124.943359375,190.368896484375)"/>
<path d="M0 0 C6.54385921 6.22464657 11.50990336 11.99314777 11.99609375 21.36328125 C12.01941307 23.15870321 12.02002433 24.95453827 12 26.75 C11.99315186 27.68263672 11.98630371 28.61527344 11.97924805 29.57617188 C11.78760473 37.77017997 10.4937018 43.77349775 5.3125 50.25 C4.405 50.971875 3.4975 51.69375 2.5625 52.4375 C1.99789062 52.9015625 1.43328125 53.365625 0.8515625 53.84375 C-3.88188818 57.32138724 -7.81789687 57.99527176 -13.62890625 58.00390625 C-16.4375 57.4375 -16.4375 57.4375 -23.4375 53.4375 C-23.7675 62.0175 -24.0975 70.5975 -24.4375 79.4375 C-29.7175 79.4375 -34.9975 79.4375 -40.4375 79.4375 C-40.4375 53.0375 -40.4375 26.6375 -40.4375 -0.5625 C-36.1475 -0.5625 -31.8575 -0.5625 -27.4375 -0.5625 C-27.4375 1.7475 -27.4375 4.0575 -27.4375 6.4375 C-26.7775 6.4375 -26.1175 6.4375 -25.4375 6.4375 C-25.1590625 5.57125 -25.1590625 5.57125 -24.875 4.6875 C-19.67291073 -3.4549006 -8.07203134 -3.66910515 0 0 Z " fill="#F58526" transform="translate(589.4375,229.5625)"/>
<path d="M0 0 C14.19 0 28.38 0 43 0 C43 4.29 43 8.58 43 13 C34.09 13 25.18 13 16 13 C16 19.27 16 25.54 16 32 C24.25 32 32.5 32 41 32 C41 35.96 41 39.92 41 44 C32.75 44 24.5 44 16 44 C16 51.26 16 58.52 16 66 C25.57 66 35.14 66 45 66 C45 70.29 45 74.58 45 79 C30.15 79 15.3 79 0 79 C0 52.93 0 26.86 0 0 Z " fill="#F58527" transform="translate(440,207)"/>
<path d="M0 0 C5.84730266 3.53274536 9.00526418 7.82302836 12 13.8125 C13 18.8125 13 18.8125 13 32.8125 C1.78 32.8125 -9.44 32.8125 -21 32.8125 C-18.86869205 40.07521708 -18.86869205 40.07521708 -14 43.8125 C-10.53172305 44.96859232 -7.7784416 44.94522398 -4.125 44.9375 C-2.30355469 44.94136719 -2.30355469 44.94136719 -0.4453125 44.9453125 C2.51119095 44.83134298 5.13191815 44.49953101 8 43.8125 C9.19287411 47.68934087 10 50.72871923 10 54.8125 C0.57378274 58.8523074 -10.74967327 59.6884725 -20.5625 56.3125 C-27.50332446 53.01736111 -32.1825292 46.85617701 -35 39.8125 C-37.38426612 29.88651268 -36.79268139 19.88890546 -32 10.8125 C-24.69165206 -0.17777513 -12.87127085 -4.90065892 0 0 Z " fill="#454446" transform="translate(361,229.1875)"/>
<path d="M0 0 C7.27786862 4.24542336 10.01099625 7.80779005 13 15.75 C13 21.36 13 26.97 13 32.75 C1.78 32.75 -9.44 32.75 -21 32.75 C-18.34448465 40.9218287 -18.34448465 40.9218287 -12 44.75 C-8.32037566 45.2679881 -8.32037566 45.2679881 -4.5 45.0625 C-3.2315625 45.03800781 -1.963125 45.01351562 -0.65625 44.98828125 C2.63044717 44.77408411 5.76690096 44.36369009 9 43.75 C10.17571451 47.42410785 10.07366746 50.91929183 10 54.75 C1.31503383 58.47212836 -8.55315464 59.35040902 -17.78515625 57.05859375 C-20.04410741 56.13254001 -21.96715789 55.09822793 -24 53.75 C-24.64453125 53.32589844 -25.2890625 52.90179688 -25.953125 52.46484375 C-31.34429669 48.398813 -34.27193277 42.98754862 -35.41430664 36.33862305 C-35.60630375 33.8566787 -35.65782005 31.42651471 -35.625 28.9375 C-35.61662109 28.06528809 -35.60824219 27.19307617 -35.59960938 26.29443359 C-35.30365209 17.80140407 -33.18805984 10.8257364 -26.9609375 4.765625 C-25.02751101 3.24495248 -23.14158344 1.95518259 -21 0.75 C-20.39027344 0.37746094 -19.78054688 0.00492188 -19.15234375 -0.37890625 C-13.59086861 -2.6297392 -5.5493837 -2.24180401 0 0 Z " fill="#F48425" transform="translate(684,229.25)"/>
<path d="M0 0 C5.61 0 11.22 0 17 0 C19.97 5.94 22.94 11.88 26 18 C28.97 12.06 31.94 6.12 35 0 C40.28 0 45.56 0 51 0 C49.47543365 3.81141586 48.11990074 6.57974964 45.92578125 9.94140625 C45.34119141 10.85470703 44.75660156 11.76800781 44.15429688 12.70898438 C42.92119904 14.61943606 41.68154668 16.52567224 40.43554688 18.42773438 C39.85482422 19.33974609 39.27410156 20.25175781 38.67578125 21.19140625 C38.13864502 22.01842041 37.60150879 22.84543457 37.0480957 23.69750977 C35.83082105 25.87943759 35.83082105 25.87943759 36.15332031 27.97045898 C37.22037549 30.528253 38.49046661 32.87692701 39.87109375 35.28125 C40.44537109 36.28800781 41.01964844 37.29476562 41.61132812 38.33203125 C42.21396484 39.37746094 42.81660156 40.42289062 43.4375 41.5 C44.62449954 43.57245775 45.81072881 45.6453569 46.99609375 47.71875 C47.52388428 48.63591797 48.0516748 49.55308594 48.59545898 50.49804688 C49.79304226 52.63133965 50.90591191 54.81182381 52 57 C46.39 57 40.78 57 35 57 C31.7 51.06 28.4 45.12 25 39 C20.05 47.91 20.05 47.91 15 57 C9.72 57 4.44 57 -1 57 C1.78482824 51.79676828 4.56303473 46.66063743 7.6953125 41.66015625 C8.15760254 40.91113037 8.61989258 40.16210449 9.09619141 39.39038086 C10.02371366 37.8936019 10.96592403 36.40581468 11.92333984 34.92797852 C12.3508252 34.23244873 12.77831055 33.53691895 13.21875 32.8203125 C13.60998047 32.20430176 14.00121094 31.58829102 14.40429688 30.95361328 C15.28522254 28.06461036 14.33497818 26.65517893 13 24 C12.02035179 22.23754248 11.00483211 20.49471274 9.9609375 18.76953125 C9.38085938 17.80208984 8.80078125 16.83464844 8.203125 15.83789062 C6.97709817 13.80892101 5.75052927 11.78027886 4.5234375 9.75195312 C3.9459375 8.78837891 3.3684375 7.82480469 2.7734375 6.83203125 C2.24153809 5.95264893 1.70963867 5.0732666 1.16162109 4.16723633 C0 2 0 2 0 0 Z " fill="#F48424" transform="translate(490,229)"/>
<path d="M0 0 C5.28 0 10.56 0 16 0 C19.25361698 8.44356797 21.62645496 16.89711722 23.75 25.6875 C24.0684518 26.9864652 24.38745916 28.28529433 24.70703125 29.58398438 C25.47679858 32.72136938 26.24099786 35.85999663 27 39 C27.12528076 38.42258057 27.25056152 37.84516113 27.37963867 37.25024414 C30.12865541 24.66211624 33.21791054 12.31880566 37 0 C42.28 0 47.56 0 53 0 C51.35381513 6.68157387 49.297832 13.07054451 46.875 19.5 C42.2127613 31.87375048 38.13018112 44.44087783 34 57 C29.05 57 24.1 57 19 57 C14.49899498 46.82755653 11.05073386 36.41169981 7.64135742 25.83300781 C6.6778221 22.84498787 5.70567401 19.85986749 4.73242188 16.875 C4.11668551 14.97672526 3.50143296 13.07829349 2.88671875 11.1796875 C2.59617111 10.28708221 2.30562347 9.39447693 2.00627136 8.474823 C1.74211929 7.65281403 1.47796722 6.83080505 1.20581055 5.98388672 C0.97218307 5.26063202 0.7385556 4.53737732 0.49784851 3.79220581 C0 2 0 2 0 0 Z " fill="#454546" transform="translate(379,229)"/>
<path d="M0 0 C17.91183879 0 17.91183879 0 23 5 C29.47671328 12.02756776 30.35797769 19.53921867 30.1875 28.8515625 C29.74886255 36.2170164 27.68933399 43.98543547 22.58203125 49.54296875 C15.27049375 55.95231139 10.15218522 55 0 55 C0 36.85 0 18.7 0 0 Z " fill="#FCFCFC" transform="translate(272,219)"/>
<path d="M0 0 C1.8984375 0.82421875 1.8984375 0.82421875 4.4609375 2.32421875 C2.5859375 10.07421875 2.5859375 10.07421875 1.4609375 12.32421875 C0.6565625 12.15921875 -0.1478125 11.99421875 -0.9765625 11.82421875 C-5.14080926 11.23976307 -9.34579039 10.82941264 -13.5390625 11.32421875 C-15.79284055 13.12989992 -15.79284055 13.12989992 -15.65234375 15.66796875 C-13.92142817 19.79787258 -10.61523533 20.89859423 -6.7265625 22.82421875 C-0.58364195 25.91479033 4.1545349 28.40501095 6.4609375 35.32421875 C7.23893219 41.58151889 6.7820267 46.41653546 3.09375 51.6328125 C-0.92657704 55.79740965 -6.90209149 58.14998433 -12.61328125 58.52734375 C-19.67644717 58.61897401 -25.13866659 58.39640879 -31.5390625 55.32421875 C-31.39738113 53.88630359 -31.25055207 52.44889505 -31.1015625 51.01171875 C-31.02035156 50.21121094 -30.93914063 49.41070312 -30.85546875 48.5859375 C-30.5390625 46.32421875 -30.5390625 46.32421875 -29.5390625 43.32421875 C-28.9821875 43.54078125 -28.4253125 43.75734375 -27.8515625 43.98046875 C-22.49472183 45.9349917 -18.24150057 46.81580824 -12.5390625 46.32421875 C-11.5490625 45.66421875 -10.5590625 45.00421875 -9.5390625 44.32421875 C-8.78845401 41.41039146 -8.78845401 41.41039146 -9.5390625 38.32421875 C-12.04185133 36.19684825 -14.51741024 34.78436768 -17.5078125 33.4375 C-23.3738061 30.76396061 -27.61118444 27.17997487 -30.5390625 21.32421875 C-31.08266696 16.36939781 -31.10343324 12.45296023 -28.8515625 7.94921875 C-21.05961585 -0.89569367 -11.39743922 -3.03347229 0 0 Z " fill="#F48425" transform="translate(781.5390625,228.67578125)"/>
<path d="M0 0 C1.05477539 -0.01160156 1.05477539 -0.01160156 2.13085938 -0.0234375 C6.21648718 -0.00812118 9.38891173 0.43836743 13.0625 2.25 C13.25872241 6.46878192 12.86480168 9.42010894 11.0625 13.25 C10.258125 13.085 9.45375 12.92 8.625 12.75 C4.46075324 12.16554432 0.25577211 11.75519389 -3.9375 12.25 C-4.5975 12.91 -5.2575 13.57 -5.9375 14.25 C-5.92083671 16.75324332 -5.92083671 16.75324332 -4.9375 19.25 C-2.20133794 21.62581929 0.64132866 23.04188059 3.9375 24.5 C9.45270852 27.18021211 13.30655616 30.73811233 16.0625 36.25 C16.45867431 42.09357111 16.05334005 46.04014959 13.0625 51.25 C8.18372704 56.73389208 3.34988338 58.95151128 -4.0234375 59.46484375 C-10.30063233 59.64439738 -15.59557537 59.77081396 -20.9375 56.25 C-22.91573751 52.06079116 -21.34513605 48.47290814 -19.9375 44.25 C-19.3084375 44.4665625 -18.679375 44.683125 -18.03125 44.90625 C-12.44671603 46.72290563 -7.81240075 47.77454471 -1.9375 47.25 C0.35180236 45.36861241 0.35180236 45.36861241 0.4375 42.3125 C0.39803763 39.21233241 0.39803763 39.21233241 -1.65234375 37.70703125 C-3.99815266 36.21132745 -6.34780904 35.03540509 -8.875 33.875 C-14.4225456 31.15433331 -18.50841054 28.06925346 -20.9375 22.25 C-21.63827817 17.31195847 -21.49308401 13.36116802 -19.25 8.875 C-13.39693364 2.23097873 -8.77752024 -0.09601663 0 0 Z " fill="#F48424" transform="translate(726.9375,227.75)"/>
<path d="M0 0 C0 4.62 0 9.24 0 14 C-1.216875 14.0825 -2.43375 14.165 -3.6875 14.25 C-7.81939574 14.77654247 -10.08106633 15.90936435 -13 19 C-15.17635013 23.2178184 -15.33918781 27.27235487 -15.4140625 31.92578125 C-15.43342865 32.67337204 -15.4527948 33.42096283 -15.4727478 34.19120789 C-15.53223918 36.56485806 -15.57880592 38.93855754 -15.625 41.3125 C-15.66320789 42.92775482 -15.70226125 44.54298987 -15.7421875 46.15820312 C-15.83949805 50.10536238 -15.91930522 54.05232655 -16 58 C-20.95 58 -25.9 58 -31 58 C-31 39.19 -31 20.38 -31 1 C-26.71 1 -22.42 1 -18 1 C-17.67 3.64 -17.34 6.28 -17 9 C-16.443125 7.88625 -16.443125 7.88625 -15.875 6.75 C-11.55695305 0.41686447 -7.17988563 -0.49516453 0 0 Z " fill="#F48322" transform="translate(643,228)"/>
<path d="M0 0 C4.79336766 3.13412501 6.55677432 5.54487175 8 11 C8.82079043 18.69252423 8.72665945 25.62146303 4 32 C1.51294541 34.7443361 0.27140756 34.96052254 -3.4375 35.5 C-7.89006919 34.87507801 -9.21710264 33.43769674 -12 30 C-13.86452781 26.27094439 -13.31422991 21.8547436 -13.375 17.75 C-13.41238281 16.80769531 -13.44976563 15.86539063 -13.48828125 14.89453125 C-13.54596436 10.32474742 -13.56408213 7.03445884 -10.6015625 3.390625 C-6.93280374 0.01933317 -4.97518486 -0.57405979 0 0 Z " fill="#FEFCFB" transform="translate(578,240)"/>
<path d="M0 0 C3.38677089 2.45000447 4.78698584 3.86392446 5.5625 8 C4.8491179 11.80470451 3.88381579 13.41196019 1 16 C-3.00803597 17.1659741 -5.05282711 17.43240501 -8.875 15.6875 C-11 14 -11 14 -12 12 C-12.28394278 9.06592458 -12.48994001 6.84953616 -12 4 C-8.52445854 -0.21277753 -5.30670762 -0.85286372 0 0 Z " fill="#F7AB6B" transform="translate(805,217)"/>
<path d="M0 0 C4.41564392 1.52540426 5.98192342 3.24369519 8.4375 7.1875 C8.4375 9.1675 8.4375 11.1475 8.4375 13.1875 C1.8375 13.1875 -4.7625 13.1875 -11.5625 13.1875 C-9.5625 5.1875 -9.5625 5.1875 -6.875 2.125 C-3.5625 0.1875 -3.5625 0.1875 0 0 Z " fill="#FEFBF8" transform="translate(674.5625,237.8125)"/>
<path d="M0 0 C2.08984375 0.41015625 2.08984375 0.41015625 4.58984375 1.91015625 C6.08984375 4.41015625 6.08984375 4.41015625 7.08984375 12.41015625 C0.48984375 12.41015625 -6.11015625 12.41015625 -12.91015625 12.41015625 C-11.91015625 5.41015625 -11.91015625 5.41015625 -9.91015625 2.47265625 C-6.34630824 0.02251074 -4.24043814 -0.27516986 0 0 Z " fill="#FAFAFA" transform="translate(352.91015625,238.58984375)"/>
<path d="M0 0 C1.98 0 3.96 0 6 0 C6.33 1.65 6.66 3.3 7 5 C6.34 5 5.68 5 5 5 C5.66 6.65 6.32 8.3 7 10 C6.01 9.67 5.02 9.34 4 9 C3.67 8.34 3.34 7.68 3 7 C2.67 7.99 2.34 8.98 2 10 C1.34 10 0.68 10 0 10 C0 6.7 0 3.4 0 0 Z " fill="#F48426" transform="translate(798,220)"/>
<path d="M0 0 C0.33 0 0.66 0 1 0 C1.21691118 3.18136394 1.25066255 5.43969547 -0.0625 8.375 C-2.93947559 10.78794727 -5.37659799 10.2734643 -9 10 C-8.34 9.67 -7.68 9.34 -7 9 C-7 7.35 -7 5.7 -7 4 C-4.525 5.98 -4.525 5.98 -2 8 C-2.66 6.35 -3.32 4.7 -4 3 C-3.01 2.67 -2.02 2.34 -1 2 C-0.67 1.34 -0.34 0.68 0 0 Z " fill="#FDEEE1" transform="translate(807,222)"/>
<path d="M0 0 C0.33 0 0.66 0 1 0 C1 3.3 1 6.6 1 10 C0.34 10 -0.32 10 -1 10 C-2.25 3.375 -2.25 3.375 0 0 Z " fill="#FEF4ED" transform="translate(796,220)"/>
<path d="M0 0 C2.475 0.495 2.475 0.495 5 1 C5 2.32 5 3.64 5 5 C3.35 5 1.7 5 0 5 C0 3.35 0 1.7 0 0 Z " fill="#F7AB6A" transform="translate(800,220)"/>
</svg>
