<?xml version="1.0" encoding="UTF-8"?>
<svg version="1.1" xmlns="http://www.w3.org/2000/svg" width="800" height="880">
<path d="M0 0 C0.79241089 0.0012085 1.58482178 0.00241699 2.40124512 0.00366211 C15.47008457 0.05758677 27.90310202 0.88559587 40.5625 4.375 C41.51979004 4.63812988 42.47708008 4.90125977 43.46337891 5.17236328 C65.86389465 11.56166293 84.81369433 22.72089038 104.44921875 34.9765625 C112.28606307 39.86231383 120.2357154 44.55455835 128.1875 49.25 C136.65614746 54.25542276 145.11222048 59.26561769 153.41943359 64.53637695 C160.14724853 68.78519123 166.98488224 72.85201037 173.8125 76.9375 C183.78885975 82.90814362 193.75254564 88.89817252 203.6875 94.9375 C204.25937042 95.28505341 204.83124084 95.63260681 205.42044067 95.99069214 C208.8864908 98.09735622 212.35190497 100.2050644 215.81707764 102.31317139 C221.12716842 105.54356791 226.43805321 108.77265631 231.75 112 C232.62377289 112.53090744 232.62377289 112.53090744 233.51519775 113.07254028 C241.68175932 118.03326943 249.86496044 122.96559187 258.0625 127.875 C268.02397942 133.84081055 277.96157969 139.84500695 287.87939453 145.88305664 C289.05368637 146.59785937 290.22800286 147.31262161 291.40234375 148.02734375 C292.27835236 148.56050957 292.27835236 148.56050957 293.17205811 149.10444641 C297.46068418 151.71186726 301.7616317 154.2982552 306.06640625 156.87890625 C322.06410164 166.4799047 337.62201639 175.91317136 351.09472656 188.96289062 C352.56345498 190.37591877 354.05675258 191.75866552 355.5546875 193.140625 C381.36368683 217.39547098 398.66446765 255.22754822 400.75010753 290.55255592 C400.8230267 293.8389078 400.83887381 297.12006613 400.82992554 300.4072113 C400.83445665 301.6523634 400.83898776 302.8975155 400.84365618 304.18039948 C400.85404227 307.59750661 400.8556406 311.01440139 400.85326743 314.4315089 C400.85285607 318.13250057 400.86392878 321.83346189 400.87338257 325.53443909 C400.88992649 332.77178537 400.89548916 340.00909907 400.89660732 347.2464627 C400.89756119 353.13746339 400.90168831 359.02845344 400.90800858 364.91945076 C400.92560495 381.66448935 400.93485026 398.40950241 400.93334763 415.15455031 C400.93322776 416.50588604 400.93322776 416.50588604 400.93310547 417.88452148 C400.93302371 418.78652726 400.93294195 419.68853303 400.93285771 420.61787231 C400.93204583 435.21657762 400.9511628 449.81517952 400.9793822 464.41385495 C401.00820701 479.44580502 401.02191716 494.47770482 401.02019465 509.50968319 C401.01953393 517.93194486 401.02488535 526.35409818 401.04655075 534.77633476 C401.06488967 541.95080362 401.06900705 549.12511505 401.0555319 556.29959738 C401.04906486 559.95002875 401.04865314 563.60015925 401.0662384 567.25056076 C401.15716615 587.37710633 400.17794476 607.06233246 393.3125 626.1875 C392.86753174 627.46765991 392.86753174 627.46765991 392.41357422 628.77368164 C387.4757935 642.60538579 381.07511649 655.40402488 372.5625 667.375 C372.16756348 667.93219727 371.77262695 668.48939453 371.36572266 669.06347656 C354.16241492 692.93212025 332.00769716 708.17864039 307.14598083 723.0335083 C301.17835832 726.59945612 295.23612448 730.20641923 289.29721069 733.81991577 C286.39724812 735.58372849 283.49536821 737.34438155 280.59375 739.10546875 C276.43080839 741.63268693 272.26861432 744.16113078 268.10717773 746.69082642 C256.48888106 753.75341948 244.86562697 760.80657876 233.19921875 767.78955078 C226.1374899 772.02059874 219.09814144 776.28826852 212.0625 780.5625 C211.473479 780.92032562 210.88445801 781.27815125 210.27758789 781.64682007 C206.03877017 784.22213148 201.80057026 786.79845875 197.5625 789.375 C192.72958024 792.31318091 187.89640522 795.2509406 183.0625 798.1875 C182.17800171 798.72484268 182.17800171 798.72484268 181.27563477 799.27304077 C173.26575362 804.13809264 165.24042168 808.97645886 157.19921875 813.78955078 C150.13748766 818.02060009 143.098331 822.28857789 136.0625 826.5625 C135.47381134 826.91999329 134.88512268 827.27748657 134.27859497 827.64581299 C128.19786491 831.33859929 122.11909239 835.03455494 116.04545593 838.73899841 C64.95311642 869.89965715 64.95311642 869.89965715 40.5625 876.375 C39.76618164 876.58817871 38.96986328 876.80135742 38.14941406 877.02099609 C13.83811137 883.19926145 -15.26368049 883.03820988 -39.4375 876.375 C-40.39479004 876.11187012 -41.35208008 875.84874023 -42.33837891 875.57763672 C-65.03182302 869.1047851 -84.39047058 857.64951641 -104.31542969 845.30224609 C-109.31300853 842.21725334 -114.33687362 839.17564378 -119.35983276 836.13223267 C-122.31766091 834.33971957 -125.27398981 832.5447372 -128.23046875 830.75 C-129.11778435 830.21147148 -129.11778435 830.21147148 -130.02302551 829.6620636 C-134.26248797 827.08892498 -138.50060497 824.51357894 -142.73828125 821.9375 C-152.95719576 815.72634708 -163.17661084 809.51669337 -173.4375 803.375 C-181.28889943 798.67551567 -189.11716279 793.93844301 -196.9375 789.1875 C-197.82103149 788.65076157 -197.82103149 788.65076157 -198.72241211 788.10317993 C-203.57234021 785.15658585 -208.42143496 782.20862132 -213.27050781 779.26062012 C-217.49245902 776.69395524 -221.71472201 774.12780442 -225.9375 771.5625 C-226.52716553 771.20427155 -227.11683105 770.84604309 -227.72436523 770.47695923 C-234.94950006 766.08854759 -242.18409626 761.71655178 -249.4375 757.375 C-260.29805765 750.87437283 -271.11251879 744.29809459 -281.92779541 737.72254944 C-286.24630519 735.09746618 -290.56780018 732.47734538 -294.890625 729.859375 C-300.74687202 726.31272457 -306.59734561 722.75671348 -312.44433594 719.19482422 C-315.04472224 717.61380632 -317.65034787 716.04195329 -320.2578125 714.47265625 C-359.14621861 690.89981206 -385.43497247 655.22124932 -396.4296875 611.09765625 C-398.7107306 600.84330745 -399.73349676 590.83841711 -399.70492554 580.3427887 C-399.71172221 578.47506055 -399.71172221 578.47506055 -399.71865618 576.56960052 C-399.72904227 573.15249339 -399.7306406 569.73559861 -399.72826743 566.3184911 C-399.72785607 562.61749943 -399.73892878 558.91653811 -399.74838257 555.21556091 C-399.76492649 547.97821463 -399.77048916 540.74090093 -399.77160732 533.5035373 C-399.77256119 527.61253661 -399.77668831 521.72154656 -399.78300858 515.83054924 C-399.80060495 499.08551065 -399.80985026 482.34049759 -399.80834763 465.59544969 C-399.80826772 464.6945592 -399.8081878 463.79366872 -399.80810547 462.86547852 C-399.80802371 461.96347274 -399.80794195 461.06146697 -399.80785771 460.13212769 C-399.80704583 445.53342238 -399.8261628 430.93482048 -399.8543822 416.33614505 C-399.88320701 401.30419498 -399.89691716 386.27229518 -399.89519465 371.24031681 C-399.89453393 362.81805514 -399.89988535 354.39590182 -399.92155075 345.97366524 C-399.93988967 338.79919638 -399.94400705 331.62488495 -399.9305319 324.45040262 C-399.92406486 320.79997125 -399.92365314 317.14984075 -399.9412384 313.49943924 C-400.03216615 293.37289367 -399.05294476 273.68766754 -392.1875 254.5625 C-391.89085449 253.70906006 -391.59420898 252.85562012 -391.28857422 251.97631836 C-386.34003363 238.11447369 -379.88919501 225.41498371 -371.4375 213.375 C-370.72464844 212.34375 -370.01179688 211.3125 -369.27734375 210.25 C-353.05028931 187.98302993 -331.78859601 172.82781912 -308.31347656 159.07373047 C-303.42107019 156.18397125 -298.57041347 153.22531484 -293.71704102 150.2706604 C-291.92585326 149.18041093 -290.13394288 148.09135905 -288.34179688 147.00268555 C-283.53844902 144.08471443 -278.73609525 141.16511037 -273.93457031 138.24414062 C-260.16346021 129.86667891 -246.37236809 121.52460709 -232.54455566 113.24102783 C-223.45040023 107.79234147 -214.3722291 102.3182441 -205.3125 96.8125 C-204.73954193 96.46431213 -204.16658386 96.11612427 -203.57626343 95.75738525 C-200.11130798 93.65136861 -196.64700858 91.54427463 -193.18292236 89.43682861 C-187.87283158 86.20643209 -182.56194679 82.97734369 -177.25 79.75 C-176.66748474 79.39606171 -176.08496948 79.04212341 -175.48480225 78.67745972 C-166.29750096 73.09668831 -157.08590382 67.55720531 -147.86376953 62.03417969 C-140.69101466 57.73528068 -133.53362309 53.4116052 -126.3866272 49.07006836 C-124.62935894 48.00264776 -122.87170221 46.93586899 -121.11401367 45.86914062 C-115.69966344 42.58172423 -110.28983858 39.28728796 -104.89172363 35.9732666 C-81.17189664 21.41191534 -58.1413139 7.74040271 -30.4375 2.375 C-29.07371216 2.11009766 -29.07371216 2.11009766 -27.68237305 1.83984375 C-18.4361457 0.22515994 -9.35693081 -0.02647772 0 0 Z M-34.4375 284.375 C-35.62956055 284.68099121 -35.62956055 284.68099121 -36.84570312 284.99316406 C-64.74705547 292.3485858 -88.32710757 307.17576663 -112.71923828 322.10205078 C-118.29589736 325.51330208 -123.88463069 328.90467518 -129.47320557 332.2963562 C-131.17769013 333.33110264 -132.88158289 334.36682374 -134.58544922 335.40258789 C-135.65682129 336.05348389 -136.72819336 336.70437988 -137.83203125 337.375 C-138.8276709 338.00027084 -139.82331055 338.62554169 -140.84912109 339.26976013 C-143.27525829 340.74996123 -145.70868462 341.9769025 -148.30984497 343.11914062 C-152.42299857 345.03321434 -156.31935072 347.01289301 -159.4375 350.375 C-161.52981282 356.23700316 -161.24836086 361.72443001 -160.97265625 367.875 C-160.94967598 369.59579297 -160.93315576 371.31668293 -160.92271423 373.03759766 C-160.87692383 377.56857518 -160.73974309 382.0923782 -160.58404541 386.62072754 C-160.44615484 391.13957262 -160.40131036 395.65922323 -160.34570312 400.1796875 C-159.60025276 451.46111428 -153.41126443 500.63020565 -115.84228516 538.93505859 C-114.40974301 540.40345164 -113.00713883 541.89669169 -111.60546875 543.39453125 C-98.16115559 557.56187698 -81.6572206 567.09311816 -65.02090454 577.03358459 C-59.05185067 580.60028991 -53.10834497 584.20825903 -47.16809082 587.82266235 C-45.4432071 588.87152963 -43.71738532 589.91883455 -41.99121094 590.96557617 C-36.5207849 594.28311708 -31.05420615 597.6066579 -25.59780884 600.94723511 C-23.02056417 602.52469244 -20.44162479 604.09936713 -17.86254883 605.67382812 C-16.63350743 606.42520433 -15.40529798 607.17794331 -14.17797852 607.93212891 C-12.47623426 608.97773091 -10.77138207 610.01826952 -9.06640625 611.05859375 C-8.09775635 611.65212646 -7.12910645 612.24565918 -6.13110352 612.85717773 C-2.43312927 614.98206505 -2.43312927 614.98206505 1.5625 616.375 C4.15941602 615.47100452 4.15941602 615.47100452 6.68359375 613.703125 C7.68567871 613.06769775 8.68776367 612.43227051 9.72021484 611.77758789 C10.80254395 611.06723389 11.88487305 610.35687988 13 609.625 C14.74590579 608.50928485 16.49604615 607.40040884 18.24621582 606.29139709 C19.47211604 605.51371999 20.69662015 604.73383824 21.9197998 603.95188904 C28.06102483 600.03010129 34.30157961 596.28317261 40.5617981 592.55529785 C43.70897428 590.679783 46.85013055 588.79423 49.9921875 586.91015625 C53.79100305 584.6335969 57.59045681 582.35811759 61.39160156 580.08544922 C79.27814381 569.38438888 96.50153165 558.92229276 111.5625 544.375 C112.47644531 543.52421875 113.39039063 542.6734375 114.33203125 541.796875 C141.79299177 515.55378255 158.01659106 477.36679685 160.03295898 439.63232422 C160.32927631 434.30740088 160.65242603 428.98630107 161.02584934 423.6662159 C161.60715139 415.33833589 162.02533228 407.0147802 162.30262089 398.67108345 C162.4586982 394.12181541 162.67530033 389.59253818 163.03149414 385.05419922 C165.16960093 365.96871618 165.16960093 365.96871618 159.13790131 348.55033875 C151.68244418 341.13507719 141.77145222 336.85416957 132.17573547 332.91365051 C127.93487482 331.10773377 124.36003923 328.96771262 120.5625 326.375 C73.78281845 296.52223861 22.98263751 269.36442351 -34.4375 284.375 Z " fill="#4597D7" transform="translate(399.4375,-0.37499999999999994)"/>
<path d="M0 0 C11.51683248 6.23218566 11.51683248 6.23218566 17.015625 9.55078125 C18.53978027 10.46815063 18.53978027 10.46815063 20.09472656 11.40405273 C21.1359668 12.03384033 22.17720703 12.66362793 23.25 13.3125 C25.45832419 14.64324434 27.66665748 15.97397357 29.875 17.3046875 C30.92945313 17.94116211 31.98390625 18.57763672 33.0703125 19.23339844 C35.54424194 20.72517789 38.02066168 22.21254837 40.5 23.6953125 C41.47211426 24.27671997 41.47211426 24.27671997 42.46386719 24.86987305 C44.08527956 25.83904149 45.70670173 26.80819354 47.328125 27.77734375 C51.14446658 30.07516172 54.93248699 32.41891709 58.7247467 34.75617981 C64.5997064 38.37437391 70.49517362 41.95846968 76.39428711 45.53710938 C78.19740695 46.63101026 80.00009597 47.72561847 81.80273438 48.8203125 C87.67999015 52.38810133 93.56502438 55.94234893 99.46313477 59.47558594 C104.6116377 62.56934519 109.74208167 65.69297777 114.875 68.8125 C117.35411005 70.31910361 119.83326875 71.82562709 122.3125 73.33203125 C122.94388885 73.71569855 123.57527771 74.09936584 124.22579956 74.49465942 C128.66812379 77.19322279 133.11446319 79.8850842 137.5625 82.57421875 C185.646815 111.6521547 221.94329836 143.25243888 236.40380859 199.51513672 C245.3412952 236.76564396 237.70935269 275.88693533 217.79443359 308.44482422 C215.94526213 311.35602534 213.99846468 314.18963364 212 317 C211.60506348 317.55719727 211.21012695 318.11439453 210.80322266 318.68847656 C193.59991492 342.55712025 171.44519716 357.80364039 146.58348083 372.6585083 C140.61585832 376.22445612 134.67362448 379.83141923 128.73471069 383.44491577 C125.83474812 385.20872849 122.93286821 386.96938155 120.03125 388.73046875 C115.86830839 391.25768693 111.70611432 393.78613078 107.54467773 396.31582642 C95.92638106 403.37841948 84.30312697 410.43157876 72.63671875 417.41455078 C65.5749899 421.64559874 58.53564144 425.91326852 51.5 430.1875 C50.910979 430.54532562 50.32195801 430.90315125 49.71508789 431.27182007 C45.47627017 433.84713148 41.23807026 436.42345875 37 439 C32.16708024 441.93818091 27.33390522 444.8759406 22.5 447.8125 C21.61550171 448.34984268 21.61550171 448.34984268 20.71313477 448.89804077 C12.70325362 453.76309264 4.67792168 458.60145886 -3.36328125 463.41455078 C-10.42501234 467.64560009 -17.464169 471.91357789 -24.5 476.1875 C-25.38303299 476.72373993 -25.38303299 476.72373993 -26.28390503 477.27081299 C-32.36463509 480.96359929 -38.44340761 484.65955494 -44.51704407 488.36399841 C-95.60938358 519.52465715 -95.60938358 519.52465715 -120 526 C-120.79631836 526.21317871 -121.59263672 526.42635742 -122.41308594 526.64599609 C-146.72438863 532.82426145 -175.82618049 532.66320988 -200 526 C-200.95729004 525.73687012 -201.91458008 525.47374023 -202.90087891 525.20263672 C-225.59432302 518.7297851 -244.95297058 507.27451641 -264.87792969 494.92724609 C-269.87550853 491.84225334 -274.89937362 488.80064378 -279.92233276 485.75723267 C-282.88016091 483.96471957 -285.83648981 482.1697372 -288.79296875 480.375 C-289.38451248 480.01598099 -289.97605621 479.65696198 -290.58552551 479.2870636 C-294.82498797 476.71392498 -299.06310497 474.13857894 -303.30078125 471.5625 C-313.51969576 465.35134708 -323.73911084 459.14169337 -334 453 C-341.85139943 448.30051567 -349.67966279 443.56344301 -357.5 438.8125 C-358.38353149 438.27576157 -358.38353149 438.27576157 -359.28491211 437.72817993 C-364.13484021 434.78158585 -368.98393496 431.83362132 -373.83300781 428.88562012 C-378.05495902 426.31895524 -382.27722201 423.75280442 -386.5 421.1875 C-387.08966553 420.82927155 -387.67933105 420.47104309 -388.28686523 420.10195923 C-396.2821443 415.2457764 -404.29269454 410.41597251 -412.31933594 405.61181641 C-419.81258259 401.12231488 -427.28257561 396.59476862 -434.75 392.0625 C-435.65395508 391.51420532 -435.65395508 391.51420532 -436.57617188 390.95483398 C-439.4011604 389.24104371 -442.22363417 387.5236667 -445.04101562 385.79736328 C-446.87072681 384.68594961 -448.71133133 383.59199874 -450.56835938 382.52685547 C-455.85365201 379.44611712 -455.85365201 379.44611712 -456.70214844 376.85961914 C-456.80043945 376.24594482 -456.89873047 375.63227051 -457 375 C-456.3915625 375.17015625 -455.783125 375.3403125 -455.15625 375.515625 C-452.10796479 376.3583862 -449.05499667 377.18188225 -446 378 C-444.74574219 378.33644531 -443.49148438 378.67289063 -442.19921875 379.01953125 C-440.86220707 379.36806294 -439.52496832 379.71572477 -438.1875 380.0625 C-436.96417969 380.38347656 -435.74085938 380.70445312 -434.48046875 381.03515625 C-423.49151701 383.55370098 -412.6594861 384.30607152 -401.43676758 384.20581055 C-399.27608793 384.18718614 -397.11583087 384.18530423 -394.95507812 384.18554688 C-387.87448949 384.34502319 -387.87448949 384.34502319 -381 383 C-379.10529184 382.9314505 -377.2083166 382.91519628 -375.3125 382.9375 C-374.31863281 382.94652344 -373.32476562 382.95554687 -372.30078125 382.96484375 C-371.16189453 382.98224609 -371.16189453 382.98224609 -370 383 C-370 382.34 -370 381.68 -370 381 C-368.35 381.33 -366.7 381.66 -365 382 C-365 381.34 -365 380.68 -365 380 C-363.68 380.33 -362.36 380.66 -361 381 C-361 380.34 -361 379.68 -361 379 C-359.68 379.33 -358.36 379.66 -357 380 C-356.67 379.34 -356.34 378.68 -356 378 C-355.34 378.33 -354.68 378.66 -354 379 C-354 378.34 -354 377.68 -354 377 C-353.071875 376.87625 -352.14375 376.7525 -351.1875 376.625 C-347.86074765 376.18466918 -347.86074765 376.18466918 -345 374 C-343.33499557 373.65846063 -341.66821323 373.32550502 -340 373 C-337.93330603 372.09166275 -337.93330603 372.09166275 -336 371 C-333.67440121 369.75968065 -331.60436868 368.88215237 -329.0625 368.125 C-325.73847816 366.90393075 -323.72355955 365.22185121 -321 363 C-318.8125 362.375 -318.8125 362.375 -317 362 C-316.34 361.34 -315.68 360.68 -315 360 C-314.01 359.67 -313.02 359.34 -312 359 C-311.34 358.34 -310.68 357.68 -310 357 C-309.01 356.67 -308.02 356.34 -307 356 C-306.38125 355.360625 -305.7625 354.72125 -305.125 354.0625 C-302.8213378 351.82659257 -300.9593966 351.13822946 -298 350 C-297.484375 349.484375 -296.96875 348.96875 -296.4375 348.4375 C-294.67437316 346.67437316 -293.39150659 346.57975917 -291 346 C-289.65210653 345.01971384 -288.31787285 344.02028865 -287 343 C-286.01 342.67 -285.02 342.34 -284 342 C-283.34 341.34 -282.68 340.68 -282 340 C-281.01 339.67 -280.02 339.34 -279 339 C-278.34 338.34 -277.68 337.68 -277 337 C-276.01 336.67 -275.02 336.34 -274 336 C-273.34 335.34 -272.68 334.68 -272 334 C-271.01 333.67 -270.02 333.34 -269 333 C-268.443125 332.401875 -267.88625 331.80375 -267.3125 331.1875 C-264.23054506 328.27213722 -260.81515536 326.77345112 -257 325 C-254.76819384 323.92725339 -252.91735885 322.93739307 -250.9375 321.4375 C-249 320 -249 320 -246 319 C-245.34 318.34 -244.68 317.68 -244 317 C-243.01 316.67 -242.02 316.34 -241 316 C-240.34 315.34 -239.68 314.68 -239 314 C-238.01 313.67 -237.02 313.34 -236 313 C-235.34 312.34 -234.68 311.68 -234 311 C-233.01 310.67 -232.02 310.34 -231 310 C-230.34 309.34 -229.68 308.68 -229 308 C-226.57009427 306.48951806 -224.10093377 305.05843534 -221.625 303.625 C-219.55070381 302.34091188 -217.64201052 301.0117629 -215.6875 299.5625 C-212.00204401 296.89094675 -208.10528136 294.93836996 -204 293 C-203.30261719 292.63261719 -202.60523438 292.26523437 -201.88671875 291.88671875 C-200 291 -200 291 -198 291 C-197.67 290.01 -197.34 289.02 -197 288 C-195.0625 287.4375 -195.0625 287.4375 -193 287 C-192.34 286.34 -191.68 285.68 -191 285 C-190.01 285 -189.02 285 -188 285 C-187.67 284.01 -187.34 283.02 -187 282 C-186.34 282 -185.68 282 -185 282 C-184.47664063 281.44828125 -183.95328125 280.8965625 -183.4140625 280.328125 C-180.1002163 277.13224743 -176.34667988 275.04237899 -172.375 272.75 C-171.59898437 272.29109375 -170.82296875 271.8321875 -170.0234375 271.359375 C-164.26450893 268 -164.26450893 268 -162 268 C-162.66 266.68 -163.32 265.36 -164 264 C-162.92093384 264.33318237 -162.92093384 264.33318237 -161.82006836 264.6730957 C-158.17840107 265.09524032 -156.93679552 264.19740482 -153.87890625 262.23046875 C-152.37577881 261.28216187 -152.37577881 261.28216187 -150.84228516 260.31469727 C-149.75995605 259.61272217 -148.67762695 258.91074707 -147.5625 258.1875 C-145.81613516 257.07922401 -144.06627849 255.97660329 -142.31628418 254.87406921 C-141.09069912 254.10142089 -139.86618962 253.32706417 -138.6427002 252.55110168 C-132.49178161 248.65488207 -126.25452364 244.90935052 -120.0007019 241.18130493 C-116.85412322 239.30445673 -113.71261612 237.41914987 -110.5703125 235.53515625 C-106.77148341 233.25861946 -102.97204322 230.98311761 -99.17089844 228.71044922 C-81.28253289 218.00829804 -64.06831849 207.54219005 -49 193 C-48.15953125 192.22269531 -47.3190625 191.44539062 -46.453125 190.64453125 C-15.65128299 161.36316233 -2.21085695 119.21928851 -0.92884445 77.69529343 C-0.79639305 72.07746634 -0.73980493 66.4588535 -0.68359375 60.83984375 C-0.66295096 59.07051694 -0.64195302 57.30119424 -0.62062073 55.53187561 C-0.56615441 50.9371988 -0.51642163 46.3424833 -0.46777344 41.7477417 C-0.41699736 37.03426789 -0.36160813 32.32084834 -0.30664062 27.60742188 C-0.19998594 18.40499457 -0.09834636 9.20251959 0 0 Z " fill="#8661B4" transform="translate(560,350)"/>
<path d="M0 0 C0.66 0.33 1.32 0.66 2 1 C1.26394531 1.51949219 0.52789062 2.03898437 -0.23046875 2.57421875 C-1.20628906 3.27160156 -2.18210937 3.96898437 -3.1875 4.6875 C-4.15042969 5.37199219 -5.11335938 6.05648437 -6.10546875 6.76171875 C-9.01212401 9.00937525 -11.43425852 11.3690278 -14 14 C-15.55081135 15.48576435 -17.10453369 16.96849259 -18.66015625 18.44921875 C-34.30310437 33.52464853 -46.09782746 49.11899032 -55 69 C-55.27537598 69.60875977 -55.55075195 70.21751953 -55.83447266 70.84472656 C-66.84910324 95.58282997 -69.11899108 121.4331801 -69.20532227 148.19262695 C-69.21492073 150.09600019 -69.2249319 151.99937139 -69.23532104 153.90274048 C-69.26216319 159.03195917 -69.28328366 164.16118686 -69.30332303 169.29043603 C-69.32531148 174.66492841 -69.35263678 180.03939369 -69.37937927 185.41386414 C-69.4291334 195.57425733 -69.47413575 205.73466571 -69.51740164 215.89508837 C-69.56692246 227.46955274 -69.62178516 239.04398989 -69.67708123 250.61842787 C-69.79063572 274.41225982 -69.8975317 298.20611791 -70 322 C-69.01 322.33 -68.02 322.66 -67 323 C-67.99 323.33 -68.98 323.66 -70 324 C-69.91458938 333.99905248 -69.81934709 343.99796261 -69.71247292 353.99680996 C-69.66310478 358.64262006 -69.6167848 363.28841364 -69.578125 367.93432617 C-69.11658447 422.62655309 -64.08069986 473.00316985 -24 514 C-23.13890625 514.92296875 -22.2778125 515.8459375 -21.390625 516.796875 C-8.17465281 530.63845534 8.13133939 539.92783492 24.41661072 549.65859985 C28.63781281 552.18089261 32.84868368 554.71944719 37.05078125 557.2734375 C37.62625198 557.62312592 38.20172272 557.97281433 38.79463196 558.33309937 C41.67754505 560.08578394 44.55905468 561.84075465 47.43969727 563.59716797 C52.91236379 566.93075377 58.3950644 570.24344938 63.91705322 573.49487305 C66.52882432 575.03420474 69.1344946 576.58369938 71.73974609 578.1340332 C72.98542924 578.87140923 74.23409433 579.60377337 75.48583984 580.33081055 C77.21933959 581.33807648 78.94198044 582.36396078 80.6640625 583.390625 C81.64842285 583.96844727 82.6327832 584.54626953 83.64697266 585.14160156 C86.30456085 587.24053924 87.05917446 588.78947593 88 592 C84.71262589 594.00712206 81.41942172 596.00447034 78.125 598 C77.18785156 598.57234375 76.25070312 599.1446875 75.28515625 599.734375 C73.94130859 600.54648438 73.94130859 600.54648438 72.5703125 601.375 C71.74289551 601.87773438 70.91547852 602.38046875 70.06298828 602.8984375 C68 604 68 604 66 604 C65.67 604.99 65.34 605.98 65 607 C64.34 607 63.68 607 63 607 C62.5875 607.433125 62.175 607.86625 61.75 608.3125 C59.43771842 610.54220009 56.87882934 611.56058533 54 613 C51.68881033 614.52875567 49.41291729 616.09825833 47.1484375 617.6953125 C45.04325422 618.97373289 43.36564592 619.43104718 41 620 C40.34 620.66 39.68 621.32 39 622 C38.01 622.33 37.02 622.66 36 623 C35.195625 623.86625 35.195625 623.86625 34.375 624.75 C31.64191449 627.33923891 28.84998906 628.82494457 25.546875 630.58984375 C22.85061393 632.08271222 20.27614032 633.70285806 17.6875 635.375 C-4.01785714 649.33928571 -4.01785714 649.33928571 -12 652 C-12.66 652.66 -13.32 653.32 -14 654 C-14.99 654.33 -15.98 654.66 -17 655 C-17.60585938 655.61101563 -18.21171875 656.22203125 -18.8359375 656.8515625 C-21.25395278 659.25211919 -23.65801679 660.70753978 -26.625 662.375 C-31.49150478 665.13626436 -36.2832075 667.98619494 -41.0390625 670.93359375 C-43 672 -43 672 -45 672 C-45.495 672.495 -45.99 672.99 -46.5 673.5 C-46.995 673.995 -47.49 674.49 -48 675 C-48.66 675 -49.32 675 -50 675 C-50.66 675.66 -51.32 676.32 -52 677 C-52.99 677.33 -53.98 677.66 -55 678 C-55.90685547 678.91458984 -55.90685547 678.91458984 -56.83203125 679.84765625 C-59.26707216 682.26514731 -61.70453043 683.74910023 -64.6875 685.4375 C-66.27498047 686.33855469 -66.27498047 686.33855469 -67.89453125 687.2578125 C-69.43173828 688.12019531 -69.43173828 688.12019531 -71 689 C-72.27423828 689.73863281 -72.27423828 689.73863281 -73.57421875 690.4921875 C-77.65218873 692.83234685 -81.48261018 694.62514223 -86 696 C-87.25422205 696.55302196 -88.5041586 697.11584849 -89.75 697.6875 C-90.8225 698.120625 -91.895 698.55375 -93 699 C-93.66 698.67 -94.32 698.34 -95 698 C-95.33 698.66 -95.66 699.32 -96 700 C-98.9375 701.1875 -98.9375 701.1875 -102 702 C-102.66 701.67 -103.32 701.34 -104 701 C-104 701.66 -104 702.32 -104 703 C-108.75 704.125 -108.75 704.125 -111 703 C-111 703.66 -111 704.32 -111 705 C-112.32 704.67 -113.64 704.34 -115 704 C-115 704.66 -115 705.32 -115 706 C-116.65 705.67 -118.3 705.34 -120 705 C-120 705.66 -120 706.32 -120 707 C-120.92683594 707.06058594 -121.85367188 707.12117187 -122.80859375 707.18359375 C-124.00613281 707.26738281 -125.20367187 707.35117187 -126.4375 707.4375 C-127.63246094 707.51871094 -128.82742187 707.59992187 -130.05859375 707.68359375 C-132.88570244 707.67656114 -132.88570244 707.67656114 -134 709 C-138.9494168 709.29005639 -143.91757872 709.24595978 -148.875 709.25 C-149.60551575 709.25067474 -150.33603149 709.25134949 -151.08868408 709.25204468 C-169.05626335 709.22559778 -190.92666385 708.10682492 -207 699 C-206.505 700.485 -206.505 700.485 -206 702 C-226.56830772 694.33195993 -246.29887476 679.1656162 -262 664 C-262.91394531 663.14921875 -263.82789063 662.2984375 -264.76953125 661.421875 C-290.64713934 636.69191477 -308.07134604 599.66609781 -310.18760753 563.82244408 C-310.2605267 560.5360922 -310.27637381 557.25493387 -310.26742554 553.9677887 C-310.27422221 552.10006055 -310.27422221 552.10006055 -310.28115618 550.19460052 C-310.29154227 546.77749339 -310.2931406 543.36059861 -310.29076743 539.9434911 C-310.29035607 536.24249943 -310.30142878 532.54153811 -310.31088257 528.84056091 C-310.32742649 521.60321463 -310.33298916 514.36590093 -310.33410732 507.1285373 C-310.33506119 501.23753661 -310.33918831 495.34654656 -310.34550858 489.45554924 C-310.36310495 472.71051065 -310.37235026 455.96549759 -310.37084763 439.22044969 C-310.37076772 438.3195592 -310.3706878 437.41866872 -310.37060547 436.49047852 C-310.37052371 435.58847274 -310.37044195 434.68646697 -310.37035771 433.75712769 C-310.36954583 419.15842238 -310.3886628 404.55982048 -310.4168822 389.96114505 C-310.44570701 374.92919498 -310.45941716 359.89729518 -310.45769465 344.86531681 C-310.45703393 336.44305514 -310.46238535 328.02090182 -310.48405075 319.59866524 C-310.50238967 312.42419638 -310.50650705 305.24988495 -310.4930319 298.07540262 C-310.48656486 294.42497125 -310.48615314 290.77484075 -310.5037384 287.12443924 C-310.59466615 266.99789367 -309.61544476 247.31266754 -302.75 228.1875 C-302.45335449 227.33406006 -302.15670898 226.48062012 -301.85107422 225.60131836 C-296.90253363 211.73947369 -290.45169501 199.03998371 -282 187 C-281.28714844 185.96875 -280.57429688 184.9375 -279.83984375 183.875 C-263.61278931 161.60802993 -242.35109601 146.45281912 -218.87597656 132.69873047 C-213.98357019 129.80897125 -209.13291347 126.85031484 -204.27954102 123.8956604 C-202.48835326 122.80541093 -200.69644288 121.71635905 -198.90429688 120.62768555 C-194.10094902 117.70971443 -189.29859525 114.79011037 -184.49707031 111.86914062 C-170.72596021 103.49167891 -156.93486809 95.14960709 -143.10705566 86.86602783 C-134.01290023 81.41734147 -124.9347291 75.9432441 -115.875 70.4375 C-115.30204193 70.08931213 -114.72908386 69.74112427 -114.13876343 69.38238525 C-110.67380798 67.27636861 -107.20950858 65.16927463 -103.74542236 63.06182861 C-98.43533158 59.83143209 -93.12444679 56.60234369 -87.8125 53.375 C-87.22998474 53.02106171 -86.64746948 52.66712341 -86.04730225 52.30245972 C-77.88074016 47.34173025 -69.69748465 42.40950047 -61.5 37.5 C-53.16866943 32.50931551 -44.84860546 27.50063195 -36.54510498 22.46380615 C-35.35557762 21.74230812 -34.16584213 21.02115311 -32.97589111 20.300354 C-26.83298194 16.57853519 -20.70835804 12.83118542 -14.6328125 9 C-13.65602539 8.38592285 -12.67923828 7.7718457 -11.67285156 7.13916016 C-9.84995498 5.9897491 -8.03134971 4.83349495 -6.21777344 3.66943359 C-5.42145508 3.16750488 -4.62513672 2.66557617 -3.8046875 2.1484375 C-3.11358887 1.70677246 -2.42249023 1.26510742 -1.71044922 0.81005859 C-1.14600098 0.54273926 -0.58155273 0.27541992 0 0 Z " fill="#5E78D5" transform="translate(310,26)"/>
<path d="M0 0 C3.66905197 1.12893907 7.25654024 2.43216649 10.8125 3.875 C11.58207031 4.18179688 12.35164063 4.48859375 13.14453125 4.8046875 C15 6 15 6 15.76171875 8.1328125 C15.84035156 8.74898437 15.91898438 9.36515625 16 10 C12.06342758 8.56786488 8.71068644 6.69667846 5.1875 4.4375 C4.21167969 3.81746094 3.23585938 3.19742188 2.23046875 2.55859375 C1.49441406 2.04425781 0.75835937 1.52992188 0 1 C0 0.67 0 0.34 0 0 Z " fill="#9E8FED" transform="translate(88,718)"/>
<path d="M0 0 C0.66 0.33 1.32 0.66 2 1 C0.27278316 2.27348212 -1.45686238 3.54367057 -3.1875 4.8125 C-4.15042969 5.52019531 -5.11335938 6.22789063 -6.10546875 6.95703125 C-8.6779333 8.77268437 -11.27720484 10.42207301 -14 12 C-13.90234375 10.26953125 -13.90234375 10.26953125 -13 8 C-10.8636445 6.38102039 -8.85836921 5.03064487 -6.5625 3.6875 C-5.96373047 3.31560547 -5.36496094 2.94371094 -4.74804688 2.56054688 C-3.20705344 1.63388005 -1.60622725 0.80833543 0 0 Z " fill="#8B6EDC" transform="translate(310,26)"/>
</svg>
