<?xml version="1.0" encoding="UTF-8"?>
<svg version="1.1" xmlns="http://www.w3.org/2000/svg" width="640" height="639">
<path d="M0 0 C1.31555524 -0.00569124 2.63111047 -0.01138248 3.98653102 -0.01724619 C5.46056532 -0.01853897 6.93459972 -0.01972696 8.40863419 -0.02082157 C9.96368324 -0.02555008 11.51873106 -0.03070065 13.07377744 -0.03623921 C17.3634238 -0.05017814 21.65306166 -0.05773823 25.94272494 -0.0642122 C29.61832234 -0.07057405 33.2939057 -0.08064561 36.96949437 -0.09077286 C49.08474844 -0.1241379 61.20001106 -0.14562971 73.31529605 -0.16397271 C76.47058026 -0.16876657 79.62586412 -0.17375006 82.78114796 -0.17877793 C102.37386208 -0.20975624 121.96657915 -0.23644336 141.55931091 -0.25319672 C146.10025157 -0.25714627 150.64119217 -0.26114924 155.18213272 -0.2652216 C156.8750922 -0.26673414 156.8750922 -0.26673414 158.60225287 -0.26827724 C176.87037218 -0.28527049 195.13835569 -0.32636179 213.40640876 -0.37724458 C232.16248509 -0.42905654 250.91849169 -0.45814404 269.67463899 -0.4653936 C280.20508439 -0.47005222 290.73530772 -0.48476477 301.26568222 -0.5251379 C310.23798327 -0.55949522 319.21002219 -0.57335431 328.18238524 -0.56071376 C332.75739814 -0.55489959 337.33185712 -0.55866262 341.90678596 -0.5888834 C346.10327159 -0.61637674 350.29881323 -0.61564992 354.49532107 -0.59337295 C356.00560866 -0.59016763 357.51596096 -0.59691455 359.02614161 -0.61517017 C377.9211267 -0.82955147 392.77733327 7.85969646 406.12402725 20.8273077 C412.09786889 26.87714994 416.84106713 33.65745252 420.87402725 41.1398077 C421.29295059 41.87080081 421.71187394 42.60179392 422.14349192 43.35493833 C426.3532346 51.45077513 426.58789232 58.99086091 426.52913284 67.8951025 C426.53705441 69.47300348 426.54713899 71.0508948 426.5591833 72.6287697 C426.58575444 76.93998466 426.58138765 81.25068468 426.57162774 85.56194985 C426.56647447 90.22133458 426.59006134 94.88058993 426.60976028 99.53992367 C426.64351108 108.65920227 426.64989979 117.77830115 426.64577214 126.89763381 C426.64267723 134.31382715 426.64824939 141.7299652 426.65992165 149.14614964 C426.66322565 151.28532563 426.66652924 153.42450162 426.66983241 155.56367761 C426.67147919 156.62853658 426.67312597 157.69339555 426.67482265 158.79052297 C426.70458119 178.91549484 426.70139513 199.04036398 426.68846848 219.16534684 C426.67772859 237.55448769 426.70979169 255.94326417 426.76192717 274.33232483 C426.81510441 293.23563032 426.83845799 312.13876227 426.83008689 331.04214364 C426.82593698 341.64632764 426.83357391 352.2501853 426.87269402 362.85430622 C426.90570222 371.88352348 426.91053489 380.91222745 426.87960426 389.94146087 C426.86460821 394.54323994 426.8621623 399.14407023 426.89496231 403.74577808 C426.92472255 407.96882211 426.91671455 412.19014289 426.88015481 416.41311804 C426.8733707 417.930562 426.87972691 419.44814232 426.90148661 420.96544542 C427.14039469 438.87032385 418.245931 453.23685396 406.31152725 466.2023077 C397.18487485 474.88332278 386.4960179 480.82561701 374.72558975 485.08121395 C372.01152942 485.86336852 372.01152942 485.86336852 370.87402725 487.1398077 C367.79947964 487.23513098 364.74743568 487.2653215 361.67261124 487.25333309 C360.22398697 487.25355213 360.22398697 487.25355213 358.74609756 487.2537756 C355.53741627 487.25307604 352.32879222 487.24528167 349.120121 487.23746395 C346.90194607 487.23559992 344.68377073 487.23417595 342.46559525 487.23317623 C336.61462654 487.22934986 330.76368248 487.21951856 324.91272354 487.20847225 C318.94735421 487.19826069 312.98198092 487.19367916 307.01660538 487.18863583 C295.30240181 487.17789639 283.58821658 487.16081855 271.87402725 487.1398077 C271.88957153 488.3195013 271.90511581 489.49919491 271.92113113 490.7146368 C272.06373148 501.89375179 272.16829895 513.07267955 272.23671246 524.25250149 C272.27306875 529.99869178 272.32229401 535.74414127 272.40210342 541.48990536 C272.47879524 547.04671546 272.5201495 552.60281819 272.53816795 558.16011715 C272.5509896 560.26823197 272.57602412 562.37631303 272.61413765 564.48412228 C272.99010359 586.16079448 266.44953954 602.70812911 251.3623085 618.7335577 C241.00495837 628.74945673 225.49409112 639.23787287 210.64621067 639.28240871 C209.33338118 639.28871665 208.02055169 639.2950246 206.66793948 639.30152369 C205.20215577 639.3035074 203.7363719 639.30538434 202.27058792 639.3071661 C200.72022582 639.3126116 199.16986514 639.31847497 197.61950606 639.32472181 C193.34738393 639.34059293 189.07526755 639.3500949 184.80312502 639.35848665 C181.14137984 639.36648511 177.47965022 639.37817701 173.81791536 639.38990146 C160.69731665 639.43183821 147.57669963 639.45902522 134.4560585 639.4835577 C133.42025248 639.4855326 132.38444645 639.4875075 131.31725237 639.48954225 C110.74530815 639.52871587 90.17335787 639.56241663 69.60138798 639.58462429 C65.07678913 639.58959355 60.55219037 639.59463786 56.02759171 639.59976864 C54.34075334 639.60167465 54.34075334 639.60167465 52.61983743 639.60361916 C34.42100799 639.6249586 16.22235966 639.67393134 -1.97637876 639.73401278 C-20.66695422 639.79520803 -39.35743643 639.82982318 -58.04811078 639.8390975 C-68.53951882 639.84500039 -79.03062049 639.86267491 -89.52192879 639.91048336 C-98.46159895 639.9511834 -107.40091273 639.96792437 -116.34067138 639.95383054 C-120.89779119 639.9473846 -125.45415279 639.9520477 -130.01115417 639.98770428 C-134.19362745 640.02016547 -138.37481516 640.01951382 -142.55732385 639.99388725 C-144.0602209 639.99027108 -145.56320632 639.99819786 -147.06595435 640.01966876 C-166.41134661 640.27913144 -182.11591937 630.95288012 -195.93847275 617.8898077 C-201.36816987 612.23090939 -205.49046624 606.07334753 -209.12597275 599.1398077 C-209.53897949 598.41421268 -209.95198624 597.68861766 -210.37750834 596.94103491 C-214.59282414 588.84956785 -214.84001327 581.33180997 -214.78107834 572.42920589 C-214.78899999 570.85614238 -214.79908461 569.28308853 -214.8111288 567.71005118 C-214.83769915 563.41216791 -214.83333331 559.11480121 -214.82357323 554.81686759 C-214.8184198 550.17177862 -214.84200718 545.5268194 -214.86170578 540.88178158 C-214.89545681 531.79024132 -214.90184522 522.69888134 -214.89771763 513.60728686 C-214.89462255 506.21303188 -214.90019549 498.81883235 -214.91186714 491.4245863 C-214.91517116 489.29160456 -214.91847475 487.15862282 -214.9217779 485.02564108 C-214.92342468 483.96385459 -214.92507146 482.9020681 -214.92676815 481.80810626 C-214.95652717 461.74080805 -214.95334063 441.67361287 -214.94041397 421.60630365 C-214.92967574 403.27280335 -214.96173132 384.93966863 -215.01387266 366.60624878 C-215.06706082 347.75830898 -215.09040181 328.91054323 -215.08203238 310.0625273 C-215.07788356 299.49016909 -215.08550573 288.91813822 -215.12463951 278.34584332 C-215.15766192 269.34300458 -215.1624659 260.34068071 -215.13154975 251.3378257 C-215.11656235 246.75009858 -215.11408179 242.16332286 -215.14690781 237.57566738 C-215.38294045 202.21058922 -215.38294045 202.21058922 -206.12597275 189.1398077 C-205.6953625 188.52047698 -205.26475225 187.90114625 -204.8210932 187.26304793 C-193.20812386 170.65564275 -176.93101107 157.61764714 -157.12597275 152.1398077 C-153.92890251 151.86339191 -150.74777054 151.88671155 -147.54052353 151.91275692 C-146.59355103 151.91246487 -145.64657852 151.91217281 -144.67090988 151.91187191 C-141.55427374 151.91326045 -138.43787941 151.92879938 -135.32128525 151.9444952 C-133.15509802 151.94822702 -130.9889091 151.95107319 -128.82271957 151.95307064 C-123.13125545 151.9606938 -117.43989398 151.98033104 -111.74847031 152.0024786 C-105.93681858 152.02296537 -100.12515021 152.03207842 -94.31347275 152.04215145 C-82.9175944 152.06357812 -71.52179212 152.09769822 -60.12597275 152.1398077 C-60.14151703 150.98517025 -60.15706131 149.8305328 -60.17307663 148.64090633 C-60.31569986 137.69725352 -60.42025514 126.75379211 -60.48865795 115.80941677 C-60.52500864 110.18428619 -60.57422302 104.5599128 -60.65404892 98.93521786 C-60.73076161 93.49511558 -60.77209918 88.05573615 -60.79011345 82.61513424 C-60.80293146 80.55167434 -60.82795863 78.48824877 -60.86608315 76.42510128 C-61.10451571 62.97272718 -59.65451508 52.98191716 -53.12597275 41.1398077 C-52.37875206 39.71335934 -52.37875206 39.71335934 -51.616436 38.25809383 C-41.86778414 20.13719734 -26.28838725 9.63582976 -8.12597275 1.1398077 C-5.35314682 -0.24660526 -3.10460832 0.0078031 0 0 Z M62.87402725 101.1398077 C61.83891006 101.75340145 60.80379288 102.3669952 59.7373085 102.9991827 C49.41068829 110.65321667 41.23593324 119.4167035 37.87402725 132.1398077 C37.5346934 135.65908916 37.58021074 139.1242882 37.682621 142.6554327 C37.69643814 143.57211727 37.71025528 144.48880184 37.72449112 145.43326473 C37.76020584 147.66944366 37.81030656 149.90428158 37.87402725 152.1398077 C38.77002262 152.14035247 39.66601799 152.14089724 40.58916473 152.14145851 C62.42452647 152.15644768 84.25968453 152.19898092 106.09493256 152.27189827 C116.65445881 152.30650191 127.21385514 152.33189772 137.77344131 152.33536434 C146.98078964 152.33841067 156.1879063 152.35899097 165.39516521 152.40033227 C170.26713221 152.42160327 175.13877037 152.43429329 180.01078415 152.42596149 C184.60414504 152.41838391 189.19684165 152.43439376 193.79008102 152.46786785 C195.46853046 152.47605666 197.14704651 152.47590399 198.82548904 152.46640491 C208.81598664 152.41549866 216.83957887 153.43122409 225.87402725 158.1398077 C227.05996475 158.67863583 228.24590225 159.21746395 229.46777725 159.7726202 C237.91008394 164.10724541 244.26411339 169.45190075 250.87402725 176.1398077 C251.54176163 176.79722958 252.209496 177.45465145 252.89746475 178.1319952 C258.40605902 183.93969866 262.3284656 191.00759 265.87402725 198.1398077 C266.29151576 198.92808075 266.70900427 199.7163538 267.13914394 200.52851391 C271.48414296 209.59961212 271.58832904 218.03204811 271.53345108 227.84195614 C271.54191916 229.59740996 271.55257005 231.35285438 271.56521988 233.10828304 C271.59320296 237.83895929 271.5909237 242.56917957 271.58292603 247.29991341 C271.57978729 252.25672337 271.60487524 257.21339156 271.62688065 262.17014217 C271.66423816 271.54083347 271.67646372 280.91137967 271.67950505 290.28213811 C271.68420489 300.95701079 271.71715788 311.63173893 271.7524029 322.30654764 C271.824228 344.25095125 271.86083668 366.19529561 271.87402725 388.1398077 C275.87388655 388.22764245 279.8734943 388.28047872 283.87402725 388.3273077 C284.99937881 388.35244442 286.12473038 388.37758114 287.2841835 388.40347958 C296.81143523 388.48705196 303.0563079 386.84022806 310.87402725 381.1398077 C311.74027725 380.51461239 312.60652725 379.88941708 313.49902725 379.24527645 C319.05355275 374.75963168 322.708447 369.49974621 325.87402725 363.1398077 C326.38761827 362.12354211 326.90120928 361.10727652 327.43036366 360.060215 C329.29185248 355.65777355 329.29518657 351.54868026 329.26170731 346.82344723 C329.26709284 345.90572263 329.27247838 344.98799803 329.27802712 344.0424636 C329.29229468 340.97801277 329.28520581 337.91399464 329.27807999 334.8495245 C329.28378424 332.64799306 329.29074871 330.44646458 329.29887772 328.24494076 C329.31681984 322.27169118 329.31563849 316.29858843 329.30993533 310.32532001 C329.30684446 305.33536148 329.31293495 300.34543119 329.31897408 295.35547668 C329.33382463 282.90748352 329.33020298 270.4595556 329.31811077 258.0115656 C329.30818386 247.21636784 329.32111099 236.42134161 329.34504496 225.6261703 C329.36946661 214.52690485 329.37863688 203.42770845 329.37239224 192.32841522 C329.36902412 186.10296767 329.37142806 179.87766176 329.38864326 173.65223408 C329.40413118 167.79576138 329.40013599 161.93961551 329.38133812 156.08315563 C329.37765714 153.93781184 329.38074632 151.79244374 329.39122391 149.64712238 C329.40446923 146.7100807 329.39285458 143.77411536 329.3752327 140.8371191 C329.3848377 139.99555899 329.39444271 139.15399887 329.40433878 138.28693694 C329.27496745 127.74985785 324.64346055 119.8970553 317.87402725 112.1398077 C317.39707413 111.53394833 316.920121 110.92808895 316.42871475 110.3038702 C309.99697216 102.86190625 299.65430841 97.47151589 289.89592743 96.40388393 C284.21065095 96.03492836 278.53113158 96.10209398 272.83740616 96.16812801 C270.66409773 96.16382694 268.49079385 96.1560577 266.3175087 96.14511776 C260.46213781 96.12587336 254.60800289 96.15615085 248.75278139 96.19692993 C242.60492968 96.23228457 236.45711007 96.2250178 230.3091774 96.2234869 C219.99513657 96.22722201 209.6815692 96.26180943 199.3676796 96.31656551 C187.45909142 96.37955581 175.55102011 96.40055381 163.64227736 96.3976233 C150.93086192 96.39491825 138.21964443 96.42268838 125.50828886 96.45940971 C121.85744437 96.46791673 118.206632 96.47077186 114.5557785 96.47236538 C108.81483807 96.47639436 103.07432846 96.50090395 97.33353043 96.54102993 C95.23174428 96.55267333 93.12990854 96.55764289 91.02809143 96.55531979 C76.40772768 96.24451572 76.40772768 96.24451572 62.87402725 101.1398077 Z M-97.12597275 257.1398077 C-98.02187119 257.82816708 -98.91776962 258.51652645 -99.8408165 259.2257452 C-107.94462777 266.00867093 -115.74986446 275.67015974 -117.49907398 286.43616486 C-117.63673235 288.86656858 -117.65966884 291.26924271 -117.63390732 293.70340633 C-117.64014728 294.62354535 -117.64638724 295.54368436 -117.6528163 296.49170637 C-117.66867779 299.55240756 -117.6561688 302.61230477 -117.64355087 305.67301083 C-117.64897502 307.87646096 -117.65609932 310.07990746 -117.66479111 312.28334713 C-117.68299237 318.25232721 -117.67596997 324.22103005 -117.66327477 330.19001484 C-117.65313062 336.44383509 -117.66254438 342.697632 -117.66881943 348.95145321 C-117.67655717 360.1247534 -117.66414543 371.29795206 -117.64378208 382.47122794 C-117.62591255 392.5891697 -117.62901713 402.70692785 -117.64745712 412.82486629 C-117.6688932 424.59214375 -117.6768153 436.35933183 -117.66500807 448.12662935 C-117.65877974 454.34921169 -117.65791947 460.57166773 -117.67115402 466.79424191 C-117.68272911 472.64500707 -117.67465604 478.49542632 -117.651577 484.34615421 C-117.64629883 486.49030197 -117.64778834 488.63447896 -117.65662766 490.778615 C-117.66760181 493.71153617 -117.65379658 496.64335747 -117.63390732 499.57620907 C-117.6428302 500.41931778 -117.65175309 501.2624265 -117.66094637 502.13108397 C-117.52500805 512.50641848 -112.08976934 521.85207812 -105.0908165 529.30777645 C-95.93741722 537.91229465 -85.6170583 542.45021272 -73.09518051 542.41396236 C-72.19605568 542.41919904 -71.29693085 542.42443572 -70.37055981 542.42983109 C-67.36304154 542.44481147 -64.35569371 542.44553582 -61.34814072 542.44620419 C-59.18941079 542.45382711 -57.03068358 542.46225484 -54.87195969 542.47142696 C-49.01012071 542.49336871 -43.1483339 542.50217073 -37.28645849 542.50725341 C-33.62154873 542.51089808 -29.95665261 542.51713881 -26.29174805 542.5242548 C-13.49820227 542.54875047 -0.70469703 542.56180096 12.088871 542.56534481 C24.00061046 542.56897769 35.91209189 542.59885528 47.82375252 542.64074939 C58.06007871 542.67548473 68.29631953 542.69089383 78.53270423 542.69159085 C84.64203049 542.6923827 90.751094 542.7010793 96.86035919 542.72958851 C102.61098052 542.75582361 108.36112233 542.75794361 114.11177635 542.74193287 C116.21597657 542.74012259 118.3202047 542.74677074 120.42434502 542.76275158 C137.1745562 542.88215582 148.80783828 540.53030036 161.87402725 529.1398077 C168.25975608 522.41585171 174.02868123 512.65771428 173.9716835 503.25308895 C173.96684952 501.8463995 173.96684952 501.8463995 173.96191788 500.41129208 C173.95353897 499.43482723 173.94516006 498.45836239 173.93652725 497.4523077 C173.92975967 495.97020809 173.92975967 495.97020809 173.92285538 494.45816708 C173.91107028 492.01865296 173.89461736 489.57926081 173.87402725 487.1398077 C172.97287815 487.13926293 172.07172905 487.13871817 171.1432724 487.13815689 C149.18273324 487.12316799 127.22239661 487.08063584 105.26197052 487.00771713 C94.64191024 486.97311289 84.02197915 486.9477176 73.40185928 486.94425106 C64.14177385 486.94120482 54.88191877 486.92062565 45.62192225 486.87928313 C40.7220101 486.85801137 35.82242495 486.84532251 30.92246628 486.85365391 C26.30284203 486.861231 21.68387834 486.84522358 17.06437492 486.81174755 C15.37625003 486.80355816 13.6880589 486.80371211 11.99994087 486.81321049 C1.99598288 486.86388982 -6.09161054 485.89359284 -15.12597275 481.1398077 C-15.79525677 480.8177778 -16.46454079 480.49574789 -17.15410614 480.1639595 C-36.90012354 470.47319877 -50.25775287 453.76011556 -58.16072273 433.48517323 C-59.2480026 429.71687637 -59.38794753 426.54380205 -59.40444565 422.62274837 C-59.41313425 421.51862474 -59.41313425 421.51862474 -59.42199838 420.39219558 C-59.43894118 417.9370903 -59.44186991 415.48217366 -59.4448204 413.02701473 C-59.45412253 411.26260069 -59.46429163 409.49819104 -59.47526169 407.73378658 C-59.50254361 402.95124586 -59.51770577 398.16873457 -59.53068972 393.38613653 C-59.54632813 388.38528128 -59.57311611 383.38448604 -59.59872055 378.38367367 C-59.64549571 368.91720801 -59.68224596 359.45073105 -59.71539342 349.98420894 C-59.7536237 339.2055195 -59.80303151 328.42689037 -59.85337758 317.64825177 C-59.95667868 295.47881495 -60.04594504 273.30933995 -60.12597275 251.1398077 C-64.14801642 251.06859996 -68.16989618 251.02556331 -72.192379 250.98746395 C-73.32663315 250.96704037 -74.4608873 250.94661678 -75.62951279 250.9255743 C-84.31488229 250.86386372 -90.12434644 251.67786486 -97.12597275 257.1398077 Z M37.87402725 251.1398077 C37.75785921 264.3619964 37.6691727 277.58406244 37.61496639 290.80665874 C37.58894187 296.94735223 37.55367406 303.08769495 37.49682999 309.22818661 C37.44225598 315.16100387 37.41255305 321.09348505 37.39964104 327.02653408 C37.39044668 329.28303214 37.37249273 331.5395131 37.34537697 333.79586697 C37.14645136 351.04453729 38.59201427 363.16954638 50.7998085 376.1944952 C63.99639036 388.98094563 77.32859277 388.97649789 94.6748085 388.7257452 C96.96550249 388.71453564 99.256211 388.70600379 101.54692459 388.70001888 C107.53621465 388.67725945 113.52461269 388.61844777 119.51355362 388.55179501 C125.64075026 388.49009337 131.76809295 388.46294456 137.89551163 388.43277645 C149.88873915 388.36869166 161.88130863 388.26646961 173.87402725 388.1398077 C174.06023166 374.98685222 174.20196052 361.83421555 174.28852463 348.68020535 C174.33009317 342.57072202 174.38638428 336.46214721 174.47754288 330.35318661 C174.56512516 324.44623171 174.61243887 318.5401449 174.6330452 312.63259029 C174.64771019 310.39047759 174.6763451 308.14840688 174.71986771 305.90666866 C175.02866516 289.32633932 172.76014001 277.93001105 162.56152725 264.5773077 C155.87257116 257.65875357 145.93744844 251.13667591 136.12196732 250.77904415 C134.28940995 250.77041968 132.4567279 250.77815965 130.62427139 250.79923153 C129.61863144 250.79879345 128.61299149 250.79835537 127.57687759 250.79790401 C124.27077836 250.79998502 120.96519357 250.82328402 117.6591835 250.84683895 C115.35990552 250.85243734 113.06062394 250.85670629 110.76134109 250.85970211 C104.7229555 250.87113168 98.68478792 250.90058284 92.64648819 250.93381405 C86.479526 250.96455552 80.31252843 250.97821617 74.14551163 250.99332333 C62.05492128 251.02545416 49.96449243 251.07662785 37.87402725 251.1398077 Z " fill="#F28B00" transform="translate(214.12597274780273,-0.13980770111083984)"/>
<path d="M0 0 C1.31555524 -0.00569124 2.63111047 -0.01138248 3.98653102 -0.01724619 C5.46056532 -0.01853897 6.93459972 -0.01972696 8.40863419 -0.02082157 C9.96368324 -0.02555008 11.51873106 -0.03070065 13.07377744 -0.03623921 C17.3634238 -0.05017814 21.65306166 -0.05773823 25.94272494 -0.0642122 C29.61832234 -0.07057405 33.2939057 -0.08064561 36.96949437 -0.09077286 C49.08474844 -0.1241379 61.20001106 -0.14562971 73.31529605 -0.16397271 C76.47058026 -0.16876657 79.62586412 -0.17375006 82.78114796 -0.17877793 C102.37386208 -0.20975624 121.96657915 -0.23644336 141.55931091 -0.25319672 C146.10025157 -0.25714627 150.64119217 -0.26114924 155.18213272 -0.2652216 C156.8750922 -0.26673414 156.8750922 -0.26673414 158.60225287 -0.26827724 C176.87037218 -0.28527049 195.13835569 -0.32636179 213.40640876 -0.37724458 C232.16248509 -0.42905654 250.91849169 -0.45814404 269.67463899 -0.4653936 C280.20508439 -0.47005222 290.73530772 -0.48476477 301.26568222 -0.5251379 C310.23798327 -0.55949522 319.21002219 -0.57335431 328.18238524 -0.56071376 C332.75739814 -0.55489959 337.33185712 -0.55866262 341.90678596 -0.5888834 C346.10327159 -0.61637674 350.29881323 -0.61564992 354.49532107 -0.59337295 C356.00560866 -0.59016763 357.51596096 -0.59691455 359.02614161 -0.61517017 C377.9211267 -0.82955147 392.77733327 7.85969646 406.12402725 20.8273077 C412.09786889 26.87714994 416.84106713 33.65745252 420.87402725 41.1398077 C421.29295059 41.87080081 421.71187394 42.60179392 422.14349192 43.35493833 C426.3532346 51.45077513 426.58789232 58.99086091 426.52913284 67.8951025 C426.53705441 69.47300348 426.54713899 71.0508948 426.5591833 72.6287697 C426.58575444 76.93998466 426.58138765 81.25068468 426.57162774 85.56194985 C426.56647447 90.22133458 426.59006134 94.88058993 426.60976028 99.53992367 C426.64351108 108.65920227 426.64989979 117.77830115 426.64577214 126.89763381 C426.64267723 134.31382715 426.64824939 141.7299652 426.65992165 149.14614964 C426.66322565 151.28532563 426.66652924 153.42450162 426.66983241 155.56367761 C426.67230258 157.16096606 426.67230258 157.16096606 426.67482265 158.79052297 C426.70458119 178.91549484 426.70139513 199.04036398 426.68846848 219.16534684 C426.67772859 237.55448769 426.70979169 255.94326417 426.76192717 274.33232483 C426.81510441 293.23563032 426.83845799 312.13876227 426.83008689 331.04214364 C426.82593698 341.64632764 426.83357391 352.2501853 426.87269402 362.85430622 C426.90570222 371.88352348 426.91053489 380.91222745 426.87960426 389.94146087 C426.86460821 394.54323994 426.8621623 399.14407023 426.89496231 403.74577808 C426.92472255 407.96882211 426.91671455 412.19014289 426.88015481 416.41311804 C426.8733707 417.930562 426.87972691 419.44814232 426.90148661 420.96544542 C427.14039469 438.87032385 418.245931 453.23685396 406.31152725 466.2023077 C397.18487485 474.88332278 386.4960179 480.82561701 374.72558975 485.08121395 C372.01152942 485.86336852 372.01152942 485.86336852 370.87402725 487.1398077 C367.79947964 487.23513098 364.74743568 487.2653215 361.67261124 487.25333309 C360.22398697 487.25355213 360.22398697 487.25355213 358.74609756 487.2537756 C355.53741627 487.25307604 352.32879222 487.24528167 349.120121 487.23746395 C346.90194607 487.23559992 344.68377073 487.23417595 342.46559525 487.23317623 C336.61462654 487.22934986 330.76368248 487.21951856 324.91272354 487.20847225 C318.94735421 487.19826069 312.98198092 487.19367916 307.01660538 487.18863583 C295.30240181 487.17789639 283.58821658 487.16081855 271.87402725 487.1398077 C271.87402725 486.1498077 271.87402725 485.1598077 271.87402725 484.1398077 C241.51402725 484.1398077 211.15402725 484.1398077 179.87402725 484.1398077 C179.87402725 485.1298077 179.87402725 486.1198077 179.87402725 487.1398077 C156.22110139 487.25676816 132.56821906 487.34485818 108.91506195 487.39886856 C97.93172139 487.42461652 86.94856084 487.45970187 75.96533585 487.51700497 C66.38892929 487.56694428 56.81265315 487.59912347 47.23611999 487.61025017 C42.16846297 487.6167511 37.10117893 487.63195891 32.03364182 487.66845798 C27.25655118 487.70258393 22.47998454 487.71282734 17.70278358 487.70534611 C15.9565578 487.70671327 14.21031313 487.7165464 12.46419334 487.73583508 C2.15283151 487.84408174 -5.80414954 487.09787027 -15.12597275 482.1398077 C-15.79454678 481.81765946 -16.4631208 481.49551123 -17.15195465 481.16360092 C-26.49762018 476.58442437 -33.85725141 470.49544947 -41.12597275 463.1398077 C-41.79241806 462.48367489 -42.45886337 461.82754208 -43.145504 461.15152645 C-48.62599524 455.37412372 -52.70910828 448.30207135 -56.12597275 441.1398077 C-56.47050869 440.42981215 -56.81504463 439.71981661 -57.17002106 438.98830605 C-60.90297115 430.18312049 -60.66314098 421.55161854 -60.58007431 412.18399715 C-60.57894421 410.38929425 -60.57958287 408.5945895 -60.58184433 406.79988766 C-60.58298605 401.95755369 -60.55956499 397.11562081 -60.5315485 392.27337956 C-60.50644402 387.20187365 -60.50418574 382.13035726 -60.49944687 377.05879879 C-60.48704359 367.46843307 -60.45425796 357.87825101 -60.41404891 348.28796595 C-60.36086207 335.31920596 -60.33936433 322.3503953 -60.31604004 309.38155365 C-60.27849456 288.96750092 -60.19878608 268.55383566 -60.12597275 248.1398077 C-27.78597275 248.1398077 4.55402725 248.1398077 37.87402725 248.1398077 C37.88820694 255.65246395 37.90238663 263.1651202 37.916996 270.9054327 C37.93706681 275.68152078 37.95859739 280.45751382 37.98535538 285.2335577 C38.02763416 292.80455876 38.06467856 300.37531877 38.06958389 307.94644833 C38.07388073 314.05453152 38.10245925 320.16207392 38.14745903 326.26998806 C38.16038963 328.59338633 38.16475757 330.91684946 38.16018105 333.2402792 C38.13410312 350.50880099 39.3970683 362.86986791 51.57715225 375.97183895 C63.32029155 387.29558042 75.85230791 388.02355837 91.229496 387.9444952 C93.2531273 387.95591352 95.27674538 387.96992054 97.30034256 387.98630428 C102.75322996 388.02296764 108.20555228 388.02299794 113.658535 388.01576138 C119.3836074 388.01415695 125.10850585 388.04560436 130.83349991 388.07291317 C141.57811813 388.11877668 152.3225308 388.13306775 163.06723785 388.13439655 C171.34843219 388.13616496 179.62949384 388.15148845 187.91064835 388.17691708 C201.19009885 388.21762056 214.46952641 388.24676 227.74902725 388.2648077 C228.78273327 388.2663863 229.81643929 388.2679649 230.88146973 388.26959133 C258.75796785 388.34525904 258.75796785 388.34525904 286.6279335 387.8273077 C287.58444809 387.80637051 288.54096268 387.78543331 289.52646255 387.76386166 C297.82082783 387.43581102 304.04848802 384.98467837 310.87402725 380.1398077 C311.66680069 379.58937801 312.45957413 379.03894833 313.276371 378.47183895 C318.56532745 374.32537589 321.87135122 369.09201505 324.87402725 363.1398077 C325.38834336 362.12281701 325.90265947 361.10582632 326.43256092 360.05801773 C328.29223855 355.65678788 328.29517395 351.54689892 328.26170731 346.82344723 C328.26709284 345.90572263 328.27247838 344.98799803 328.27802712 344.0424636 C328.29229468 340.97801277 328.28520581 337.91399464 328.27807999 334.8495245 C328.28378424 332.64799306 328.29074871 330.44646458 328.29887772 328.24494076 C328.31681984 322.27169118 328.31563849 316.29858843 328.30993533 310.32532001 C328.30684446 305.33536148 328.31293495 300.34543119 328.31897408 295.35547668 C328.33382463 282.90748352 328.33020298 270.4595556 328.31811077 258.0115656 C328.30818386 247.21636784 328.32111099 236.42134161 328.34504496 225.6261703 C328.36946661 214.52690485 328.37863688 203.42770845 328.37239224 192.32841522 C328.36902412 186.10296767 328.37142806 179.87766176 328.38864326 173.65223408 C328.40413118 167.79576138 328.40013599 161.93961551 328.38133812 156.08315563 C328.37765714 153.93781184 328.38074632 151.79244374 328.39122391 149.64712238 C328.40446923 146.7100807 328.39285458 143.77411536 328.3752327 140.8371191 C328.3848377 139.99555899 328.39444271 139.15399887 328.40433878 138.28693694 C328.26149011 126.65215082 322.59588415 118.24237523 314.8779335 110.01090145 C302.32881946 97.87625357 289.67908698 97.26525395 273.17798233 97.39517879 C271.00511861 97.39031522 268.83225938 97.3828691 266.65941238 97.37305355 C260.79168733 97.35433695 254.92463542 97.37299816 249.05696321 97.39971781 C242.90106956 97.4224489 236.74520658 97.41412415 230.58928299 97.41022396 C220.25741021 97.40846162 209.92580079 97.43054771 199.59399796 97.46744442 C187.66333133 97.50980802 175.73304979 97.5167902 163.80232316 97.5043205 C152.30183207 97.49291781 140.80147602 97.50424046 129.30100441 97.52666759 C124.41646886 97.53593577 119.53201622 97.53771767 114.64747429 97.5334959 C108.89429339 97.52971891 103.14150254 97.5460234 97.38841057 97.57761669 C95.28177886 97.58607509 93.17510747 97.58782189 91.06846619 97.58223629 C76.42840914 97.24743889 76.42840914 97.24743889 62.87402725 102.1398077 C61.83891006 102.74179989 60.80379288 103.34379208 59.7373085 103.96402645 C53.67831029 108.38997155 48.87101368 112.76057749 44.87402725 119.1398077 C44.30555069 120.0266827 43.73707413 120.9135577 43.151371 121.8273077 C36.99818309 132.99905313 38.52134933 139.89872201 37.87402725 154.1398077 C5.53402725 154.1398077 -26.80597275 154.1398077 -60.12597275 154.1398077 C-60.27034775 138.4648077 -60.41472275 122.7898077 -60.56347275 106.6398077 C-60.62720078 101.72138973 -60.6909288 96.80297176 -60.75658798 91.73551083 C-60.78820419 85.65054989 -60.78820419 85.65054989 -60.79407883 82.78665829 C-60.80470936 80.81974806 -60.82907846 78.85287854 -60.86500168 76.88626766 C-61.10087291 63.27285674 -59.76116217 53.11789336 -53.12597275 41.1398077 C-52.62782562 40.18940609 -52.1296785 39.23900448 -51.616436 38.25980282 C-41.87388528 20.13682489 -26.28602123 9.63472298 -8.12597275 1.1398077 C-5.35314682 -0.24660526 -3.10460832 0.0078031 0 0 Z " fill="#0097D2" transform="translate(214.12597274780273,-0.13980770111083984)"/>
<path d="M0 0 C30.36 0 60.72 0 92 0 C92 14.19 92 28.38 92 43 C88.48640201 42.2972804 86.24108836 41.81349702 83.14819336 40.39624023 C82.4226123 40.06699554 81.69703125 39.73775085 80.94946289 39.39852905 C80.17078857 39.0388504 79.39211426 38.67917175 78.58984375 38.30859375 C77.76162109 37.93135162 76.93339844 37.5541095 76.08007812 37.16543579 C74.2943692 36.35149063 72.50972571 35.5352048 70.7260437 34.71682739 C65.99917675 32.54823654 61.26463047 30.39651402 56.53125 28.2421875 C55.56920151 27.80373001 54.60715302 27.36527252 53.61595154 26.91352844 C44.08207186 22.57199971 34.51478512 18.30724408 24.9375 14.0625 C24.18886688 13.73047577 23.44023376 13.39845154 22.66891479 13.05636597 C19.26003859 11.54452147 15.85076523 10.03357886 12.44091797 8.52392578 C8.2922003 6.68652719 4.1457451 4.84409398 0 3 C0 2.01 0 1.02 0 0 Z " fill="#C66D03" transform="translate(394,484)"/>
<path d="M0 0 C0.88786697 -0.00014603 1.77573395 -0.00029205 2.69050598 -0.0004425 C5.63402728 0.00025584 8.57748581 0.00804458 11.52099609 0.01586914 C13.55837978 0.0177336 15.5957639 0.01915737 17.63314819 0.02015686 C23.00241325 0.02397984 28.37165137 0.03380828 33.74090576 0.04486084 C39.217078 0.05507966 44.69325458 0.05965549 50.16943359 0.06469727 C60.91944545 0.07543072 71.66943728 0.09250454 82.41943359 0.11352539 C81.41943359 3.11352539 81.41943359 3.11352539 77.90161133 4.9284668 C76.30687857 5.61852964 74.70686087 6.29644949 73.10302734 6.96508789 C72.23541779 7.33685654 71.36780823 7.70862518 70.47390747 8.09165955 C67.60586579 9.31761653 64.73155118 10.52807749 61.85693359 11.73852539 C59.87402385 12.58254173 57.89152431 13.42752242 55.90942383 14.2734375 C51.80695021 16.02203789 47.70180128 17.76412145 43.59423828 19.50073242 C37.64811419 22.01483641 31.70880447 24.54469974 25.77099609 27.07836914 C18.88673754 30.01386344 12.00106171 32.94595827 5.11083984 35.86743164 C4.40130157 36.1686644 3.69176331 36.46989716 2.96072388 36.78025818 C1.11529187 37.56195577 -0.73253183 38.33800064 -2.58056641 39.11352539 C-3.50232666 39.51047607 -4.42408691 39.90742676 -5.3737793 40.31640625 C-7.58056641 41.11352539 -7.58056641 41.11352539 -10.58056641 41.11352539 C-10.58056641 27.91352539 -10.58056641 14.71352539 -10.58056641 1.11352539 C-7.28508838 -0.53421362 -3.62149477 -0.01543186 0 0 Z " fill="#0077AA" transform="translate(164.58056640625,249.886474609375)"/>
<path d="M0 0 C31.68 0.33 63.36 0.66 96 1 C96 1.33 96 1.66 96 2 C64.32 2.33 32.64 2.66 0 3 C0 2.01 0 1.02 0 0 Z " fill="#1195C3" transform="translate(154,248)"/>
</svg>
