<?xml version="1.0" encoding="UTF-8"?>
<svg version="1.1" xmlns="http://www.w3.org/2000/svg" width="1200" height="1477">
<path d="M0 0 C1.68825394 0.00090637 1.68825394 0.00090637 3.41061401 0.00183105 C21.11050565 0.02756289 38.62652707 0.42227462 56.25 2.1875 C56.89767334 2.25066406 57.54534668 2.31382813 58.21264648 2.37890625 C132.69581405 9.65512614 204.3728984 30.63148906 271.25 64.1875 C272.36455566 64.74614746 273.47911133 65.30479492 274.62744141 65.88037109 C312.72911607 85.08632257 348.47721532 108.87100737 381.25 136.1875 C381.82975586 136.66815918 382.40951172 137.14881836 383.00683594 137.64404297 C389.94862753 143.40632671 396.69467574 149.34003721 403.30078125 155.484375 C405.41828111 157.44945841 407.59110314 159.33264836 409.7890625 161.20703125 C415.29886218 166.01058012 420.4206902 171.20883111 425.57739258 176.38452148 C427.308947 178.121436 429.04578359 179.85293889 430.78320312 181.58398438 C436.48688161 187.28424106 442.02875479 193.03630443 447.25 199.1875 C448.70445517 200.79518373 450.16220895 202.39989715 451.625 204 C456.35513275 209.24948855 460.83548951 214.67118606 465.25 220.1875 C465.65943848 220.69732422 466.06887695 221.20714844 466.49072266 221.73242188 C486.83983886 247.12414076 505.14228426 273.9160115 521.25 302.1875 C521.67651855 302.92629395 522.10303711 303.66508789 522.54248047 304.42626953 C562.3103915 373.34788047 586.7178757 450.75929304 599.4375 597.9375 C599.43722809 598.86304688 599.43695618 599.78859375 599.43667603 600.7421875 C599.41364035 617.96181429 598.75040447 635.02794464 597.25 652.1875 C597.15348145 653.30833984 597.05696289 654.42917969 596.95751953 655.58398438 C593.21567624 697.19279021 584.6605006 738.33406145 572.25 778.1875 C571.89180176 779.34056641 571.53360352 780.49363281 571.16455078 781.68164062 C545.34377632 863.88269653 500.49106268 940.13176759 441.9453125 1003.2734375 C440.17799818 1005.18418602 438.42230485 1007.10576362 436.6796875 1009.0390625 C431.28758867 1015.01061076 425.74113253 1020.79964556 420.0625 1026.5 C419.40934814 1027.15774414 418.75619629 1027.81548828 418.08325195 1028.49316406 C414.22143455 1032.34282362 410.24577257 1036.00128768 406.1184082 1039.56420898 C403.50100077 1041.83823774 400.97466465 1044.19921097 398.4375 1046.5625 C393.84575319 1050.79936417 389.14045886 1054.84155883 384.26953125 1058.7578125 C382.0433284 1060.54914261 379.83511884 1062.35488303 377.63671875 1064.1796875 C367.81632899 1072.30162875 357.67284973 1079.85820085 347.25 1087.1875 C346.59064453 1087.65365723 345.93128906 1088.11981445 345.25195312 1088.60009766 C267.69322062 1143.30459452 177.28734121 1179.1477937 40.25 1196.1875 C39.43644043 1196.24534668 38.62288086 1196.30319336 37.78466797 1196.36279297 C-42.10384815 1201.88081509 -123.12374297 1189.75949497 -380.75 1060.1875 C-381.25450684 1059.76791016 -381.75901367 1059.34832031 -382.27880859 1058.91601562 C-389.8071868 1052.65189286 -397.11754315 1046.19670967 -404.29248047 1039.53173828 C-405.69599244 1038.23730999 -407.11529883 1036.96007146 -408.53515625 1035.68359375 C-414.88647937 1029.9612875 -421.00716539 1024.03499815 -427.0625 1018 C-428.19196045 1016.87742798 -428.19196045 1016.87742798 -429.34423828 1015.73217773 C-433.44414407 1011.6209312 -437.37271248 1007.41981559 -441.16186523 1003.02075195 C-443.42135871 1000.4125219 -445.77293458 997.90011528 -448.125 995.375 C-453.24000206 989.83090173 -458.03724722 984.07844098 -462.75 978.1875 C-463.66076019 977.06844186 -464.57225476 975.94998112 -465.484375 974.83203125 C-491.07982196 943.33721402 -512.89612671 909.09995274 -531.75 873.1875 C-532.4294165 871.89658447 -532.4294165 871.89658447 -533.12255859 870.57958984 C-568.33388907 803.18300153 -588.51229989 728.70329958 -595.75 653.1875 C-595.86859375 651.95128906 -595.9871875 650.71507812 -596.109375 649.44140625 C-604.47630115 556.90718729 -590.15350997 461.36198621 -549.75 362.1875 C-549.37939453 361.31496582 -549.00878906 360.44243164 -548.62695312 359.54345703 C-527.04751596 309.22157585 -498.09229579 262.06965449 -463.17382812 219.91552734 C-461.88936123 218.3566356 -460.62321063 216.78269561 -459.359375 215.20703125 C-454.8425728 209.57727599 -450.10873302 204.21461457 -445.17358398 198.95239258 C-442.63290972 196.24271559 -440.16055465 193.50152149 -437.75390625 190.671875 C-432.6835064 184.84883767 -427.16463903 179.45325067 -421.69848633 174.00561523 C-419.81671726 172.12920525 -417.94035262 170.24751031 -416.06445312 168.36523438 C-410.12899808 162.4261403 -404.17739279 156.5988412 -397.75 151.1875 C-396.581387 150.16628549 -395.41471445 149.14284615 -394.25 148.1171875 C-354.22801353 113.11781277 -309.69434097 83.40995863 -261.82861328 60.20019531 C-259.59652438 59.11272705 -257.37486072 58.00532548 -255.15234375 56.8984375 C-181.03047534 20.36652535 -95.49695806 0.64725006 0 0 Z " fill="#1A1918" transform="translate(600.75,0.8125)"/>
<path d="M0 0 C8.90524241 4.54041937 14.87542658 10.26696786 19.20703125 19.296875 C19.54839615 19.99494766 19.88976105 20.69302032 20.24147034 21.4122467 C24.05867236 29.31647503 27.45150527 37.39410887 30.8125 45.5 C31.50290463 47.15341937 32.19375286 48.80665356 32.88500977 50.4597168 C34.69331904 54.78881246 36.49427619 59.12092208 38.29248047 63.45422363 C39.35804894 66.02165727 40.42491252 68.58854878 41.4921875 71.15527344 C45.7538367 81.40601341 50.00294862 91.66191443 54.24707031 101.91992188 C57.72379425 110.32303131 61.20517339 118.72421109 64.6875 127.125 C65.03320038 127.95907379 65.37890076 128.79314758 65.7350769 129.65249634 C72.02248491 144.82046528 78.33626323 159.97738882 84.65493774 175.13235474 C90.75584443 189.76564349 96.83938048 204.40599496 102.90673828 219.05322266 C108.71102126 233.06403314 114.538884 247.06492205 120.375 261.0625 C126.61774557 276.0360538 132.85119597 291.01337403 139.0625 306 C139.40880463 306.83554413 139.75510925 307.67108826 140.11190796 308.5319519 C142.87749654 315.20510619 145.64196477 321.87872446 148.40637207 328.55236816 C150.83287811 334.41013454 153.25985128 340.26770709 155.6875 346.125 C156.03356293 346.95998016 156.37962585 347.79496033 156.73617554 348.65524292 C163.0232285 363.82229157 169.33664272 378.978299 175.65493774 394.13235474 C181.75584443 408.76564349 187.83938048 423.40599496 193.90673828 438.05322266 C199.71102126 452.06403314 205.538884 466.06492205 211.375 480.0625 C219.34451246 499.17779505 227.28937402 518.30315259 235.21464539 537.43682861 C237.80618174 543.69244821 240.40252491 549.94606308 243 556.19921875 C244.15043614 558.96986793 245.30077889 561.74055587 246.45108032 564.51126099 C247.17745061 566.2603217 247.90414185 568.00924918 248.63119507 569.75802612 C252.05328363 577.98957997 255.46519392 586.22512578 258.80078125 594.4921875 C259.27555908 595.66765137 259.75033691 596.84311523 260.23950195 598.05419922 C263.87187251 607.67752109 264.09598209 620.01123403 260.3125 629.625 C253.96995215 642.50607331 244.71042106 650.05922543 231.375 655.0625 C219.51833118 658.07401812 208.38342136 655.9376153 197.8125 650.25 C190.07706304 645.55313006 183.33697617 639.6072186 176.43847656 633.78320312 C173.46978601 631.3076552 170.42979425 628.93034153 167.375 626.5625 C161.29600223 621.83252801 155.34772907 616.95365545 149.41235352 612.04516602 C144.97787925 608.37865357 140.51681665 604.75147741 136.01171875 601.171875 C132.53092895 598.38724316 129.07981217 595.56675028 125.625 592.75 C120.60148737 588.65672398 115.54814684 584.60888425 110.4375 580.625 C103.75610752 575.41083748 97.2225259 570.02544914 90.69140625 564.625 C81.55185845 557.07035683 72.33391046 549.6108205 63.0625 542.21875 C58.7770044 538.78038725 54.5196273 535.30748273 50.2578125 531.83984375 C46.64180281 528.89927738 43.01926075 525.96805924 39.375 523.0625 C34.30797685 519.02257614 29.28445383 514.92978624 24.2578125 510.83984375 C20.64180281 507.89927738 17.01926075 504.96805924 13.375 502.0625 C8.30797685 498.02257614 3.28445383 493.92978624 -1.7421875 489.83984375 C-5.35819719 486.89927738 -8.98073925 483.96805924 -12.625 481.0625 C-17.69202315 477.02257614 -22.71554617 472.92978624 -27.7421875 468.83984375 C-31.35819719 465.89927738 -34.98073925 462.96805924 -38.625 460.0625 C-43.69202315 456.02257614 -48.71554617 451.92978624 -53.7421875 447.83984375 C-58.12820198 444.27310367 -62.5321901 440.73042735 -66.953125 437.20703125 C-69.74789236 434.96386271 -72.52675056 432.7019877 -75.30444336 430.43774414 C-81.56972927 425.33080846 -87.87007368 420.27965204 -94.24707031 415.31298828 C-99.84573074 410.93177391 -105.31560103 406.39686228 -110.76538086 401.83227539 C-111.44093018 401.27016357 -112.11647949 400.70805176 -112.8125 400.12890625 C-113.40417969 399.63334229 -113.99585938 399.13777832 -114.60546875 398.62719727 C-117.18678884 396.62723589 -119.89406788 394.85069079 -122.625 393.0625 C-122.8860704 393.74661453 -123.14714081 394.43072906 -123.41612244 395.13557434 C-132.48968583 418.85793006 -141.95946602 442.41696363 -151.45574951 465.97262573 C-156.18885715 477.71366329 -160.91383231 489.45797273 -165.63671875 501.203125 C-166.12381065 502.41437986 -166.61090256 503.62563473 -167.11275482 504.87359428 C-174.71937373 523.79302882 -182.28936476 542.72685805 -189.83203125 561.671875 C-190.07961504 562.29372563 -190.32719883 562.91557625 -190.58228517 563.55627084 C-195.62981786 576.23476709 -200.67202533 588.91537942 -205.71140957 601.59711647 C-207.47414967 606.03282883 -209.23749647 610.46829991 -211.00084496 614.90377045 C-212.20162614 617.92527975 -213.40120502 620.94726424 -214.60066223 623.96929932 C-215.33122171 625.80759502 -216.06182522 627.64587322 -216.79248047 629.48413086 C-217.10912942 630.28301066 -217.42577837 631.08189047 -217.75202274 631.90497875 C-220.30528342 638.32348652 -222.96699794 644.68329505 -225.625 651.0625 C-254.995 651.0625 -284.365 651.0625 -314.625 651.0625 C-313.69131328 646.39406641 -312.24135964 642.39432904 -310.40625 638.046875 C-310.07694992 637.25633224 -309.74764984 636.46578949 -309.40837097 635.65129089 C-308.31812982 633.03657812 -307.22152008 630.42458508 -306.125 627.8125 C-305.35213805 625.9618713 -304.57976672 624.11103765 -303.80786133 622.26000977 C-302.20532876 618.41815744 -300.60068915 614.57719526 -298.99462891 610.73681641 C-295.75901247 602.99501742 -292.55148257 595.24162591 -289.34277344 587.48864746 C-282.36994901 570.64564136 -275.36020861 553.81805757 -268.34506226 536.99264526 C-262.58997275 523.18881399 -256.84844302 509.37948194 -251.125 495.5625 C-244.55271814 479.69633353 -237.95319795 463.84164346 -231.34423828 447.99072266 C-225.58942665 434.18753099 -219.84817616 420.37883772 -214.125 406.5625 C-207.55271814 390.69633353 -200.95319795 374.84164346 -194.34423828 358.99072266 C-188.58942655 345.18753073 -182.84826881 331.37879949 -177.125 317.5625 C-170.9339765 302.61777073 -164.72324377 287.68134123 -158.5 272.75 C-157.86268448 271.22087479 -157.86268448 271.22087479 -157.2124939 269.66085815 C-153.66057419 261.13911291 -150.10763146 252.61779433 -146.55419922 244.09667969 C-144.68164452 239.60625384 -142.80938061 235.11570689 -140.9375 230.625 C-140.49129303 229.55455948 -140.49129303 229.55455948 -140.03607178 228.4624939 C-134.68803519 215.63072476 -129.36267526 202.78959798 -124.04116821 189.94680786 C-119.08237394 177.97981955 -114.11114636 166.01811682 -109.125 154.0625 C-104.23332035 142.33334896 -99.35616018 130.59828912 -94.49200439 118.85769653 C-85.68238529 97.59442621 -76.85047863 76.34049233 -67.97895813 55.10296631 C-65.95259924 50.25044164 -63.9325577 45.395454 -61.9256897 40.53483582 C-60.70581935 37.58349534 -59.47710269 34.63583922 -58.25 31.6875 C-57.85248535 30.71562744 -57.4549707 29.74375488 -57.04541016 28.74243164 C-51.05774569 14.43483375 -44.08319261 5.27721157 -29.625 -0.9375 C-20.93163136 -3.83528955 -8.47948249 -3.22552863 0 0 Z " fill="#FEFEFE" transform="translate(627.625,240.9375)"/>
<path d="M0 0 C2.14224022 2.67953306 3.63415969 5.15786843 4.89086914 8.34570312 C5.2336792 9.20617752 5.57648926 10.06665192 5.9296875 10.95320129 C6.47689453 12.3530854 6.47689453 12.3530854 7.03515625 13.78125 C7.42566162 14.76522263 7.81616699 15.74919525 8.21850586 16.76298523 C9.06263397 18.89137944 9.90409686 21.02083219 10.74319458 23.1512146 C12.99318682 28.86235702 15.26342609 34.56545162 17.53125 40.26953125 C18.22300072 42.01161613 18.22300072 42.01161613 18.9287262 43.78889465 C23.23369418 54.61860414 27.63345363 65.40806265 32.0625 76.1875 C33.54236329 79.7926832 35.02146295 83.39817894 36.5 87.00390625 C36.86710083 87.89914001 37.23420166 88.79437378 37.61242676 89.71673584 C41.96402231 100.33868648 46.26455255 110.98125379 50.5625 121.625 C51.15594711 123.09454636 51.15594711 123.09454636 51.76138306 124.59378052 C53.34548506 128.51679466 54.92937315 132.43989503 56.51289368 136.36314392 C60.58558726 146.45299687 64.66698448 156.5393204 68.75 166.625 C69.0997287 167.48896393 69.4494574 168.35292786 69.80978394 169.24307251 C77.19950418 187.49822734 84.59887168 205.749468 92 224 C94.45849564 230.06243419 96.91688214 236.12491262 99.375 242.1875 C99.68133362 242.94302155 99.98766724 243.69854309 100.30328369 244.47695923 C105.73434703 257.8724316 111.15810875 271.27085363 116.58044434 284.66986084 C121.28397456 296.29242934 125.9900064 307.91397722 130.70111084 319.53347778 C131.61628601 321.79100459 132.53108426 324.04868381 133.44580078 326.30639648 C136.34491844 333.46068955 139.24835876 340.61317007 142.16262817 347.76130676 C143.56394247 351.19915342 144.96329983 354.63779504 146.36248779 358.07650757 C147.03179251 359.71983241 147.70206394 361.3627639 148.37335205 363.00527954 C149.30078942 365.27468226 150.22495524 367.5453918 151.1484375 369.81640625 C151.5613504 370.82305328 151.5613504 370.82305328 151.98260498 371.85003662 C153.20572292 374.86650135 154.33762652 377.8072392 155 381 C150.65872133 378.1820917 146.54958804 375.16234357 142.5 371.9375 C141.26046395 370.95697148 140.02087924 369.97650446 138.78125 368.99609375 C137.83958984 368.24948486 137.83958984 368.24948486 136.87890625 367.48779297 C133.92618899 365.14971358 130.96278003 362.82530432 128 360.5 C126.83199181 359.58208144 125.66402313 358.66411259 124.49609375 357.74609375 C122.17719876 355.92396622 119.85677485 354.10381206 117.53515625 352.28515625 C112.18304902 348.08999658 106.84357675 343.8817142 101.54492188 339.61914062 C95.61328649 334.84763582 89.62665005 330.16460272 83.5625 325.5625 C77.27538217 320.79001572 71.12158029 315.88171826 65.01977539 310.87524414 C60.2548771 306.98083924 55.4046361 303.21644557 50.5 299.5 C44.23153715 294.75012651 38.0992296 289.86347044 32.01953125 284.875 C27.25467007 280.98073232 22.40454482 277.2163764 17.5 273.5 C11.23153715 268.75012651 5.0992296 263.86347044 -0.98046875 258.875 C-5.74532993 254.98073232 -10.59545518 251.2163764 -15.5 247.5 C-21.76846285 242.75012651 -27.9007704 237.86347044 -33.98046875 232.875 C-38.7453317 228.98073087 -43.59547841 225.21641074 -48.5 221.5 C-56.26299438 215.61691009 -63.83293015 209.51860074 -71.36132812 203.33935547 C-73.56028767 201.54205331 -75.77779266 199.76843599 -78 198 C-77.36997593 192.53563587 -75.5389758 187.89297917 -73.47875977 182.84545898 C-72.93038342 181.48106453 -72.93038342 181.48106453 -72.37092876 180.08910656 C-71.15013099 177.05576598 -69.92073849 174.02598449 -68.69140625 170.99609375 C-67.82014089 168.83578615 -66.9494464 166.67524823 -66.07928467 164.51449585 C-64.21747947 159.89446685 -62.35199227 155.27594905 -60.48355103 150.65859985 C-57.55693193 143.42606654 -54.63828689 136.19033466 -51.72143555 128.95385742 C-50.73696585 126.51166809 -49.752484 124.06948366 -48.76799011 121.62730408 C-48.27867697 120.41347486 -47.78936382 119.19964565 -47.28522301 117.94903374 C-45.79036082 114.24165681 -44.2946924 110.53460616 -42.79878235 106.82765198 C-33.62922388 84.10203892 -24.51762541 61.35344607 -15.42512131 38.59691238 C-13.58740911 33.99790951 -11.74884779 29.39924612 -9.91040039 24.80053711 C-6.6058791 16.53411256 -3.30246092 8.26724789 0 0 Z " fill="#1B1A19" transform="translate(611,367)"/>
<path d="M0 0 C1.17900375 -0.00945648 2.35800751 -0.01891296 3.57273865 -0.02865601 C4.84561234 -0.02258331 6.11848602 -0.01651062 7.42993164 -0.01025391 C8.74739883 -0.01312408 10.06486603 -0.01599426 11.42225647 -0.01895142 C14.21569344 -0.02337391 17.00884264 -0.01695576 19.80224609 -0.00292969 C23.34569974 0.01401306 26.88846408 0.00441707 30.43189144 -0.01364708 C33.18525648 -0.02461605 35.938465 -0.02097696 38.6918354 -0.0132637 C40.62186766 -0.01034181 42.55190648 -0.0193145 44.48191833 -0.02865601 C58.29648206 0.07954349 72.02108188 2.41108102 82.46508789 12.07568359 C90.10527473 20.24171325 92.56036894 29.24777836 92.42602539 40.19677734 C91.52213206 50.74650382 86.06061903 59.10670962 78.21508789 65.95068359 C77.53446289 66.42505859 76.85383789 66.89943359 76.15258789 67.38818359 C76.86543945 67.74009766 77.57829102 68.09201172 78.31274414 68.45458984 C90.00472476 74.48154621 96.65764144 81.60680332 100.79711914 94.37646484 C102.60633163 104.61541463 101.02861417 114.61397354 95.86743164 123.63427734 C89.13169397 133.25944009 79.83507624 140.48293091 68.26133728 143.02262878 C59.98089708 144.32277294 51.90599874 144.69497355 43.53149414 144.68896484 C42.1743914 144.69286561 40.81728986 144.69720304 39.46018982 144.70195007 C36.64415484 144.70933559 33.82824548 144.70917403 31.01220703 144.70385742 C27.41567623 144.69801973 23.81965326 144.71513314 20.22320652 144.7382021 C17.43241917 144.75295809 14.64175443 144.75380954 11.85093498 144.75069237 C9.88453272 144.75144924 7.91814934 144.76527378 5.95179749 144.77937317 C4.15348732 144.77002998 4.15348732 144.77002998 2.31884766 144.76049805 C1.26995865 144.76112747 0.22106964 144.7617569 -0.85960388 144.7624054 C-4.47297715 144.30983182 -6.77913668 143.34736933 -9.84741211 141.38818359 C-12.43558368 137.8262017 -13.22305735 135.3368473 -13.22836304 130.96118164 C-13.23682251 129.8845224 -13.24528198 128.80786316 -13.2539978 127.69857788 C-13.24792511 126.52751495 -13.24185242 125.35645203 -13.2355957 124.14990234 C-13.24085266 122.90874664 -13.24610962 121.66759094 -13.25152588 120.38882446 C-13.26245706 116.99200558 -13.25990947 113.59573586 -13.25038862 110.19894791 C-13.24278158 106.64051843 -13.24984053 103.08211206 -13.25454712 99.52368164 C-13.26000164 93.54845986 -13.25282108 87.5733494 -13.23852539 81.59814453 C-13.22219937 74.69469246 -13.2274881 67.7915062 -13.24400461 60.88806057 C-13.25762817 54.95584815 -13.2595349 49.02371566 -13.2516886 43.09149265 C-13.24701684 39.55064602 -13.24637346 36.00992425 -13.25629807 32.46908569 C-13.26659045 28.52144068 -13.25231602 24.5740923 -13.2355957 20.62646484 C-13.2416684 19.45540192 -13.24774109 18.28433899 -13.2539978 17.07778931 C-13.24553833 16.00113007 -13.23707886 14.92447083 -13.22836304 13.81518555 C-13.22723196 12.88237259 -13.22610088 11.94955963 -13.22493553 10.98847961 C-12.64989783 7.0277499 -10.84940527 4.37159009 -8.02537537 1.59994507 C-5.20620834 0.03143468 -3.22053603 0.00742272 0 0 Z M8.15258789 17.38818359 C8.15258789 32.23818359 8.15258789 47.08818359 8.15258789 62.38818359 C14.85571289 62.47068359 21.55883789 62.55318359 28.46508789 62.63818359 C31.60391479 62.69280762 31.60391479 62.69280762 34.80615234 62.74853516 C45.6283873 62.85831527 55.46591458 62.74974261 64.59008789 56.13818359 C69.3696256 51.00892361 71.89980269 45.4661693 72.15258789 38.38818359 C71.31618147 31.78700674 68.66678426 27.0547555 64.09008789 22.20068359 C53.41950157 15.6167048 40.49968125 17.04360789 28.46508789 17.20068359 C21.76196289 17.26255859 15.05883789 17.32443359 8.15258789 17.38818359 Z M8.15258789 79.38818359 C8.15258789 94.89818359 8.15258789 110.40818359 8.15258789 126.38818359 C15.6788412 126.48024785 23.20312347 126.55982142 30.72949219 126.60791016 C33.2871769 126.62796662 35.8448161 126.65521865 38.40234375 126.68994141 C42.08873765 126.73872031 45.77452273 126.76121304 49.46118164 126.77880859 C50.59591415 126.79945374 51.73064667 126.82009888 52.89976501 126.84136963 C60.8722251 126.84359897 67.27101284 125.64766982 73.49243164 120.42333984 C74.0196582 119.77236328 74.54688477 119.12138672 75.09008789 118.45068359 C75.90799805 117.47808594 75.90799805 117.47808594 76.74243164 116.48583984 C80.97139079 110.19511668 80.8560225 103.74308212 80.15258789 96.38818359 C78.50044167 90.27425325 74.52372143 85.66302941 69.15258789 82.38818359 C62.25591082 79.17921564 56.3175235 78.9907916 48.77758789 79.09521484 C47.02998169 79.10158211 47.02998169 79.10158211 45.24707031 79.108078 C41.54866824 79.12478709 37.85082355 79.16242598 34.15258789 79.20068359 C31.63566871 79.21574042 29.11874094 79.22942708 26.60180664 79.24169922 C20.4516828 79.27210524 14.30275469 79.33084433 8.15258789 79.38818359 Z " fill="#1A1918" transform="translate(740.847412109375,1326.61181640625)"/>
<path d="M0 0 C1.87903891 2.09702486 3.60236216 4.26380093 5.30859375 6.50390625 C5.92863281 7.31472656 6.54867187 8.12554688 7.1875 8.9609375 C8.64925488 10.89977366 10.10140935 12.84586448 11.546875 14.796875 C14.96259939 19.40123553 18.45279796 23.94867797 21.93359375 28.50390625 C27.3046954 35.53864573 32.63735009 42.60016654 37.93359375 49.69140625 C43.28596261 56.8540836 48.73072694 63.93685539 54.23730469 70.98144531 C58.1015406 75.93215393 61.91619701 80.9165993 65.68359375 85.94140625 C66.36071411 86.84391113 66.36071411 86.84391113 67.05151367 87.76464844 C71.1912978 93.30643544 75.23910337 98.90835698 79.30859375 104.50390625 C79.63859375 69.52390625 79.96859375 34.54390625 80.30859375 -1.49609375 C86.57859375 -1.49609375 92.84859375 -1.49609375 99.30859375 -1.49609375 C99.40118601 16.5408672 99.47257022 34.57774661 99.51584244 52.61489391 C99.53646845 60.98984556 99.5645897 69.36464683 99.61035156 77.73950195 C99.65021825 85.03896332 99.67602628 92.33831579 99.68494773 99.63788301 C99.69016281 103.5030667 99.70242059 107.36793884 99.73151398 111.23302269 C99.75868068 114.87165348 99.76703638 118.50984462 99.76102448 122.1485672 C99.7626482 124.11932992 99.7841645 126.09004484 99.80627441 128.0606842 C99.80077576 129.23712494 99.7952771 130.41356567 99.78961182 131.62565613 C99.79329899 132.64608096 99.79698616 133.66650579 99.80078506 134.71785259 C99.17616972 138.25349376 97.76779463 139.93817978 95.30859375 142.50390625 C93.34375 143.31640625 93.34375 143.31640625 91.37109375 143.50390625 C90.72269531 143.58640625 90.07429688 143.66890625 89.40625 143.75390625 C84.29734769 143.14502404 81.38814009 139.73359003 78.31494141 135.8737793 C77.83847168 135.25672119 77.36200195 134.63966309 76.87109375 134.00390625 C76.35595215 133.3488208 75.84081055 132.69373535 75.31005859 132.01879883 C70.63644124 126.03015796 66.14672077 119.90625711 61.66674805 113.7722168 C57.03674899 107.4454193 52.26149786 101.24571836 47.42724609 95.07421875 C43.06338896 89.49633779 38.7930288 83.85510459 34.55712891 78.1796875 C30.80631488 73.15696682 26.99794888 68.18145301 23.16796875 63.21875 C19.36474991 58.28495836 15.58691978 53.33176965 11.80859375 48.37890625 C11.1012207 47.45311768 10.39384766 46.5273291 9.66503906 45.57348633 C9.00084961 44.70232178 8.33666016 43.83115723 7.65234375 42.93359375 C7.05615234 42.15226074 6.45996094 41.37092773 5.84570312 40.56591797 C4.61545056 38.91555057 3.45041873 37.21664372 2.30859375 35.50390625 C1.97859375 70.81390625 1.64859375 106.12390625 1.30859375 142.50390625 C-4.96140625 142.50390625 -11.23140625 142.50390625 -17.69140625 142.50390625 C-17.8071451 124.33658075 -17.8963759 106.16938173 -17.95046711 88.00176716 C-17.97625006 79.56623599 -18.0114021 71.13093809 -18.06860352 62.69555664 C-18.11843597 55.343357 -18.15069661 47.99132628 -18.16184872 40.63896245 C-18.16836786 36.7457575 -18.18369075 32.85303581 -18.22005653 28.95998573 C-18.25401406 25.29502621 -18.26446006 21.63074864 -18.25694466 17.96564674 C-18.25897447 15.9805392 -18.28587106 13.99550581 -18.31350708 12.0105896 C-18.25722452 2.30834127 -18.25722452 2.30834127 -15.27311707 -0.77619934 C-10.03314284 -4.26698627 -4.8989468 -4.33324855 0 0 Z " fill="#191817" transform="translate(226.69140625,1328.49609375)"/>
<path d="M0 0 C0.69099792 0.00082581 1.38199585 0.00165161 2.09393311 0.00250244 C33.07318267 0.0871379 33.07318267 0.0871379 46.75 5.3125 C46.60786703 7.20861434 46.46113093 9.10438394 46.3125 11 C46.19068359 12.58361328 46.19068359 12.58361328 46.06640625 14.19921875 C45.7851936 16.96621235 45.3163679 19.59353096 44.75 22.3125 C44.11312256 22.22685791 43.47624512 22.14121582 42.82006836 22.05297852 C5.55329557 15.80325209 5.55329557 15.80325209 -30.25 24.3125 C-35.65539921 28.56781427 -37.86150369 33.35021566 -38.75 40.125 C-38.48992617 45.48252093 -36.3609149 50.00618724 -33.25 54.3125 C-25.86090039 60.9137912 -18.28854699 62.59744601 -8.65234375 62.62109375 C-6.78059567 62.64624057 -4.90885095 62.67163877 -3.03710938 62.69726562 C-0.10539529 62.72604892 2.82626074 62.75008782 5.75805664 62.76879883 C8.600716 62.79045855 11.44272297 62.82988039 14.28515625 62.87109375 C15.59626122 62.87126747 15.59626122 62.87126747 16.93385315 62.8714447 C21.67497771 62.9484617 24.92839701 63.19290837 28.75 66.3125 C31.18595272 69.96642909 30.8757742 71.30385953 30.23046875 75.44140625 C29.61344926 77.84427075 28.82700225 78.95446007 26.75 80.3125 C23.95525531 81.24408156 22.25044156 81.44141379 19.36132812 81.4543457 C18.47610474 81.46138016 17.59088135 81.46841461 16.67883301 81.47566223 C15.72263062 81.47982651 14.76642822 81.48399078 13.78125 81.48828125 C11.74478154 81.51149822 9.7083232 81.53561628 7.671875 81.56054688 C4.47063616 81.59550237 1.26976487 81.62491658 -1.93164062 81.63842773 C-5.02779665 81.65404305 -8.12288208 81.6943566 -11.21875 81.73828125 C-12.62876282 81.73541862 -12.62876282 81.73541862 -14.06726074 81.73249817 C-22.13385417 81.87860948 -29.23781392 83.92226149 -36.1875 88.0625 C-41.56378119 93.92753402 -42.93805582 99.49584436 -42.62890625 107.4140625 C-41.76015969 114.05952586 -38.66760598 118.85935044 -33.4375 122.99609375 C-14.32898797 134.49532331 13.4046058 129.749856 34.24267578 126.67626953 C37.73923089 126.16897965 41.24264256 125.7380098 44.75 125.3125 C45.25546036 127.39451528 45.75416835 129.47817067 46.25 131.5625 C46.5284375 132.72265625 46.806875 133.8828125 47.09375 135.078125 C47.75 138.3125 47.75 138.3125 47.75 142.3125 C43.79332741 143.13322694 39.83440137 143.94254905 35.875 144.75 C34.21210937 145.09514648 34.21210937 145.09514648 32.515625 145.44726562 C8.20440628 150.38101295 -21.72958434 152.01219308 -44.171875 139.7109375 C-53.31203729 133.64519343 -60.60557786 125.76778171 -63.00390625 114.89453125 C-65.31291561 100.64837914 -63.21525238 90.69609794 -54.9375 79.0625 C-51.73941053 75.79003636 -48.34572728 73.35584297 -44.25 71.3125 C-43.59 71.3125 -42.93 71.3125 -42.25 71.3125 C-43.24 70.3534375 -43.24 70.3534375 -44.25 69.375 C-45.25187108 68.35600292 -46.25157212 67.334871 -47.25 66.3125 C-47.90097656 65.66925781 -48.55195312 65.02601562 -49.22265625 64.36328125 C-56.39864045 56.89220985 -59.38432478 49.7510343 -59.75 39.375 C-59.38520481 28.95553732 -56.75225707 20.72380591 -49.375 13.2109375 C-35.90667669 1.17857513 -17.26756393 -0.08744773 0 0 Z " fill="#191817" transform="translate(1151.25,1324.6875)"/>
<path d="M0 0 C-0.30822621 2.2922454 -0.62170874 4.58378455 -0.9375 6.875 C-1.11152344 8.15117188 -1.28554688 9.42734375 -1.46484375 10.7421875 C-2 14 -2 14 -3 16 C-7.85681907 15.57327149 -12.67847282 15.10309503 -17.48046875 14.24609375 C-28.36188502 12.33784623 -39.09767785 11.67379273 -50.125 11.625 C-51.42848389 11.61138428 -52.73196777 11.59776855 -54.07495117 11.58374023 C-63.67663205 11.62867982 -72.21089219 13.04367632 -81 17 C-83.87153072 21.37566586 -83.61787187 26.9594663 -83 32 C-77.00717477 45.89245849 -54.03125489 53.02300356 -41.125 58.875 C-4.50672077 75.54353571 -4.50672077 75.54353571 2 90 C5.21160339 99.49028803 4.62097074 109.16097009 0.5 118.25 C-5.43501907 129.03453585 -14.4481747 134.24543633 -25.8984375 137.93359375 C-53.02977668 145.70133332 -81.87693517 139.70768828 -108 131 C-107.45018084 124.95198929 -106.09570426 119.69398894 -104 114 C-98.60385458 115.00763403 -93.25961602 116.16576878 -87.9284668 117.47070312 C-68.55720074 122.17729338 -43.85134677 127.04982696 -25.5 116.6875 C-22.02755755 114.24955603 -19.80602458 111.91305325 -18 108 C-17.20171314 103.37658858 -17.28395562 100.24463374 -19.65625 96.12109375 C-27.64745006 85.479479 -43.76015247 80.01365996 -55.5 74.5 C-96.68680907 55.15647279 -96.68680907 55.15647279 -103.06640625 39.359375 C-105.56521363 30.36785055 -105.42212079 19.75503368 -101.5 11.25 C-98.48779264 6.14265076 -95.16458263 2.864954 -90 0 C-89.03513672 -0.56267578 -89.03513672 -0.56267578 -88.05078125 -1.13671875 C-63.66257001 -13.63277365 -24.73888211 -9.03124462 0 0 Z " fill="#191817" transform="translate(522,1332)"/>
<path d="M0 0 C3.74713296 3.02769075 5.34566773 6.54695351 7.0390625 10.9375 C7.31699142 11.63247086 7.59492035 12.32744171 7.88127136 13.04347229 C8.48581665 14.55860319 9.08564395 16.07562314 9.68130493 17.5942688 C10.64648504 20.05477111 11.62368366 22.51019048 12.60424805 24.96459961 C13.65136123 27.58591143 14.6977086 30.207502 15.74046326 32.83055115 C19.32927504 41.85572242 23.0051077 50.84452369 26.69161987 59.83013916 C28.19244845 63.4886974 29.69077545 67.14827792 31.18910217 70.80786133 C31.94967079 72.66549621 32.71036251 74.52308069 33.47117615 76.38061523 C36.3542829 83.4201993 39.23250722 90.46177052 42.109375 97.50390625 C43.35667154 100.55624335 44.6040308 103.6085548 45.85140991 106.66085815 C46.65507006 108.6278156 47.45847821 110.59487602 48.2616272 112.56204224 C49.3729338 115.2838369 50.48518906 118.00524204 51.59765625 120.7265625 C51.92904602 121.53891861 52.26043579 122.35127472 52.60186768 123.18824768 C54.20299495 127.13781208 54.20299495 127.13781208 56 131 C56.53240148 135.44249756 56.51945285 138.9610943 54.5 143 C51.79926443 145.16058845 49.66689559 146.11294611 46.18359375 146.3046875 C37.93740107 145.15405596 30.49780222 136.25142808 24.421875 130.95703125 C20.83643358 127.8400743 17.14802811 124.86870197 13.421875 121.921875 C8.90339097 118.33623929 4.45899037 114.65914323 0 111 C-8.97860871 103.64026165 -17.98631557 96.31671083 -27 89 C-30.49111105 97.30393975 -33.88883323 105.64310192 -37.22949219 114.00854492 C-37.99806139 115.93264671 -38.76847234 117.85600371 -39.5390625 119.77929688 C-42.43672758 127.02311286 -45.27290373 134.28546108 -48.01953125 141.58813477 C-49 144 -49 144 -50 145 C-51.4887186 145.08669432 -52.981445 145.10703494 -54.47265625 145.09765625 C-55.37177734 145.09443359 -56.27089844 145.09121094 -57.19726562 145.08789062 C-58.14279297 145.07951172 -59.08832031 145.07113281 -60.0625 145.0625 C-61.01189453 145.05798828 -61.96128906 145.05347656 -62.93945312 145.04882812 C-65.29303065 145.0370011 -67.64648477 145.02052025 -70 145 C-69.40348851 140.37714537 -68.14737344 136.54457718 -66.32421875 132.26171875 C-66.04742279 131.60526367 -65.77062683 130.94880859 -65.48544312 130.27246094 C-64.87923489 128.83604674 -64.27021068 127.40081849 -63.65872192 125.96664429 C-61.94819181 121.95258237 -60.26065776 117.92884347 -58.5703125 113.90625 C-58.20561356 113.03973312 -57.84091461 112.17321625 -57.46516418 111.28044128 C-52.91457785 100.45015988 -48.49173844 89.56782194 -44.0625 78.6875 C-42.36488067 74.52071216 -40.66678617 70.35411799 -38.96875 66.1875 C-38.55257416 65.16603882 -38.13639832 64.14457764 -37.70761108 63.09216309 C-33.50705646 52.78466483 -29.28770166 42.48491538 -25.0625 32.1875 C-24.73524933 31.38951996 -24.40799866 30.59153992 -24.0708313 29.76937866 C-23.75427582 28.99752228 -23.43772034 28.22566589 -23.11157227 27.43041992 C-22.80525375 26.68335281 -22.49893524 25.93628571 -22.18333435 25.1665802 C-21.59531354 23.73537293 -21.00566421 22.30483339 -20.41419983 20.87504578 C-19.10916194 17.71956155 -17.829501 14.56093992 -16.59326172 11.37744141 C-16.16932129 10.30026855 -15.74538086 9.2230957 -15.30859375 8.11328125 C-14.95466553 7.18942627 -14.6007373 6.26557129 -14.23608398 5.3137207 C-11.10316894 -0.55051707 -6.1282987 -1.62587517 0 0 Z M-5 30 C-6.47676354 33.60646505 -7.95167336 37.21368263 -9.42504883 40.8215332 C-10.16590688 42.63465458 -10.90812836 44.44721866 -11.65039062 46.25976562 C-12.62254146 48.64120896 -13.58850435 51.02518747 -14.54833984 53.41162109 C-15.52842111 55.83429758 -16.5293176 58.24864237 -17.54931641 60.65478516 C-18.0241748 61.80640137 -18.4990332 62.95801758 -18.98828125 64.14453125 C-19.42309814 65.17553955 -19.85791504 66.20654785 -20.3059082 67.26879883 C-21.23226614 69.92097098 -21.23226614 69.92097098 -20.32592773 72.18798828 C-18.94907312 74.06959663 -17.62050167 75.39807384 -15.796875 76.84765625 C-15.15355225 77.36465088 -14.51022949 77.88164551 -13.84741211 78.41430664 C-13.15526611 78.95821045 -12.46312012 79.50211426 -11.75 80.0625 C-11.03271729 80.63540771 -10.31543457 81.20831543 -9.57641602 81.79858398 C-7.39068259 83.54066055 -5.19679502 85.27190147 -3 87 C-2.06873291 87.73476562 -2.06873291 87.73476562 -1.11865234 88.484375 C1.73233718 90.73295383 4.58882862 92.97433402 7.44921875 95.2109375 C13.67472443 100.08767177 19.83241782 105.05038573 26 110 C27.27663337 108.01844964 27.27663337 108.01844964 26.34561157 105.82624817 C25.97970917 104.92299301 25.61380676 104.01973785 25.23681641 103.08911133 C24.82533356 102.06235794 24.41385071 101.03560455 23.98989868 99.97773743 C23.53174774 98.85715439 23.0735968 97.73657135 22.6015625 96.58203125 C22.13317963 95.41862717 21.66479675 94.25522308 21.18222046 93.05656433 C19.92524836 89.93790108 18.6617726 86.82203981 17.39489746 83.70739746 C15.65227821 79.41840449 13.92236819 75.12426223 12.18963623 70.83126831 C11.216306 68.420194 10.24206655 66.00948653 9.26690674 63.59915161 C4.75494173 52.4343004 0.35532585 41.2267653 -4 30 C-4.33 30 -4.66 30 -5 30 Z " fill="#191817" transform="translate(71,1326)"/>
<path d="M0 0 C6.6 0 13.2 0 20 0 C20 41.25 20 82.5 20 125 C45.08 125 70.16 125 96 125 C96 131.27 96 137.54 96 144 C84.62985644 144.06780776 73.25984744 144.12283468 61.88954735 144.15543652 C56.6097194 144.17108465 51.3300371 144.19230755 46.05029297 144.22631836 C40.95394079 144.25894192 35.85772861 144.27685943 30.76128006 144.28463173 C28.81803814 144.29016983 26.87480379 144.30098441 24.93162155 144.31719017 C22.20733907 144.33900418 19.48363327 144.34196525 16.75927734 144.34057617 C15.95798401 144.351362 15.15669067 144.36214783 14.33111572 144.3732605 C9.51538054 144.34673421 6.1208642 143.76379079 2 141 C-0.11188246 137.76985858 -0.24748679 135.12778803 -0.24050903 131.31793213 C-0.24325836 130.15969437 -0.24600769 129.0014566 -0.24884033 127.80812073 C-0.24164978 126.54145065 -0.23445923 125.27478058 -0.22705078 123.96972656 C-0.2264865 122.61940011 -0.22680356 121.26907304 -0.22793579 119.91874695 C-0.22850964 116.25582369 -0.21675011 112.59303141 -0.20278788 108.93013859 C-0.19028593 105.10111721 -0.18911044 101.27209284 -0.18673706 97.4430542 C-0.18052072 90.19350995 -0.16410781 82.94402601 -0.14403808 75.69450831 C-0.12168389 67.44065121 -0.11068686 59.18679123 -0.10064721 50.9329114 C-0.07974171 33.95523839 -0.0441599 16.97762788 0 0 Z " fill="#191817" transform="translate(924,1327)"/>
<path d="M0 0 C6.6 0 13.2 0 20 0 C20 47.52 20 95.04 20 144 C13.4 144 6.8 144 0 144 C0 96.48 0 48.96 0 0 Z " fill="#1A1817" transform="translate(613,1327)"/>
</svg>
