<?xml version="1.0" encoding="UTF-8"?>
<svg version="1.1" xmlns="http://www.w3.org/2000/svg" width="735" height="715">
<path d="M0 0 C242.55 0 485.1 0 735 0 C735 235.95 735 471.9 735 715 C492.45 715 249.9 715 0 715 C0 479.05 0 243.1 0 0 Z " fill="#27190D" transform="translate(0,0)"/>
<path d="M0 0 C242.55 0 485.1 0 735 0 C735 235.95 735 471.9 735 715 C492.45 715 249.9 715 0 715 C0 479.05 0 243.1 0 0 Z M57 40 C57 249.55 57 459.1 57 675 C261.93 675 466.86 675 678 675 C678 465.45 678 255.9 678 40 C473.07 40 268.14 40 57 40 Z " fill="#F37822" transform="translate(0,0)"/>
<path d="M0 0 C21.78 0 43.56 0 66 0 C67.65 7.26 69.3 14.52 71 22 C72.76332718 28.38851006 72.76332718 28.38851006 74.5625 34.765625 C77.41618437 44.98181504 79.86379437 55.31366165 82.41398621 65.6091156 C83.62794287 70.50854676 84.8518177 75.4054083 86.08203125 80.30078125 C89.18209737 92.64388217 92.25343299 104.99106242 95.1875 117.375 C96.95356324 124.82127785 98.85127188 132.20002134 100.96557617 139.55419922 C103.20453056 147.47909326 105.0826814 155.49283839 107 163.5 C109.42066715 173.60707859 111.89241592 183.67878754 114.796875 193.66015625 C116.45155725 199.48813943 117.86164799 205.38068084 119.31933594 211.26022339 C120.71896979 216.89396301 122.13033838 222.52477804 123.5390625 228.15625 C124.20411358 230.81605738 124.86902275 233.47590023 125.53393555 236.13574219 C125.87909697 237.51639875 126.22426098 238.89705467 126.56942749 240.27770996 C131.98524984 261.94099935 137.40107218 283.60428874 142.81689453 305.26757812 C142.99565125 305.98228271 143.17440796 306.6969873 143.35858154 307.43334961 C143.70494065 308.81942647 144.05070524 310.20565206 144.39581299 311.59204102 C145.37494161 315.52163079 146.36972513 319.44677609 147.37744141 323.36914062 C147.60897415 324.27722473 147.8405069 325.18530884 148.07905579 326.12091064 C148.52945426 327.88683179 148.98353711 329.65181854 149.44181824 331.41571045 C149.64511246 332.2159967 149.84840668 333.01628296 150.05786133 333.84082031 C150.23988602 334.5479718 150.42191071 335.25512329 150.60945129 335.98370361 C151 338 151 338 151 342 C133.18 342 115.36 342 97 342 C90.19404945 318.17917307 90.19404945 318.17917307 88.51953125 310.2265625 C86.79008736 302.34682244 84.90566585 294.52155671 82.88671875 286.7109375 C82.62424347 285.69445129 82.36176819 284.67796509 82.09133911 283.63067627 C81.01596259 279.47726781 79.93541881 275.3252226 78.85229492 271.17382812 C78.0471936 268.08307183 77.24790042 264.99085782 76.44921875 261.8984375 C76.20241867 260.96003021 75.95561859 260.02162292 75.70133972 259.05477905 C75.47722916 258.18511505 75.25311859 257.31545105 75.0222168 256.41943359 C74.82411911 255.6597226 74.62602142 254.9000116 74.42192078 254.11727905 C74 252 74 252 74 248 C45.62 248 17.24 248 -12 248 C-12 249.98 -12 251.96 -12 254 C-12.47250174 256.30692024 -13.02282486 258.59848424 -13.625 260.875 C-13.99510727 262.30330367 -14.36487752 263.73169471 -14.734375 265.16015625 C-14.93740234 265.93504395 -15.14042969 266.70993164 -15.34960938 267.50830078 C-16.54907344 272.10354485 -17.71509067 276.70713272 -18.875 281.3125 C-19.12830078 282.31772705 -19.38160156 283.3229541 -19.64257812 284.35864258 C-21.60540248 292.2314622 -23.39051349 300.13656929 -25.125 308.0625 C-27.63667198 319.53609 -30.28272112 330.84816337 -34 342 C-51.49 342 -68.98 342 -87 342 C-81.08494208 315.91997192 -81.08494208 315.91997192 -77.9921875 305.59375 C-76.68181862 300.847532 -75.62696287 296.05643413 -74.5625 291.25 C-73.09799314 284.65527452 -71.55149051 278.11845389 -69.6875 271.625 C-67.41278846 263.66667268 -65.37144608 255.65724194 -63.375 247.625 C-63.21111786 246.96607758 -63.04723572 246.30715515 -62.87838745 245.62826538 C-61.9868832 242.04206885 -61.09713427 238.45543906 -60.20800781 234.86865234 C-58.138798 226.52455839 -56.05746861 218.18348416 -53.97491455 209.8427124 C-53.2678064 207.00886201 -52.56230282 204.17461567 -51.85693359 201.34033203 C-49.6000724 192.28739835 -47.29171282 183.25337881 -44.8671875 174.24389648 C-43.65138822 169.69594461 -42.50646315 165.13203352 -41.375 160.5625 C-40.84639199 158.44009475 -40.31774321 156.31769965 -39.7890625 154.1953125 C-39.19263715 151.7968927 -38.59628678 149.39845425 -38 147 C-32.09403797 123.24972457 -26.1230219 99.51597304 -20.11804199 75.79055786 C-19.34502575 72.73629559 -18.57281669 69.68183127 -17.8013916 66.62716675 C-13.61191578 50.04113503 -9.36634713 33.47115421 -5.00390625 16.9296875 C-4.80793287 16.18401646 -4.6119595 15.43834541 -4.41004753 14.67007828 C-3.85984773 12.57872047 -3.30657979 10.48820161 -2.75219727 8.39794922 C-2.43726822 7.2075705 -2.12233917 6.01719177 -1.79786682 4.79074097 C-1 2 -1 2 0 0 Z " fill="#F37722" transform="translate(253,170)"/>
<path d="M0 0 C17.16 0 34.32 0 52 0 C52 81.51 52 163.02 52 247 C34.84 247 17.68 247 0 247 C0 165.49 0 83.98 0 0 Z " fill="#F37722" transform="translate(441,265)"/>
<path d="M0 0 C204.93 0 409.86 0 621 0 C621 209.55 621 419.1 621 635 C416.07 635 211.14 635 0 635 C0 425.45 0 215.9 0 0 Z M2 2 C2 209.9 2 417.8 2 632 C4.31072142 633.15536071 5.61321037 633.12512163 8.18423229 633.12534916 C9.06858882 633.12785268 9.95294534 633.1303562 10.86410055 633.13293558 C11.84362877 633.13059442 12.823157 633.12825325 13.8323679 633.12584114 C14.87103743 633.12729458 15.90970697 633.12874802 16.97985134 633.13024551 C20.50111331 633.13392889 24.02233262 633.13040831 27.54359436 633.12698364 C30.07723543 633.12813454 32.61087633 633.12972185 35.14451689 633.13171089 C40.67416753 633.1350296 46.20380484 633.13520654 51.73345566 633.13266373 C59.95596823 633.12889281 68.17847253 633.13080894 76.40098505 633.13387203 C91.08315572 633.13914759 105.76532205 633.1386775 120.44749314 633.13579312 C133.29518528 633.1332814 146.14287582 633.13261907 158.99056816 633.13381577 C159.84150248 633.13389215 160.6924368 633.13396854 161.56915701 633.13404724 C165.02302878 633.13435855 168.47690056 633.13467695 171.93077233 633.135007 C204.35526645 633.13806857 236.77975781 633.13528841 269.2042515 633.1299101 C298.03794324 633.12516379 326.87163056 633.12558919 355.70532227 633.13037109 C388.07055477 633.13572069 420.43578482 633.13785191 452.8010177 633.13475883 C456.24842767 633.13443809 459.69583764 633.13412525 463.1432476 633.13381577 C463.99214158 633.13373669 464.84103555 633.13365761 465.71565358 633.13357614 C478.55880433 633.13243662 491.40195332 633.13377272 504.24510384 633.13629532 C518.84133006 633.13914789 533.43755124 633.13845407 548.03377683 633.13301457 C556.21197099 633.13006775 564.39015426 633.12990173 572.56834815 633.13366075 C578.6579193 633.13615209 584.74747615 633.13347057 590.83704644 633.12868617 C593.31343474 633.12756078 595.78982449 633.12815584 598.26621187 633.13056196 C601.60865382 633.13356269 604.9510346 633.13052487 608.29347324 633.12584114 C609.27534264 633.12818231 610.25721203 633.13052347 611.26883504 633.13293558 C612.59161454 633.12918031 612.59161454 633.12918031 613.94111687 633.12534916 C615.08947692 633.12524753 615.08947692 633.12524753 616.26103616 633.12514383 C618.02962543 633.18855038 618.02962543 633.18855038 619 632 C619.09690075 630.61698395 619.12447407 629.22904162 619.1241985 627.8426351 C619.12644579 626.93876838 619.12869308 626.03490167 619.13100848 625.10364506 C619.12838146 624.09713879 619.12575445 623.09063252 619.12304783 622.05362606 C619.1247786 620.45891472 619.1247786 620.45891472 619.12654433 618.83198699 C619.12921954 615.22146714 619.12468144 611.61099068 619.12025452 608.00047302 C619.12069003 605.40511043 619.12156458 602.80974788 619.12284368 600.21438557 C619.12492324 594.54680662 619.12326377 588.87923813 619.11920547 583.21166039 C619.11318757 574.78408869 619.11286807 566.35652364 619.11374746 557.92895019 C619.11506356 543.75464295 619.11171165 529.58034036 619.10573006 515.40603447 C619.0998198 501.3649029 619.09596548 487.32377326 619.09487724 473.28264046 C619.0948085 472.41069707 619.09473976 471.53875369 619.09466894 470.64038778 C619.09433062 466.21250849 619.09402923 461.78462919 619.09374207 457.3567499 C619.09163978 425.96675447 619.08489721 394.57676158 619.07543945 363.18676758 C619.06626004 332.68546563 619.05917397 302.18416438 619.05493164 271.68286133 C619.05480011 270.74323169 619.05466859 269.80360204 619.05453308 268.83549878 C619.05321459 259.39963985 619.05193877 249.96378092 619.05069422 240.52792198 C619.04815778 221.30475251 619.04533652 202.0815831 619.04234314 182.8584137 C619.0421372 181.53254083 619.0421372 181.53254083 619.04192711 180.17988266 C619.03272124 121.11992072 619.01687544 62.05996019 619 3 C560.88682626 2.98288871 502.77365226 2.96696718 444.66047668 2.95765686 C443.37118809 2.95744977 443.37118809 2.95744977 442.05585326 2.95723851 C423.37790591 2.95424589 404.69995853 2.95147566 386.02201111 2.94893467 C376.86289998 2.94768729 367.70378886 2.94639074 358.54467773 2.94506836 C357.63321597 2.9449376 356.7217542 2.94480684 355.78267238 2.94467212 C326.21753695 2.94040762 296.65240342 2.93289397 267.08726913 2.92370278 C236.71575413 2.91427801 206.34424018 2.90811638 175.97272373 2.90608501 C171.68703445 2.90579684 167.40134517 2.9054712 163.1156559 2.90512276 C161.85037661 2.90502162 161.85037661 2.90502162 160.55953613 2.90491844 C146.95852804 2.90373482 133.35752321 2.89909164 119.75651645 2.89316797 C106.09665412 2.88729201 92.43679503 2.88502918 78.77693149 2.88649862 C70.65249002 2.88726159 62.52806037 2.8852102 54.40362103 2.87920246 C48.35042837 2.87503048 42.29724853 2.87602809 36.24405471 2.87910111 C33.78506707 2.87952644 31.32607845 2.87823373 28.86709275 2.87511682 C25.54328821 2.8711462 22.21954304 2.87324086 18.89573956 2.87695217 C17.43958504 2.87301165 17.43958504 2.87301165 15.95401326 2.86899152 C14.6323237 2.87236246 14.6323237 2.87236246 13.28393334 2.8758015 C12.14285708 2.87556753 12.14285708 2.87556753 10.97872878 2.87532884 C8.7874816 2.92864624 8.7874816 2.92864624 6 4 C6 3.34 6 2.68 6 2 C4.68 2 3.36 2 2 2 Z " fill="#522509" transform="translate(57,40)"/>
<path d="M0 0 C0.66 0 1.32 0 2 0 C2.17015625 0.93231445 2.3403125 1.86462891 2.515625 2.82519531 C8.57865272 35.92822974 15.74719524 68.63924623 24.05566406 101.25219727 C26.61636752 111.32205999 29.05108029 121.40878934 31.31681824 131.54953003 C31.50851089 132.40733063 31.70020355 133.26513123 31.89770508 134.14892578 C32.08056061 134.96878967 32.26341614 135.78865356 32.45181274 136.63336182 C32.97601046 138.89643218 33.5526409 141.13974814 34.14331055 143.38623047 C35 147 35 147 35 151 C12.56 151 -9.88 151 -33 151 C-29.55889333 133.79446663 -29.55889333 133.79446663 -27.94921875 127.35546875 C-27.6802755 126.26103958 -27.6802755 126.26103958 -27.40589905 125.14450073 C-27.02862057 123.60985664 -26.65003061 122.07553438 -26.2701416 120.54153442 C-25.26490136 116.48008373 -24.27124805 112.41579962 -23.27734375 108.3515625 C-23.08036896 107.54672928 -22.88339417 106.74189606 -22.68045044 105.91267395 C-20.24272627 95.93137133 -17.93877826 85.92020061 -15.66308594 75.90087891 C-15.00666798 73.02917118 -14.33716207 70.16080783 -13.6640625 67.29296875 C-11.08668213 56.24912061 -8.84854464 45.18688329 -6.89453125 34.015625 C-6.1569502 29.80647404 -5.32873204 25.62050315 -4.47973633 21.43261719 C-3.58217274 16.88130749 -2.82434193 12.30518111 -2.05664062 7.73046875 C-1.10762577 2.21525155 -1.10762577 2.21525155 0 0 Z " fill="#29190C" transform="translate(283,221)"/>
<path d="M0 0 C0.96679688 0.61488281 0.96679688 0.61488281 1.953125 1.2421875 C2.57703125 1.63148438 3.2009375 2.02078125 3.84375 2.421875 C9.46115223 6.54944447 13.33101945 12.47069197 14.953125 19.2421875 C16.25144879 29.11628162 16.95975514 40.75182969 11.3671875 49.40625 C10.90054688 50.01210937 10.43390625 50.61796875 9.953125 51.2421875 C9.37691406 52.12003906 9.37691406 52.12003906 8.7890625 53.015625 C5.69364259 57.33236705 1.70959886 59.26032339 -3.046875 61.2421875 C-3.84738281 61.60054688 -4.64789063 61.95890625 -5.47265625 62.328125 C-12.69400536 64.89230663 -20.0714312 63.52029086 -26.89453125 60.4375 C-29.89925794 58.76881331 -31.87937537 56.90511561 -34.046875 54.2421875 C-34.47613281 53.73945313 -34.90539062 53.23671875 -35.34765625 52.71875 C-42.22831913 44.07225328 -42.95626093 33.9581947 -42.046875 23.2421875 C-40.08103766 12.64376013 -34.59500737 5.64247548 -26.046875 -0.7578125 C-18.24991742 -4.75294779 -7.63231763 -4.09883724 0 0 Z " fill="#F47721" transform="translate(480.046875,166.7578125)"/>
<path d="M0 0 C17.16 0 34.32 0 52 0 C52 81.51 52 163.02 52 247 C34.84 247 17.68 247 0 247 C0 165.49 0 83.98 0 0 Z M1 1 C1 81.85 1 162.7 1 246 C16.18 246 31.36 246 47 246 C47 167.46 47 88.92 47 8 C47.66 7.67 48.32 7.34 49 7 C48.34 6.67 47.68 6.34 47 6 C47.99 5.67 48.98 5.34 50 5 C50 3.68 50 2.36 50 1 C33.83 1 17.66 1 1 1 Z " fill="#ED7A2D" transform="translate(441,265)"/>
<path d="M0 0 C0.93709808 0.02220612 1.87419617 0.04441223 2.83969116 0.06729126 C4.43111435 0.09754898 4.43111435 0.09754898 6.0546875 0.12841797 C7.7781691 0.17671249 7.7781691 0.17671249 9.53646851 0.22598267 C10.71002899 0.25100861 11.88358948 0.27603455 13.0927124 0.30181885 C16.85289619 0.38420154 20.61256899 0.48072121 24.37240601 0.57754517 C26.91665575 0.63576598 29.46092665 0.69306964 32.00521851 0.74942017 C38.25289916 0.88980756 44.50021747 1.04181296 50.74740601 1.20254517 C50.74740601 1.86254517 50.74740601 2.52254517 50.74740601 3.20254517 C33.58740601 3.20254517 16.42740601 3.20254517 -1.25259399 3.20254517 C-1.25259399 84.71254517 -1.25259399 166.22254517 -1.25259399 250.20254517 C-1.91259399 250.20254517 -2.57259399 250.20254517 -3.25259399 250.20254517 C-3.42562224 218.64290645 -3.58843397 187.08323594 -3.73690692 155.52347279 C-3.75442942 151.8007739 -3.77203937 148.07807542 -3.78970337 144.3553772 C-3.79497622 143.24365543 -3.79497622 143.24365543 -3.8003556 142.10947464 C-3.85754386 130.09598685 -3.92182289 118.08254686 -3.98870499 106.06910957 C-4.05713315 93.74973584 -4.11798172 81.43034163 -4.17173803 69.11089504 C-4.20517105 61.50411641 -4.24457397 53.89741618 -4.29152237 46.29070877 C-4.32684068 40.46594046 -4.35163287 34.64115786 -4.37240791 28.81631851 C-4.38262181 26.4208808 -4.39630711 24.02545514 -4.41362953 21.63005829 C-4.43667876 18.3726964 -4.44751377 15.11552224 -4.45513916 11.85809326 C-4.46485579 10.89896377 -4.47457242 9.93983427 -4.4845835 8.95164025 C-4.4840848 8.08377605 -4.48358609 7.21591185 -4.48307228 6.32174873 C-4.48686948 5.56914304 -4.49066669 4.81653734 -4.49457896 4.04112542 C-4.10327781 1.06805407 -2.89833843 0.26060819 0 0 Z " fill="#612503" transform="translate(442.2525939941406,261.7974548339844)"/>
<path d="M0 0 C0.66 0.33 1.32 0.66 2 1 C1.67 82.51 1.34 164.02 1 248 C0.34 248 -0.32 248 -1 248 C-1.02278979 216.55068285 -1.04049788 185.10136804 -1.05106533 153.65204457 C-1.05231611 149.94307853 -1.05361042 146.2341125 -1.05493164 142.52514648 C-1.05519395 141.78672695 -1.05545626 141.04830741 -1.05572652 140.28751152 C-1.06008334 128.31541081 -1.06797095 116.34331489 -1.0771528 104.37121702 C-1.08648901 92.09588779 -1.09205554 79.82056106 -1.09408849 67.54522842 C-1.09546379 59.96459392 -1.09981473 52.38397292 -1.10791647 44.80334257 C-1.11380422 39.00031515 -1.11445905 33.19729473 -1.11310768 27.39426422 C-1.11338421 25.00648604 -1.11539188 22.61870738 -1.11920547 20.23093224 C-1.12413597 16.98637875 -1.12300068 13.74188439 -1.12025452 10.49732971 C-1.12316736 9.53917832 -1.1260802 8.58102694 -1.12908131 7.59384066 C-1.11412121 1.11412121 -1.11412121 1.11412121 0 0 Z " fill="#542100" transform="translate(494,264)"/>
<path d="M0 0 C2.89115135 1.85057336 5.38730706 3.89387238 7.91015625 6.22265625 C6.92015625 6.55265625 5.93015625 6.88265625 4.91015625 7.22265625 C4.91015625 6.56265625 4.91015625 5.90265625 4.91015625 5.22265625 C-2.07043466 4.26453593 -9.0631086 3.72609612 -16.08984375 3.22265625 C-14.08984375 2.22265625 -12.08984375 1.22265625 -10.08984375 0.22265625 C-13.94000067 0.13311772 -17.33135452 0.43139536 -21.08984375 1.22265625 C-22.40984375 1.22265625 -23.72984375 1.22265625 -25.08984375 1.22265625 C-25.08984375 1.88265625 -25.08984375 2.54265625 -25.08984375 3.22265625 C-24.09984375 3.22265625 -23.10984375 3.22265625 -22.08984375 3.22265625 C-22.08984375 3.88265625 -22.08984375 4.54265625 -22.08984375 5.22265625 C-26.54484375 5.71765625 -26.54484375 5.71765625 -31.08984375 6.22265625 C-31.41984375 7.21265625 -31.74984375 8.20265625 -32.08984375 9.22265625 C-33.07984375 9.22265625 -34.06984375 9.22265625 -35.08984375 9.22265625 C-34.75984375 10.21265625 -34.42984375 11.20265625 -34.08984375 12.22265625 C-35.07984375 13.70765625 -35.07984375 13.70765625 -36.08984375 15.22265625 C-36.74984375 15.22265625 -37.40984375 15.22265625 -38.08984375 15.22265625 C-38.08984375 17.53265625 -38.08984375 19.84265625 -38.08984375 22.22265625 C-37.42984375 22.55265625 -36.76984375 22.88265625 -36.08984375 23.22265625 C-36.08984375 23.88265625 -36.08984375 24.54265625 -36.08984375 25.22265625 C-37.40984375 25.22265625 -38.72984375 25.22265625 -40.08984375 25.22265625 C-39.94818482 27.618802 -39.80165534 30.01448522 -39.65234375 32.41015625 C-39.61302734 33.08369141 -39.57371094 33.75722656 -39.53320312 34.45117188 C-39.3005681 38.11964727 -38.91777364 41.63959831 -38.08984375 45.22265625 C-37.42984375 45.22265625 -36.76984375 45.22265625 -36.08984375 45.22265625 C-35.75984375 47.20265625 -35.42984375 49.18265625 -35.08984375 51.22265625 C-39.85841084 47.6051226 -41.06430075 42.88543719 -42.08984375 37.22265625 C-43.00674874 26.39326492 -42.23524196 15.87234882 -35.08984375 7.22265625 C-25.1583459 -2.65294198 -13.39929037 -6.98766732 0 0 Z " fill="#DD7530" transform="translate(480.08984375,166.77734375)"/>
<path d="M0 0 C21.78 0 43.56 0 66 0 C70 18 70 18 69 22 C67.28391242 17.8216998 65.88313128 14.13082743 65.4375 9.625 C65.3738267 5.96230213 65.3738267 5.96230213 63 4 C63 3.01 63 2.02 63 1 C55.21134319 1.08429078 47.4228932 1.17912965 39.63453865 1.28752708 C36.01827982 1.3375243 32.40205068 1.38385371 28.78564453 1.421875 C25.29716911 1.45868502 21.80894014 1.50503264 18.3206749 1.55806351 C16.33871227 1.58568111 14.35661928 1.60335779 12.37454224 1.62094116 C10.57290115 1.6507457 10.57290115 1.6507457 8.73486328 1.68115234 C7.67341095 1.69447601 6.61195862 1.70779968 5.51834106 1.7215271 C2.83004968 1.75321281 2.83004968 1.75321281 1 4 C-0.27179307 7.74056785 -1.08824951 11.33475848 -1.5 15.25 C-2 19 -2 19 -4 22 C-4.58170702 24.04001421 -5.00449918 26.08407197 -5.4375 28.16015625 C-6 30 -6 30 -8 32 C-7.27194925 25.56585147 -5.65948552 19.43796789 -4 13.1875 C-3.72671875 12.13884766 -3.4534375 11.09019531 -3.171875 10.00976562 C-1.13686224 2.27372449 -1.13686224 2.27372449 0 0 Z " fill="#E57F35" transform="translate(253,170)"/>
<path d="M0 0 C0.66 0 1.32 0 2 0 C2.12117188 0.62648438 2.24234375 1.25296875 2.3671875 1.8984375 C2.53476562 2.71570313 2.70234375 3.53296875 2.875 4.375 C3.03742188 5.18710937 3.19984375 5.99921875 3.3671875 6.8359375 C3.86658932 9.18673923 3.86658932 9.18673923 6 11 C6.43241619 13.17338596 6.77547383 15.36518203 7.0625 17.5625 C7.2690002 21.60429852 7.2690002 21.60429852 9 25 C9.36760731 27.32817964 9.70241581 29.6618385 10 32 C10.66 32 11.32 32 12 32 C14.98383828 37.3938615 15.17766208 40.34291158 13.54296875 46.27734375 C13.36378906 46.84582031 13.18460937 47.41429687 13 48 C13.66 48 14.32 48 15 48 C15.33 52.29 15.66 56.58 16 61 C14.10192612 58.15288918 13.51316442 56.57690022 12.7734375 53.328125 C12.54994629 52.367854 12.32645508 51.40758301 12.09619141 50.41821289 C11.85819824 49.37270264 11.62020508 48.32719238 11.375 47.25 C8.61971465 35.42516034 5.62403363 23.67499652 2.54052734 11.93261719 C2.21004395 10.66708008 1.87956055 9.40154297 1.5390625 8.09765625 C1.24209473 6.96851807 0.94512695 5.83937988 0.63916016 4.67602539 C0 2 0 2 0 0 Z " fill="#E27831" transform="translate(334,448)"/>
<path d="M0 0 C0.93709808 0.02220612 1.87419617 0.04441223 2.83969116 0.06729126 C4.43111435 0.09754898 4.43111435 0.09754898 6.0546875 0.12841797 C7.7781691 0.17671249 7.7781691 0.17671249 9.53646851 0.22598267 C10.71002899 0.25100861 11.88358948 0.27603455 13.0927124 0.30181885 C16.85289619 0.38420154 20.61256899 0.48072121 24.37240601 0.57754517 C26.91665575 0.63576598 29.46092665 0.69306964 32.00521851 0.74942017 C38.25289916 0.88980756 44.50021747 1.04181296 50.74740601 1.20254517 C50.74740601 1.86254517 50.74740601 2.52254517 50.74740601 3.20254517 C32.92740601 3.20254517 15.10740601 3.20254517 -3.25259399 3.20254517 C-3.25259399 5.51254517 -3.25259399 7.82254517 -3.25259399 10.20254517 C-3.58259399 10.20254517 -3.91259399 10.20254517 -4.25259399 10.20254517 C-4.44790649 4.14785767 -4.44790649 4.14785767 -4.25259399 2.20254517 C-2.25259399 0.20254517 -2.25259399 0.20254517 0 0 Z " fill="#4D1F00" transform="translate(442.2525939941406,261.7974548339844)"/>
<path d="M0 0 C2.4397071 3.65956065 3.30600907 7.35716157 4.375 11.5625 C4.59269043 12.40224365 4.81038086 13.2419873 5.03466797 14.10717773 C6.70933271 20.64986903 8.19361873 27.22648579 9.61181641 33.82885742 C10.66099642 38.6592995 11.90457801 43.36571558 13.484375 48.0546875 C14 50 14 50 14 54 C13.34 54 12.68 54 12 54 C11.67 52.68 11.34 51.36 11 50 C10.34 51.32 9.68 52.64 9 54 C8 53 8 53 7.875 50 C8 47 8 47 9 46 C8.51743548 40.4987645 7.37884164 35.34339659 6 30 C5.66614517 28.69023698 5.33280265 27.38034326 5 26.0703125 C4.8359668 25.42481445 4.67193359 24.77931641 4.50292969 24.11425781 C0 6.30364078 0 6.30364078 0 0 Z " fill="#D67333" transform="translate(360,338)"/>
<path d="M0 0 C0.33 0 0.66 0 1 0 C1.33768172 3.06203674 1.66936893 6.12469458 2 9.1875 C2.09539062 10.05181641 2.19078125 10.91613281 2.2890625 11.80664062 C2.72690189 15.88792925 3.13621913 19.88788502 3 24 C2.34 24.33 1.68 24.66 1 25 C0.01 23.02 -0.98 21.04 -2 19 C-3.32 24.28 -4.64 29.56 -6 35 C-6.66 35 -7.32 35 -8 35 C-7.40613113 29.12136548 -6.22916035 23.72331432 -4.5625 18.0625 C-2.82249657 12.07833389 -1.28418383 6.09964759 0 0 Z " fill="#DB7630" transform="translate(215,317)"/>
<path d="M0 0 C0.33 0 0.66 0 1 0 C1.33 3.63 1.66 7.26 2 11 C1.34 11 0.68 11 0 11 C0 11.99 0 12.98 0 14 C16.17 14 32.34 14 49 14 C49 14.33 49 14.66 49 15 C31.51 15 14.02 15 -4 15 C-1 1 -1 1 0 0 Z " fill="#D77734" transform="translate(170,497)"/>
<path d="M0 0 C0.99 0 1.98 0 3 0 C3.103125 0.763125 3.20625 1.52625 3.3125 2.3125 C3.74332384 5.04397941 3.74332384 5.04397941 5.625 6.4375 C6.07875 6.953125 6.5325 7.46875 7 8 C6.84660156 8.87914062 6.69320313 9.75828125 6.53515625 10.6640625 C5.42038955 17.61304618 7.07279512 25.35961499 9.125 32.0625 C9.96581737 34.88524403 10.17714175 37.07716118 10 40 C7.25177406 37.25177406 6.89424109 34.18298389 6.0546875 30.5078125 C5.7925798 29.39428909 5.7925798 29.39428909 5.525177 28.25827026 C5.15703834 26.68714792 4.79245459 25.11518901 4.43115234 23.54248047 C3.87832225 21.13944115 3.31313906 18.73956372 2.74609375 16.33984375 C2.38988529 14.81267235 2.03439288 13.28533371 1.6796875 11.7578125 C1.51097137 11.04102325 1.34225525 10.32423401 1.16842651 9.58572388 C0.41101596 6.26483864 0 3.43068462 0 0 Z " fill="#E87A2A" transform="translate(305,314)"/>
<path d="M0 0 C1.61967273 3.23934545 2.46427972 5.47976752 3.21875 8.921875 C3.42886719 9.86546875 3.63898438 10.8090625 3.85546875 11.78125 C4.06816406 12.7609375 4.28085937 13.740625 4.5 14.75 C4.92627994 16.68246906 5.3533504 18.61476393 5.78125 20.546875 C5.98363281 21.47435547 6.18601562 22.40183594 6.39453125 23.35742188 C6.94146339 25.74451604 7.56695857 28.0931151 8.21875 30.453125 C8.95704225 33.80497181 8.95780991 34.89649139 8 38 C7.01 37.67 6.02 37.34 5 37 C4.67 32.38 4.34 27.76 4 23 C3.34 23 2.68 23 2 23 C1.34 19.04 0.68 15.08 0 11 C-0.99 11.495 -0.99 11.495 -2 12 C-1.34 8.04 -0.68 4.08 0 0 Z " fill="#431D07" transform="translate(294,272)"/>
<path d="M0 0 C0.66 0 1.32 0 2 0 C1.41601167 5.30245276 0.53979816 10.31841659 -0.77734375 15.5 C-1.03445885 16.5199707 -1.03445885 16.5199707 -1.29676819 17.56054688 C-1.83921089 19.70819287 -2.38819424 21.85410035 -2.9375 24 C-3.30187399 25.4373881 -3.6658096 26.87488741 -4.02929688 28.3125 C-4.7016378 30.9694599 -5.37698116 33.62558444 -6.05444336 36.28125 C-7.04701509 40.18490417 -8.02538889 44.09182837 -9 48 C-9.33 48 -9.66 48 -10 48 C-9.85845864 45.43719792 -9.71191438 42.87484515 -9.5625 40.3125 C-9.52318359 39.59126953 -9.48386719 38.87003906 -9.44335938 38.12695312 C-9.21814322 34.33292718 -8.87160695 30.71348508 -8 27 C-7.01 26.67 -6.02 26.34 -5 26 C-5.03996094 25.154375 -5.07992187 24.30875 -5.12109375 23.4375 C-4.98773063 19.65170822 -4.17640815 16.61524639 -3.0625 13 C-1.73722682 8.66792422 -0.6496919 4.48629354 0 0 Z " fill="#441A03" transform="translate(196,384)"/>
<path d="M0 0 C0.66 0 1.32 0 2 0 C2.26554687 1.26457031 2.53109375 2.52914063 2.8046875 3.83203125 C3.16112079 5.49226 3.5179102 7.15241233 3.875 8.8125 C4.04902344 9.64587891 4.22304688 10.47925781 4.40234375 11.33789062 C4.66337891 12.54155273 4.66337891 12.54155273 4.9296875 13.76953125 C5.08679199 14.50792236 5.24389648 15.24631348 5.40576172 16.00708008 C5.9794484 18.28747807 5.9794484 18.28747807 8 21 C8.07905064 23.33199388 8.08798769 25.66832622 8 28 C8.66 28 9.32 28 10 28 C10.20496094 29.07121094 10.40992188 30.14242188 10.62109375 31.24609375 C10.89302709 32.64326851 11.16517352 34.04040181 11.4375 35.4375 C11.57220703 36.14455078 11.70691406 36.85160156 11.84570312 37.58007812 C12.28406898 41.08429264 12.28406898 41.08429264 14 44 C14.07205511 45.68608966 14.08386068 47.37500659 14.0625 49.0625 C14.05347656 49.98160156 14.04445313 50.90070313 14.03515625 51.84765625 C14.02355469 52.55792969 14.01195312 53.26820313 14 54 C13.67 54 13.34 54 13 54 C12.80889648 53.20529297 12.61779297 52.41058594 12.42089844 51.59179688 C11.53132867 47.89435528 10.6409613 44.19710648 9.75 40.5 C9.59004547 39.8361731 9.43009094 39.17234619 9.26528931 38.48840332 C7.43622014 30.90130697 5.59828743 23.31702273 3.6875 15.75 C2.36780498 10.51653135 1.13087759 5.27742874 0 0 Z " fill="#441B02" transform="translate(345,276)"/>
<path d="M0 0 C1.63729107 2.4559366 2.58025878 4.28469444 3.5625 7 C3.81128906 7.680625 4.06007813 8.36125 4.31640625 9.0625 C5.24583036 11.69675347 6.11665872 14.34997615 7 17 C7 14.69 7 12.38 7 10 C7.66 10 8.32 10 9 10 C9.33 13.96 9.66 17.92 10 22 C9.01 22 8.02 22 7 22 C7.33 22.66 7.66 23.32 8 24 C8.13415472 26.6723621 8.04318541 29.32250488 8 32 C6.30682826 28.90391452 5.35072987 25.91808977 4.4921875 22.5 C4.22792969 21.448125 3.96367187 20.39625 3.69140625 19.3125 C3.42199219 18.219375 3.15257812 17.12625 2.875 16 C2.59785156 14.906875 2.32070313 13.81375 2.03515625 12.6875 C1.64263672 11.1096875 1.64263672 11.1096875 1.2421875 9.5 C1.0035498 8.5409375 0.76491211 7.581875 0.51904297 6.59375 C0 4 0 4 0 0 Z " fill="#3B1906" transform="translate(389,448)"/>
<path d="M0 0 C3.8133041 3.8133041 2.43699238 10.39521858 2.43823242 15.53686523 C2.27159154 24.52886587 0.44379433 30.56482852 -5.8125 37.125 C-6.8953125 38.053125 -6.8953125 38.053125 -8 39 C-7.505 36.03 -7.505 36.03 -7 33 C-6.34 33 -5.68 33 -5 33 C-4.87625 32.360625 -4.7525 31.72125 -4.625 31.0625 C-4.41875 30.381875 -4.2125 29.70125 -4 29 C-3.34 28.67 -2.68 28.34 -2 28 C-0.93980216 21.87753302 -0.71235921 15.7001028 -0.4375 9.5 C-0.37272461 8.12328125 -0.37272461 8.12328125 -0.30664062 6.71875 C-0.20166544 4.47927939 -0.09950752 2.23971908 0 0 Z " fill="#DB7835" transform="translate(493,184)"/>
<path d="M0 0 C0.33 0 0.66 0 1 0 C1.08089542 2.77141717 1.14044062 5.54047819 1.1875 8.3125 C1.22520508 9.49102539 1.22520508 9.49102539 1.26367188 10.69335938 C1.27817383 11.8293457 1.27817383 11.8293457 1.29296875 12.98828125 C1.31653442 14.03302612 1.31653442 14.03302612 1.34057617 15.09887695 C0.90124078 17.55128178 -0.22544803 18.32110178 -2 20 C-2.04165365 21.66614608 -2.04165365 23.33385392 -2 25 C-2.66 25.99 -3.32 26.98 -4 28 C-4.495 29.794375 -4.495 29.794375 -5 31.625 C-5.33 32.73875 -5.66 33.8525 -6 35 C-6.99 35.495 -6.99 35.495 -8 36 C-7.37385628 29.3785302 -5.82683534 23.26030655 -4 16.875 C-1.59499531 8.5291785 -1.59499531 8.5291785 0 0 Z " fill="#D8732F" transform="translate(180,454)"/>
<path d="M0 0 C14.74643149 -0.80925539 14.74643149 -0.80925539 21 4 C23.5 6.75 23.5 6.75 25 9 C24.01 9 23.02 9 22 9 C22 8.34 22 7.68 22 7 C15.01940909 6.04187968 8.02673515 5.50343987 1 5 C3 4 5 3 7 2 C4.69 1.67 2.38 1.34 0 1 C0 0.67 0 0.34 0 0 Z " fill="#EA792D" transform="translate(463,165)"/>
<path d="M0 0 C0.99 0 1.98 0 3 0 C3 0.66 3 1.32 3 2 C4.32 1.67 5.64 1.34 7 1 C7.33 2.65 7.66 4.3 8 6 C10.97 6.33 13.94 6.66 17 7 C17 7.33 17 7.66 17 8 C21.95 8 26.9 8 32 8 C26.62268381 11.58487746 22.38813113 11.59424476 16 11 C9.75748522 9.38222152 5.08452277 7.00683436 1 2 C0.67 1.34 0.34 0.68 0 0 Z " fill="#D3712F" transform="translate(445,219)"/>
<path d="M0 0 C4.90445058 1.13179629 7.68420809 2.19297966 11 6 C11.66 6.33 12.32 6.66 13 7 C13 7.66 13 8.32 13 9 C13.66 9 14.32 9 15 9 C15 9.66 15 10.32 15 11 C16.485 11.495 16.485 11.495 18 12 C17.34 12.99 16.68 13.98 16 15 C15.01 13.63875 15.01 13.63875 14 12.25 C10.28505748 7.76022661 5.42364559 5.80788186 0 4 C-2.73865287 3.92948886 -5.45027588 3.90642235 -8.1875 3.9375 C-9.31188477 3.94426758 -9.31188477 3.94426758 -10.45898438 3.95117188 C-12.30602383 3.96293646 -14.15302213 3.98087135 -16 4 C-16 3.34 -16 2.68 -16 2 C-11.54077774 1.08528774 -7.38007185 0.94123761 -2.85546875 1.0625 C-0.98322445 1.21085816 -0.98322445 1.21085816 0 0 Z " fill="#461D05" transform="translate(473,161)"/>
<path d="M0 0 C0.66 0 1.32 0 2 0 C2.33 2.64 2.66 5.28 3 8 C3.66 8 4.32 8 5 8 C6.68946164 12.55942578 7.49143129 16.86460881 8.0625 21.6875 C8.67206627 26.92471672 8.67206627 26.92471672 10 32 C10.03954234 34.33299825 10.04401732 36.66708189 10 39 C7.91009565 35.36270677 7.01301045 31.50516468 6.0546875 27.4609375 C5.87994904 26.73887115 5.70521057 26.01680481 5.525177 25.27285767 C5.1581976 23.75212084 4.79356964 22.23081488 4.43115234 20.70898438 C3.87498528 18.37493821 3.31115185 16.0428454 2.74609375 13.7109375 C2.39017427 12.23187922 2.03469036 10.75271605 1.6796875 9.2734375 C1.42661331 8.22499161 1.42661331 8.22499161 1.16842651 7.15536499 C0 2.23247933 0 2.23247933 0 0 Z " fill="#451B03" transform="translate(334,232)"/>
<path d="M0 0 C0.33 0 0.66 0 1 0 C1.05399736 1.45792884 1.09279177 2.91642712 1.125 4.375 C1.14820313 5.18710937 1.17140625 5.99921875 1.1953125 6.8359375 C1 9 1 9 -1 11 C-1.6425235 13.06874034 -1.6425235 13.06874034 -2 15 C-1.01 14.67 -0.02 14.34 1 14 C0.25 20.625 0.25 20.625 -2 24 C-2.67076489 21.23010036 -3.33676317 18.45920258 -4 15.6875 C-4.19078125 14.90181641 -4.3815625 14.11613281 -4.578125 13.30664062 C-4.75859375 12.54931641 -4.9390625 11.79199219 -5.125 11.01171875 C-5.29257812 10.31522217 -5.46015625 9.61872559 -5.6328125 8.90112305 C-6 7 -6 7 -6 4 C-5.34 4 -4.68 4 -4 4 C-3.67 5.65 -3.34 7.3 -3 9 C-2.01 6.03 -1.02 3.06 0 0 Z " fill="#391A05" transform="translate(365,326)"/>
<path d="M0 0 C0.66 0 1.32 0 2 0 C0.29830289 8.08306125 -1.83713681 16.03100406 -4 24 C-4.33 24 -4.66 24 -5 24 C-4.67 19.71 -4.34 15.42 -4 11 C-4.66 11 -5.32 11 -6 11 C-6 9.02 -6 7.04 -6 5 C-5.38125 4.731875 -4.7625 4.46375 -4.125 4.1875 C-1.7004767 3.04443152 -1.7004767 3.04443152 0 0 Z " fill="#371804" transform="translate(248,181)"/>
<path d="M0 0 C2 2 2 2 2.08203125 3.91796875 C1.46323393 9.12842156 0.1113499 13.16148982 -2 18 C-2.23412707 19.34688831 -2.42086159 20.70277129 -2.5625 22.0625 C-2.96332277 25.6699049 -3.73154449 28.61745196 -5 32 C-5.66 32 -6.32 32 -7 32 C-6.32646876 24.97481339 -4.69695944 18.3255596 -2.9375 11.5 C-2.65583984 10.39140625 -2.37417969 9.2828125 -2.08398438 8.140625 C-1.39361604 5.4259563 -0.69885625 2.71249362 0 0 Z " fill="#D67533" transform="translate(198,384)"/>
<path d="M0 0 C0.66 0 1.32 0 2 0 C2.99991091 3.95025596 3.99674696 7.90127363 4.99072266 11.85302734 C5.32939287 13.19764226 5.66890698 14.54204491 6.00927734 15.88623047 C6.49798109 17.816824 6.98341312 19.74824481 7.46875 21.6796875 C7.76201172 22.84226074 8.05527344 24.00483398 8.35742188 25.20263672 C9 28 9 28 9 30 C8.01 29.67 7.02 29.34 6 29 C5.67 27.35 5.34 25.7 5 24 C4.67 24 4.34 24 4 24 C3.92652344 23.06027344 3.92652344 23.06027344 3.8515625 22.1015625 C3.77679688 21.28429687 3.70203125 20.46703125 3.625 19.625 C3.55539062 18.81289062 3.48578125 18.00078125 3.4140625 17.1640625 C3.17107412 14.79665809 3.17107412 14.79665809 1 13 C0.875 9.875 0.875 9.875 1 7 C0.67 7 0.34 7 0 7 C0 4.69 0 2.38 0 0 Z " fill="#D3722C" transform="translate(323,194)"/>
<path d="M0 0 C-0.165 1.0725 -0.33 2.145 -0.5 3.25 C-1.08810915 7.03028752 -1.08810915 7.03028752 -1 11 C-1.1875 13.0625 -1.1875 13.0625 -2 15 C-4.3125 16.875 -4.3125 16.875 -7 18 C-9.3125 17.1875 -9.3125 17.1875 -11 16 C-8 14 -8 14 -5 14 C-5.185625 13.38125 -5.37125 12.7625 -5.5625 12.125 C-6 10 -6 10 -5 8 C-5.0928125 6.7934375 -5.0928125 6.7934375 -5.1875 5.5625 C-5 3 -5 3 -3.0625 1.1875 C-1 0 -1 0 0 0 Z " fill="#EE7927" transform="translate(487,209)"/>
<path d="M0 0 C1.2769545 3.63940216 0.72337064 6.2261944 -0.14453125 9.9375 C-0.40943359 11.07960938 -0.67433594 12.22171875 -0.94726562 13.3984375 C-1.23279297 14.58695312 -1.51832031 15.77546875 -1.8125 17 C-2.08642578 18.18851562 -2.36035156 19.37703125 -2.64257812 20.6015625 C-4.90815823 30.22891966 -4.90815823 30.22891966 -7 34 C-7.19781317 28.27618031 -6.61593244 23.55312638 -5.0625 18.0625 C-3.85350137 13.57647878 -2.76936559 9.2055968 -2.375 4.5625 C-2.189375 2.7990625 -2.189375 2.7990625 -2 1 C-1.34 0.67 -0.68 0.34 0 0 Z " fill="#D97935" transform="translate(263,310)"/>
<path d="M0 0 C2.57362486 1.28681243 2.89141062 2.38095758 4 5 C6.35680432 13.88711629 8.23796239 23.80445348 8 33 C6.25569739 29.83674718 5.33607415 26.78775425 4.4921875 23.28125 C4.22792969 22.18425781 3.96367187 21.08726562 3.69140625 19.95703125 C3.28728516 18.24580078 3.28728516 18.24580078 2.875 16.5 C2.59785156 15.35917969 2.32070313 14.21835937 2.03515625 13.04296875 C0 4.51135314 0 4.51135314 0 0 Z " fill="#E17A33" transform="translate(297,281)"/>
<path d="M0 0 C0.33 0 0.66 0 1 0 C1 2.97 1 5.94 1 9 C1.66 9 2.32 9 3 9 C3 10.65 3 12.3 3 14 C2.34 13.01 1.68 12.02 1 11 C0.01 11.495 0.01 11.495 -1 12 C-1.41938448 14.2774907 -1.73652005 16.57425544 -2 18.875 C-2.61261636 24.20257445 -3.12071182 27.12071182 -7 31 C-6.24861106 24.37065709 -4.58871479 18.01794529 -2.9375 11.5625 C-2.65583984 10.44939453 -2.37417969 9.33628906 -2.08398438 8.18945312 C-1.39253227 5.45880329 -0.69778507 2.72903708 0 0 Z " fill="#C96E32" transform="translate(234,242)"/>
<path d="M0 0 C1.125 3.75 1.125 3.75 0 6 C0.66 6 1.32 6 2 6 C2.33 4.68 2.66 3.36 3 2 C3.390625 7.859375 3.390625 7.859375 3 10 C2.360625 10.61875 1.72125 11.2375 1.0625 11.875 C-1.58574345 14.60349325 -1.76366197 16.52140847 -2.25 20.25 C-2.39953125 21.32765625 -2.5490625 22.4053125 -2.703125 23.515625 C-2.80109375 24.33546875 -2.8990625 25.1553125 -3 26 C-3.66 26 -4.32 26 -5 26 C-4.56901343 17.03547936 -2.30110566 8.62647053 0 0 Z " fill="#4A1E06" transform="translate(267,298)"/>
<path d="M0 0 C2.4573693 2.35052716 3.92101294 3.76302282 4.14526367 7.27490234 C4.16976548 10.30838387 4.18565923 13.34141165 4.1875 16.375 C4.19974609 17.42945313 4.21199219 18.48390625 4.22460938 19.5703125 C4.22750977 21.09398437 4.22750977 21.09398437 4.23046875 22.6484375 C4.23457764 23.57833496 4.23868652 24.50823242 4.24291992 25.46630859 C3.98998437 28.10446455 3.33957019 29.73630225 2 32 C1.67 31.34 1.34 30.68 1 30 C1.33 29.01 1.66 28.02 2 27 C2.1418907 25.31641225 2.22014505 23.62679257 2.25 21.9375 C2.28867187 20.62072266 2.28867187 20.62072266 2.328125 19.27734375 C2.16570312 18.15005859 2.16570312 18.15005859 2 17 C1.01 16.34 0.02 15.68 -1 15 C-0.67 12.69 -0.34 10.38 0 8 C0.99 9.485 0.99 9.485 2 11 C1.855625 10.29875 1.71125 9.5975 1.5625 8.875 C0.98521625 5.92443859 0.48304859 2.96729849 0 0 Z " fill="#EA782B" transform="translate(489,176)"/>
<path d="M0 0 C2.44508982 2.44508982 2.6578807 4.00041365 3.4375 7.34765625 C3.69273437 8.42853516 3.94796875 9.50941406 4.2109375 10.62304688 C4.47132813 11.75806641 4.73171875 12.89308594 5 14.0625 C5.26039063 15.17044922 5.52078125 16.27839844 5.7890625 17.41992188 C7.23714709 23.6035356 8.63481637 29.79760321 10 36 C9.34 36 8.68 36 8 36 C7.79503906 35.14535156 7.59007812 34.29070312 7.37890625 33.41015625 C7.10949219 32.30542969 6.84007812 31.20070313 6.5625 30.0625 C6.29566406 28.96035156 6.02882813 27.85820312 5.75390625 26.72265625 C5.27004275 24.10578746 5.27004275 24.10578746 4 23 C3.6503697 21.4663276 3.34533014 19.92238472 3.0625 18.375 C2.46893196 15.24203186 1.79392998 12.31309992 0.875 9.25 C0.00286695 6.01064867 -0.16273478 3.33606304 0 0 Z " fill="#D67534" transform="translate(343,272)"/>
<path d="M0 0 C0.99 0 1.98 0 3 0 C2.51298949 7.59064664 1.00236413 14.67059167 -1 22 C-1.33 22 -1.66 22 -2 22 C-2 16.72 -2 11.44 -2 6 C-1.34 6 -0.68 6 0 6 C0 4.02 0 2.04 0 0 Z " fill="#E07731" transform="translate(236,426)"/>
<path d="M0 0 C2.93891527 3.9185537 3.73424558 5.96296762 4.859375 10.59375 C5.32537109 12.50994141 5.32537109 12.50994141 5.80078125 14.46484375 C5.95627441 15.12726074 6.11176758 15.78967773 6.27197266 16.47216797 C6.7492571 18.49684856 7.2465516 20.51586641 7.74609375 22.53515625 C10.33550274 33.36260058 10.33550274 33.36260058 9 37 C8.85377197 36.42967041 8.70754395 35.85934082 8.55688477 35.27172852 C7.89565885 32.70105211 7.22915229 30.13177426 6.5625 27.5625 C6.33240234 26.66466797 6.10230469 25.76683594 5.86523438 24.84179688 C5.53168945 23.56079102 5.53168945 23.56079102 5.19140625 22.25390625 C4.98717041 21.46314697 4.78293457 20.6723877 4.57250977 19.85766602 C4.15967047 18.0038412 4.15967047 18.0038412 3 17 C2.95907063 14.66702567 2.95758277 12.33294775 3 10 C2.34 10 1.68 10 1 10 C0.67 6.7 0.34 3.4 0 0 Z " fill="#D67636" transform="translate(332,230)"/>
<path d="M0 0 C0.12375 0.639375 0.2475 1.27875 0.375 1.9375 C0.684375 2.9584375 0.684375 2.9584375 1 4 C1.66 4.33 2.32 4.66 3 5 C2.34 5 1.68 5 1 5 C0.01 10.61 -0.98 16.22 -2 22 C-2.33 22 -2.66 22 -3 22 C-4.10496095 13.44856307 -4.85853514 7.36141688 0 0 Z " fill="#E6772F" transform="translate(282,216)"/>
<path d="M0 0 C1.55373847 3.10747694 0.58528628 5.74226527 0.0625 9.125 C-0.13214844 10.40632812 -0.32679688 11.68765625 -0.52734375 13.0078125 C-0.76130859 14.48894531 -0.76130859 14.48894531 -1 16 C-1.66 16 -2.32 16 -3 16 C-3 17.65 -3 19.3 -3 21 C-3.66 21.33 -4.32 21.66 -5 22 C-5 17.71 -5 13.42 -5 9 C-4.34 9 -3.68 9 -3 9 C-2.87625 7.88625 -2.7525 6.7725 -2.625 5.625 C-2 2 -2 2 0 0 Z " fill="#371806" transform="translate(439,184)"/>
<path d="M0 0 C1.42767443 2.79189666 2.70786227 5.61603038 3.9375 8.5 C5.33074728 11.67785616 6.82463561 14.28079451 9 17 C9 17.66 9 18.32 9 19 C9.99 19.33 10.98 19.66 12 20 C11.01 20.33 10.02 20.66 9 21 C8.34 20.67 7.68 20.34 7 20 C7 19.34 7 18.68 7 18 C6.01 18 5.02 18 4 18 C1.13035626 11.74827614 -0.51137226 6.90352555 0 0 Z " fill="#441B05" transform="translate(438,204)"/>
<path d="M0 0 C0.66 0.33 1.32 0.66 2 1 C1.79503906 1.6290625 1.59007812 2.258125 1.37890625 2.90625 C0.0648538 7.08103865 -1.12353084 11.07219562 -1.5625 15.4375 C-2 19 -2 19 -4 22 C-4.58170702 24.04001421 -5.00449918 26.08407197 -5.4375 28.16015625 C-6 30 -6 30 -8 32 C-7.27194925 25.56585147 -5.65948552 19.43796789 -4 13.1875 C-3.72671875 12.13884766 -3.4534375 11.09019531 -3.171875 10.00976562 C-1.13686224 2.27372449 -1.13686224 2.27372449 0 0 Z " fill="#D07636" transform="translate(253,170)"/>
<path d="M0 0 C0.66 0 1.32 0 2 0 C6.40774487 16.70842825 6.40774487 16.70842825 7 25 C7.66 25 8.32 25 9 25 C8.67 26.98 8.34 28.96 8 31 C7.67 31 7.34 31 7 31 C6.01737335 26.95916652 5.03951265 22.9171942 4.0625 18.875 C3.78470703 17.73289062 3.50691406 16.59078125 3.22070312 15.4140625 C2.81948242 13.75117188 2.81948242 13.75117188 2.41015625 12.0546875 C2.16402588 11.03874512 1.91789551 10.02280273 1.66430664 8.97607422 C0.99904673 5.99572937 0.47385636 3.01616457 0 0 Z " fill="#3E1902" transform="translate(370,374)"/>
<path d="M0 0 C2.42130331 3.63195496 2.21022785 5.38349348 2.125 9.6875 C2.10695312 10.86699219 2.08890625 12.04648437 2.0703125 13.26171875 C2.03550781 14.61716797 2.03550781 14.61716797 2 16 C1.34 16.33 0.68 16.66 0 17 C-0.33 16.34 -0.66 15.68 -1 15 C-1.99 15.495 -1.99 15.495 -3 16 C-2.40984815 10.49191603 -1.43336231 5.35121931 0 0 Z " fill="#3F1E07" transform="translate(234,448)"/>
<path d="M0 0 C0.66 0 1.32 0 2 0 C2.53160457 2.41474617 3.05054766 4.83108107 3.5625 7.25 C3.71396484 7.93191406 3.86542969 8.61382812 4.02148438 9.31640625 C4.75233495 12.81769038 5.32203546 15.60298173 4 19 C2.92474806 16.34771188 1.90543849 13.71631546 1 11 C0.01 11.33 -0.98 11.66 -2 12 C-1.85904936 10.3745692 -1.71207913 8.74965949 -1.5625 7.125 C-1.48128906 6.22007812 -1.40007812 5.31515625 -1.31640625 4.3828125 C-1 2 -1 2 0 0 Z " fill="#511E05" transform="translate(283,221)"/>
<path d="M0 0 C1.27079419 2.88816861 0.93629246 4.22509998 0.0625 7.3125 C-2.16079274 11.97034859 -5.61017903 15.33744536 -10 18 C-13.03132822 18.79302549 -15.87281117 19.05067204 -19 19 C-16 17 -16 17 -13.94921875 16.02734375 C-7.59753893 12.96668974 -4.26201537 9.22112932 -1 3 C-0.67 2.01 -0.34 1.02 0 0 Z " fill="#461D03" transform="translate(493,210)"/>
<path d="M0 0 C2.16653205 3.76447198 3.13943748 7.82288441 4.1875 12 C4.37763672 12.7115625 4.56777344 13.423125 4.76367188 14.15625 C6.39167253 20.59616401 6.39167253 20.59616401 5 24 C4.67 24 4.34 24 4 24 C3.52260119 22.32910416 3.04667653 20.65777333 2.578125 18.984375 C2.05936158 17.20375463 1.47142265 15.44363337 0.875 13.6875 C-0.22371696 9.0571928 -0.17141386 4.73292725 0 0 Z " fill="#D8742E" transform="translate(379,412)"/>
<path d="M0 0 C0.66 0.33 1.32 0.66 2 1 C2 8.26 2 15.52 2 23 C1.01 23.33 0.02 23.66 -1 24 C-0.67 16.08 -0.34 8.16 0 0 Z " fill="#4C1D02" transform="translate(495,186)"/>
<path d="M0 0 C2.64 0 5.28 0 8 0 C8.6986179 2.91440599 9.3842031 5.83086087 10.0625 8.75 C10.26166016 9.575 10.46082031 10.4 10.66601562 11.25 C10.84970703 12.04921875 11.03339844 12.8484375 11.22265625 13.671875 C11.48187866 14.77160645 11.48187866 14.77160645 11.74633789 15.89355469 C12.02424428 18.20132783 11.69809241 19.79916037 11 22 C9.28391242 17.8216998 7.88313128 14.13082743 7.4375 9.625 C7.3738267 5.96230213 7.3738267 5.96230213 5 4 C5 3.01 5 2.02 5 1 C3.35 1 1.7 1 0 1 C0 0.67 0 0.34 0 0 Z " fill="#D57634" transform="translate(311,170)"/>
<path d="M0 0 C1.9375 0.9375 1.9375 0.9375 4 3 C4.49321986 5.35980192 4.68797168 7.63332845 4.82421875 10.0390625 C4.78901896 12.00273558 4.78901896 12.00273558 6 13 C6.07205511 14.68608966 6.08386068 16.37500659 6.0625 18.0625 C6.05347656 18.98160156 6.04445313 19.90070313 6.03515625 20.84765625 C6.02355469 21.55792969 6.01195312 22.26820313 6 23 C3.81124001 19.22389606 2.89606304 15.13898531 1.875 10.9375 C1.69324219 10.21755859 1.51148438 9.49761719 1.32421875 8.75585938 C0.58563412 5.76542463 0 3.09200343 0 0 Z " fill="#DE7B37" transform="translate(327,419)"/>
<path d="M0 0 C2.16653205 3.76447198 3.13943748 7.82288441 4.1875 12 C4.37763672 12.7115625 4.56777344 13.423125 4.76367188 14.15625 C6.39167253 20.59616401 6.39167253 20.59616401 5 24 C5 23.34 5 22.68 5 22 C4.01 21.67 3.02 21.34 2 21 C2.04125 19.96875 2.0825 18.9375 2.125 17.875 C2.19156258 14.0947903 2.19156258 14.0947903 1 11.0625 C-0.26839428 7.17804251 -0.1404176 4.07211051 0 0 Z " fill="#562407" transform="translate(326,418)"/>
<path d="M0 0 C1.55362598 3.10725196 0.18920857 5.24356226 -0.8125 8.5 C-2.54016551 14.29873891 -3.95672829 20.04236947 -5 26 C-5.33 26 -5.66 26 -6 26 C-6.19466971 20.45191339 -5.59824957 16.35883679 -4 11 C-3.75064666 8.63893556 -3.56790026 6.28871128 -3.44140625 3.91796875 C-3 2 -3 2 0 0 Z " fill="#4C1B02" transform="translate(184,438)"/>
<path d="M0 0 C0.33 0 0.66 0 1 0 C1.33 3.63 1.66 7.26 2 11 C1.34 11 0.68 11 0 11 C0 11.99 0 12.98 0 14 C-0.99 14 -1.98 14 -3 14 C-2.58846263 9.02906176 -2.20399168 4.55491614 0 0 Z " fill="#F07927" transform="translate(170,497)"/>
<path d="M0 0 C0.33 0 0.66 0 1 0 C0.39700836 7.23589973 -1.1150587 13.99370876 -3 21 C-3.33 21 -3.66 21 -4 21 C-4.22331199 19.41870971 -4.42804644 17.83478911 -4.625 16.25 C-4.74101562 15.36828125 -4.85703125 14.4865625 -4.9765625 13.578125 C-5.00207817 10.77140122 -4.44843844 9.36615134 -3 7 C-2.34 7 -1.68 7 -1 7 C-0.67 4.69 -0.34 2.38 0 0 Z " fill="#431B03" transform="translate(208,339)"/>
<path d="M0 0 C0.33 0.66 0.66 1.32 1 2 C1.66 2 2.32 2 3 2 C3.12117188 2.92941406 3.24234375 3.85882813 3.3671875 4.81640625 C4.31906947 12.5264913 4.31906947 12.5264913 6.125 20.0625 C6.96581737 22.88524403 7.17714175 25.07716118 7 28 C4.64049442 25.64049442 4.43371529 24.34990524 3.7109375 21.1328125 C3.49179687 20.16472656 3.27265625 19.19664062 3.046875 18.19921875 C2.82515625 17.18472656 2.6034375 16.17023438 2.375 15.125 C2.14554687 14.11824219 1.91609375 13.11148437 1.6796875 12.07421875 C0.75090894 7.91130057 0 4.28708442 0 0 Z " fill="#D37836" transform="translate(308,326)"/>
<path d="M0 0 C2.1257443 2.90569365 1.97321906 4.22604933 1.5390625 7.890625 C1.24788408 9.34651712 0.94273948 10.79967302 0.625 12.25 C0.47289062 12.99507813 0.32078125 13.74015625 0.1640625 14.5078125 C-0.21198391 16.34103877 -0.60440246 18.1708931 -1 20 C-1.99 19.67 -2.98 19.34 -4 19 C-3.00318287 12.54189755 -1.98363508 6.23428168 0 0 Z " fill="#451B04" transform="translate(261,324)"/>
<path d="M0 0 C1.48478748 2.96957496 0.44702974 4.89881672 -0.375 8.0625 C-0.65085938 9.14660156 -0.92671875 10.23070312 -1.2109375 11.34765625 C-2 14 -2 14 -3 15 C-4.66617115 15.04063832 -6.33388095 15.042721 -8 15 C-7.64731891 11.82587019 -6.91379278 10.91600322 -4.5625 8.625 C-1.8052641 5.80051445 -0.96594229 3.77595622 0 0 Z " fill="#E6772C" transform="translate(222,496)"/>
<path d="M0 0 C0.33 0 0.66 0 1 0 C0.8590651 2.43787385 0.71245458 4.87517853 0.5625 7.3125 C0.50352539 8.34793945 0.50352539 8.34793945 0.44335938 9.40429688 C0.25072585 12.47161535 -0.02322717 15.06968152 -1 18 C-1.99 18 -2.98 18 -4 18 C-3.52319861 15.56201552 -3.04365871 13.12462484 -2.5625 10.6875 C-2.42779297 9.99720703 -2.29308594 9.30691406 -2.15429688 8.59570312 C-1.57225668 5.65710993 -0.94847772 2.84543315 0 0 Z " fill="#D67231" transform="translate(220,298)"/>
<path d="M0 0 C1.35949488 4.07848463 0.14486103 7.17680945 -0.9375 11.1875 C-1.13279297 11.93708984 -1.32808594 12.68667969 -1.52929688 13.45898438 C-2.01214375 15.30793459 -2.50510633 17.15423776 -3 19 C-4.10152995 15.53685658 -4.01826499 12.54566413 -3.75 8.9375 C-3.68296875 7.89464844 -3.6159375 6.85179687 -3.546875 5.77734375 C-2.96057626 2.79978372 -2.35513275 1.82965958 0 0 Z " fill="#E07C35" transform="translate(270,282)"/>
<path d="M0 0 C-0.59015185 5.50808397 -1.56663769 10.64878069 -3 16 C-3.33 16 -3.66 16 -4 16 C-5.6062689 6.03065714 -5.6062689 6.03065714 -3.125 1.8125 C-1 0 -1 0 0 0 Z " fill="#341603" transform="translate(233,245)"/>
<path d="M0 0 C0.33 0 0.66 0 1 0 C1.33 5.28 1.66 10.56 2 16 C1.34 16 0.68 16 0 16 C-0.33 15.34 -0.66 14.68 -1 14 C-1.66 14.99 -2.32 15.98 -3 17 C-2.25339288 11.27601207 -1.17122859 5.65146223 0 0 Z " fill="#3F1F05" transform="translate(230,464)"/>
<path d="M0 0 C0.33 0 0.66 0 1 0 C1.95261487 4.76307437 2.08333357 9.1666528 2 14 C0.68 14.33 -0.64 14.66 -2 15 C-1.34 12.36 -0.68 9.72 0 7 C-0.66 7 -1.32 7 -2 7 C-1.125 2.25 -1.125 2.25 0 0 Z " fill="#201A14" transform="translate(294,281)"/>
<path d="M0 0 C0.33 0 0.66 0 1 0 C0.48446121 6.49850211 -0.46667709 12.66226532 -2 19 C-2.66 19 -3.32 19 -4 19 C-3.37968409 12.42465139 -1.85102717 6.33307408 0 0 Z " fill="#C67033" transform="translate(244,203)"/>
<path d="M0 0 C0.33 0 0.66 0 1 0 C1.20674944 5.78898419 0.59162079 10.42932723 -1 16 C-3.36672211 12.44991683 -3.4025104 11.18610811 -3 7 C-2.15236534 4.5599881 -1.12140032 2.33625067 0 0 Z " fill="#D67433" transform="translate(278,240)"/>
<path d="M0 0 C1.83979073 2.7596861 2.48323221 4.29741882 3.1875 7.4375 C3.45626953 8.58025391 3.45626953 8.58025391 3.73046875 9.74609375 C4.0154963 12.12958496 3.72875415 13.73104204 3 16 C-0.13107836 12.61416198 -0.33550778 10.28890538 -0.1875 5.75 C-0.14689453 4.13351562 -0.14689453 4.13351562 -0.10546875 2.484375 C-0.07066406 1.66453125 -0.03585937 0.8446875 0 0 Z " fill="#4F2107" transform="translate(332,442)"/>
<path d="M0 0 C0.33 0 0.66 0 1 0 C1.22126178 2.45779976 1.42750395 4.91527648 1.625 7.375 C1.68945312 8.07367188 1.75390625 8.77234375 1.8203125 9.4921875 C1.96119739 11.32369111 1.98761659 13.16312748 2 15 C1.34 15.66 0.68 16.32 0 17 C-1.8198497 11.54045091 -1.37745568 5.50982274 0 0 Z " fill="#F9721B" transform="translate(213,331)"/>
<path d="M0 0 C0.33 0 0.66 0 1 0 C1.45496035 5.76283104 -0.20900148 10.60568303 -2 16 C-4 14 -4 14 -4.125 10.875 C-4.08375 9.92625 -4.0425 8.9775 -4 8 C-3.34 7.67 -2.68 7.34 -2 7 C-1.26924352 4.6859378 -0.59861742 2.35171131 0 0 Z " fill="#411702" transform="translate(176,466)"/>
<path d="M0 0 C2 3 2 3 2 7 C2.66 7 3.32 7 4 7 C4.33 11.29 4.66 15.58 5 20 C2.83614399 16.75421598 2.2255829 14.34716433 1.375 10.5625 C0.98441406 8.86287109 0.98441406 8.86287109 0.5859375 7.12890625 C0 4 0 4 0 0 Z " fill="#DB7B37" transform="translate(345,489)"/>
<path d="M0 0 C0.33 0 0.66 0 1 0 C0.67 4.29 0.34 8.58 0 13 C-2.09782787 10.90217213 -2.6509396 9.6200793 -3.625 6.875 C-3.88539063 6.15054688 -4.14578125 5.42609375 -4.4140625 4.6796875 C-4.70410156 3.84824219 -4.70410156 3.84824219 -5 3 C-4.34 3 -3.68 3 -3 3 C-3 3.66 -3 4.32 -3 5 C-2.34 5 -1.68 5 -1 5 C-0.67 3.35 -0.34 1.7 0 0 Z " fill="#341804" transform="translate(495,173)"/>
<path d="M0 0 C0.33 0 0.66 0 1 0 C0.85936865 2.29199177 0.71234057 4.58359186 0.5625 6.875 C0.48128906 8.15117187 0.40007812 9.42734375 0.31640625 10.7421875 C0 14 0 14 -1 16 C-1.66 16 -2.32 16 -3 16 C-2.40984815 10.49191603 -1.43336231 5.35121931 0 0 Z " fill="#4D1E04" transform="translate(271,282)"/>
<path d="M0 0 C0.99 0.33 1.98 0.66 3 1 C2.52949219 1.53109375 2.05898438 2.0621875 1.57421875 2.609375 C0.95160156 3.31578125 0.32898438 4.0221875 -0.3125 4.75 C-1.23482422 5.79414063 -1.23482422 5.79414063 -2.17578125 6.859375 C-3.87314734 8.85114506 -5.45477809 10.88898915 -7 13 C-6.34 10.03 -5.68 7.06 -5 4 C-3.68 3.67 -2.36 3.34 -1 3 C-0.67 2.01 -0.34 1.02 0 0 Z " fill="#491B03" transform="translate(447,169)"/>
<path d="M0 0 C0.99 0 1.98 0 3 0 C3 0.66 3 1.32 3 2 C5.97 2.495 5.97 2.495 9 3 C9 3.99 9 4.98 9 6 C7.02 6 5.04 6 3 6 C2.01 4.02 1.02 2.04 0 0 Z " fill="#FB7416" transform="translate(327,416)"/>
<path d="M0 0 C0.66 0.33 1.32 0.66 2 1 C2.36923077 7.4 2.36923077 7.4 0.5 10.4375 C0.005 10.953125 -0.49 11.46875 -1 12 C-2.45606519 7.47907032 -1.27032841 4.48351204 0 0 Z " fill="#1F1D15" transform="translate(195,376)"/>
<path d="M0 0 C0.33 0 0.66 0 1 0 C1 4.62 1 9.24 1 14 C0.34 14 -0.32 14 -1 14 C-2.12029814 8.51053913 -1.79217969 5.16569441 0 0 Z " fill="#D9722E" transform="translate(183,443)"/>
<path d="M0 0 C0.33 0.66 0.66 1.32 1 2 C1.99 2 2.98 2 4 2 C4 2.66 4 3.32 4 4 C3.07767578 4.07347656 3.07767578 4.07347656 2.13671875 4.1484375 C1.32847656 4.22320312 0.52023437 4.29796875 -0.3125 4.375 C-1.51326172 4.47941406 -1.51326172 4.47941406 -2.73828125 4.5859375 C-5.27224441 4.89564426 -5.27224441 4.89564426 -8 7 C-6.86500606 3.70851757 -6.00716624 3.0040131 -2.875 1.25 C-1.92625 0.8375 -0.9775 0.425 0 0 Z " fill="#EA7C2E" transform="translate(454,168)"/>
<path d="M0 0 C1.53690745 2.41040161 2.09752136 3.50082285 1.5390625 6.359375 C1.23742187 7.14828125 0.93578125 7.9371875 0.625 8.75 C0.32851562 9.54921875 0.03203125 10.3484375 -0.2734375 11.171875 C-0.51320312 11.77515625 -0.75296875 12.3784375 -1 13 C-1.66 13 -2.32 13 -3 13 C-2.68991116 11.39536551 -2.37683713 9.79130769 -2.0625 8.1875 C-1.88847656 7.29417969 -1.71445313 6.40085937 -1.53515625 5.48046875 C-1 3 -1 3 0 0 Z M2 2 C4 3 4 3 4 3 Z " fill="#DA752D" transform="translate(187,429)"/>
<path d="M0 0 C1.125 3.75 1.125 3.75 0 6 C0.66 6 1.32 6 2 6 C2.33 4.68 2.66 3.36 3 2 C3.37211538 9.56634615 3.37211538 9.56634615 1.48828125 11.76171875 C0.99714844 12.17035156 0.50601562 12.57898438 0 13 C-0.19551338 11.39679026 -0.38111983 9.79237014 -0.5625 8.1875 C-0.71912109 6.84751953 -0.71912109 6.84751953 -0.87890625 5.48046875 C-1 3 -1 3 0 0 Z " fill="#3F2411" transform="translate(267,298)"/>
<path d="M0 0 C1.485 0.99 1.485 0.99 3 2 C2.34 5.3 1.68 8.6 1 12 C0.34 11.34 -0.32 10.68 -1 10 C-0.9765625 7.6171875 -0.9765625 7.6171875 -0.625 4.875 C-0.51414062 3.96492188 -0.40328125 3.05484375 -0.2890625 2.1171875 C-0.19367188 1.41851562 -0.09828125 0.71984375 0 0 Z " fill="#401D0B" transform="translate(274,266)"/>
<path d="M0 0 C0.33 0 0.66 0 1 0 C0.67 2.31 0.34 4.62 0 7 C-1.98 7 -3.96 7 -6 7 C-6 6.01 -6 5.02 -6 4 C-5.34 4 -4.68 4 -4 4 C-3.67 3.34 -3.34 2.68 -3 2 C-2.34 2 -1.68 2 -1 2 C-0.67 1.34 -0.34 0.68 0 0 Z " fill="#E37428" transform="translate(224,486)"/>
<path d="M0 0 C0.33 0 0.66 0 1 0 C1 2.97 1 5.94 1 9 C1.66 9 2.32 9 3 9 C3 10.65 3 12.3 3 14 C2.34 13.01 1.68 12.02 1 11 C0.34 11 -0.32 11 -1 11 C-1.125 3.375 -1.125 3.375 0 0 Z " fill="#D8752E" transform="translate(234,242)"/>
<path d="M0 0 C3.91531663 5.10693473 4.10265877 7.63515636 4 14 C1.90284215 10.85426323 1.47995441 8.98543749 0.875 5.3125 C0.70742188 4.31863281 0.53984375 3.32476562 0.3671875 2.30078125 C0.24601562 1.54152344 0.12484375 0.78226562 0 0 Z " fill="#3E1602" transform="translate(397,480)"/>
<path d="M0 0 C0.33 0 0.66 0 1 0 C0.40984815 5.50808397 -0.56663769 10.64878069 -2 16 C-2.33 16 -2.66 16 -3 16 C-2.88544319 14.08268082 -2.75793742 12.1661325 -2.625 10.25 C-2.55539063 9.18265625 -2.48578125 8.1153125 -2.4140625 7.015625 C-2.0271777 4.19793568 -1.44313834 2.4169634 0 0 Z " fill="#DC7735" transform="translate(233,448)"/>
<path d="M0 0 C0.99 0 1.98 0 3 0 C2.34 3.3 1.68 6.6 1 10 C-1.56687367 6.1496895 -0.83288724 4.41430237 0 0 Z " fill="#4A1F04" transform="translate(211,323)"/>
<path d="M0 0 C0.66 0 1.32 0 2 0 C1.34 3.63 0.68 7.26 0 11 C-0.66 10.67 -1.32 10.34 -2 10 C-2 7.69 -2 5.38 -2 3 C-1.34 3 -0.68 3 0 3 C0 2.01 0 1.02 0 0 Z " fill="#411A01" transform="translate(167,500)"/>
<path d="M0 0 C0.66 0 1.32 0 2 0 C1.32829194 3.8063457 0.27253436 7.35206816 -1 11 C-1.33 11 -1.66 11 -2 11 C-2.28571429 3.57142857 -2.28571429 3.57142857 0 0 Z " fill="#2E1606" transform="translate(324,432)"/>
<path d="M0 0 C1.32 0.33 2.64 0.66 4 1 C3.01 1.33 2.02 1.66 1 2 C-0.02700444 4.32891096 -0.02700444 4.32891096 -0.6875 7.0625 C-0.93886719 7.98160156 -1.19023437 8.90070313 -1.44921875 9.84765625 C-1.63097656 10.55792969 -1.81273437 11.26820313 -2 12 C-2.33 12 -2.66 12 -3 12 C-3.36923077 4.61538462 -3.36923077 4.61538462 -1.5 1.5 C-1.005 1.005 -0.51 0.51 0 0 Z " fill="#431B04" transform="translate(253,167)"/>
<path d="M0 0 C0.33 0 0.66 0 1 0 C1.25 7.625 1.25 7.625 -1 11 C-1.66 11 -2.32 11 -3 11 C-2.69217504 9.35328588 -2.37860766 7.70764424 -2.0625 6.0625 C-1.88847656 5.14597656 -1.71445313 4.22945313 -1.53515625 3.28515625 C-1 1 -1 1 0 0 Z " fill="#D5712F" transform="translate(170,497)"/>
<path d="M0 0 C0.66 0 1.32 0 2 0 C2.22174933 1.45635371 2.42698698 2.91522956 2.625 4.375 C2.74101562 5.18710937 2.85703125 5.99921875 2.9765625 6.8359375 C2.98429687 7.55007813 2.99203125 8.26421875 3 9 C2.34 9.66 1.68 10.32 1 11 C0 10 0 10 -0.09765625 7.71484375 C-0.08605469 6.79832031 -0.07445312 5.88179688 -0.0625 4.9375 C-0.05347656 4.01839844 -0.04445313 3.09929687 -0.03515625 2.15234375 C-0.02355469 1.44207031 -0.01195312 0.73179687 0 0 Z " fill="#211A16" transform="translate(260,336)"/>
<path d="M0 0 C0.66 0.33 1.32 0.66 2 1 C2.625 4.0625 2.625 4.0625 3 7 C2.01 7.33 1.02 7.66 0 8 C-1.125 2.25 -1.125 2.25 0 0 Z " fill="#F97518" transform="translate(342,458)"/>
<path d="M0 0 C1.9789756 3.63616656 2.5251065 6.88425629 3 11 C2.01 11.495 2.01 11.495 1 12 C-0.26237731 9.47524538 -0.09856404 7.68799534 -0.0625 4.875 C-0.05347656 3.96492188 -0.04445313 3.05484375 -0.03515625 2.1171875 C-0.02355469 1.41851562 -0.01195312 0.71984375 0 0 Z " fill="#CD7232" transform="translate(379,412)"/>
<path d="M0 0 C0.99 0 1.98 0 3 0 C3 3.63 3 7.26 3 11 C1.04783565 7.09567131 0.49360009 4.27786748 0 0 Z " fill="#351A01" transform="translate(379,409)"/>
<path d="M0 0 C0.99 0.495 0.99 0.495 2 1 C2.625 3.5625 2.625 3.5625 3 6 C3.66 6 4.32 6 5 6 C5.33 7.98 5.66 9.96 6 12 C1.6409923 8.51279384 1.05447817 5.27239085 0 0 Z " fill="#D87A3A" transform="translate(439,206)"/>
<path d="M0 0 C2.56616632 3.84924948 2.55097676 6.4349304 3 11 C2.34 11 1.68 11 1 11 C-0.20272819 8.59454362 -0.10071472 7.05003047 -0.0625 4.375 C-0.05347656 3.55773437 -0.04445313 2.74046875 -0.03515625 1.8984375 C-0.02355469 1.27195312 -0.01195312 0.64546875 0 0 Z " fill="#CC7435" transform="translate(396,480)"/>
<path d="M0 0 C0.66 0 1.32 0 2 0 C2.33 2.64 2.66 5.28 3 8 C2.01 8.66 1.02 9.32 0 10 C0 6.7 0 3.4 0 0 Z " fill="#F97416" transform="translate(196,400)"/>
<path d="M0 0 C0.33 0 0.66 0 1 0 C0.85892253 1.45880109 0.71197585 2.91703551 0.5625 4.375 C0.48128906 5.18710937 0.40007812 5.99921875 0.31640625 6.8359375 C0 9 0 9 -1 11 C-1.66 11 -2.32 11 -3 11 C-3 9.68 -3 8.36 -3 7 C-2.34 7 -1.68 7 -1 7 C-0.67 4.69 -0.34 2.38 0 0 Z " fill="#351401" transform="translate(208,339)"/>
<path d="M0 0 C0.66 0 1.32 0 2 0 C2.33 1.65 2.66 3.3 3 5 C2.34 5 1.68 5 1 5 C0.67 5.99 0.34 6.98 0 8 C-0.99 8 -1.98 8 -3 8 C-2.67 7.01 -2.34 6.02 -2 5 C-1.34 5 -0.68 5 0 5 C0 3.35 0 1.7 0 0 Z " fill="#EA762B" transform="translate(341,267)"/>
<path d="M0 0 C0.66 0 1.32 0 2 0 C2.33 2.64 2.66 5.28 3 8 C2.67 7.34 2.34 6.68 2 6 C1.01 5.67 0.02 5.34 -1 5 C-0.67 3.35 -0.34 1.7 0 0 Z " fill="#481E07" transform="translate(329,434)"/>
<path d="M0 0 C0.33 0 0.66 0 1 0 C1 3.3 1 6.6 1 10 C0.01 10 -0.98 10 -2 10 C-1.34 6.7 -0.68 3.4 0 0 Z " fill="#D57231" transform="translate(190,416)"/>
<path d="M0 0 C0.99 0 1.98 0 3 0 C2.74438677 2.3431213 2.40729228 4.67843403 2 7 C1.01 7.495 1.01 7.495 0 8 C0 5.36 0 2.72 0 0 Z " fill="#3D1C01" transform="translate(214,310)"/>
<path d="M0 0 C2.76223278 2.76223278 2.57856291 5.20706617 3 9 C2.34 9 1.68 9 1 9 C-0.4783226 6.04335481 -0.06032783 3.25770263 0 0 Z " fill="#4C1E03" transform="translate(337,464)"/>
<path d="M0 0 C0.33 0 0.66 0 1 0 C1 2.97 1 5.94 1 9 C0.01 8.01 -0.98 7.02 -2 6 C-2 4.68 -2 3.36 -2 2 C-1.34 2 -0.68 2 0 2 C0 1.34 0 0.68 0 0 Z " fill="#F87614" transform="translate(228,458)"/>
<path d="M0 0 C-2.39763185 2.39763185 -3.33273498 2.34280586 -6.625 2.625 C-7.44226563 2.69976562 -8.25953125 2.77453125 -9.1015625 2.8515625 C-9.72804688 2.90054688 -10.35453125 2.94953125 -11 3 C-4.23255814 -1.51162791 -4.23255814 -1.51162791 0 0 Z " fill="#562106" transform="translate(485,226)"/>
<path d="M0 0 C-1.65 1.32 -3.3 2.64 -5 4 C-6.32 3.34 -7.64 2.68 -9 2 C-5.5647952 -0.29013653 -4.014669 -0.17842973 0 0 Z " fill="#DF7930" transform="translate(485,223)"/>
<path d="M0 0 C0.99 0.66 1.98 1.32 3 2 C2.67 2.99 2.34 3.98 2 5 C0.68 5 -0.64 5 -2 5 C-1.125 1.125 -1.125 1.125 0 0 Z " fill="#2F1605" transform="translate(436,219)"/>
<path d="M0 0 C2.29633824 3.44450737 2.54016485 5.93812283 3 10 C0.40512445 8.70256222 -0.02269781 7.70637529 -1 5 C-0.625 2.25 -0.625 2.25 0 0 Z " fill="#4B1F03" transform="translate(346,498)"/>
<path d="M0 0 C0.99 0.33 1.98 0.66 3 1 C3 1.66 3 2.32 3 3 C3.66 3 4.32 3 5 3 C4.67 3.99 4.34 4.98 4 6 C3.01 6 2.02 6 1 6 C0.67 4.02 0.34 2.04 0 0 Z " fill="#372112" transform="translate(280,234)"/>
<path d="M0 0 C0.99 0 1.98 0 3 0 C2.67 1.65 2.34 3.3 2 5 C1.01 4.67 0.02 4.34 -1 4 C-0.67 2.68 -0.34 1.36 0 0 Z " fill="#301602" transform="translate(489,163)"/>
</svg>
