<?xml version="1.0" encoding="UTF-8"?>
<svg version="1.1" xmlns="http://www.w3.org/2000/svg" width="745" height="414">
<path d="M0 0 C245.85 0 491.7 0 745 0 C745 136.62 745 273.24 745 414 C499.15 414 253.3 414 0 414 C0 277.38 0 140.76 0 0 Z " fill="#FEFEFE" transform="translate(0,0)"/>
<path d="M0 0 C2.21303119 0.47799174 4.38065482 0.72759854 6.63378906 0.94262695 C10.91771003 1.37148218 14.87863127 2.30452681 19.00488281 3.5090332 C19.74561035 3.72019775 20.48633789 3.9313623 21.24951172 4.14892578 C28.50157596 6.23864027 35.72327829 8.43365374 42.94238281 10.6340332 C44.07796631 10.97893799 45.2135498 11.32384277 46.38354492 11.67919922 C47.4522583 12.00847412 48.52097168 12.33774902 49.62207031 12.67700195 C50.57581543 12.96986084 51.52956055 13.26271973 52.51220703 13.56445312 C54.82971476 14.36448708 56.89161207 15.32942251 59.06738281 16.4465332 C59.25478288 38.0745103 59.39559091 59.70235234 59.48188019 81.33097839 C59.52302204 91.37498213 59.57905041 101.41847958 59.67089844 111.4621582 C59.75097316 120.22263609 59.80232788 128.98274709 59.82009077 137.74358082 C59.83046416 142.37682875 59.85460809 147.00902767 59.91322327 151.64193726 C59.96810103 156.01546577 59.9841618 160.38752765 59.97224426 164.7613678 C59.97441982 166.3543855 59.98999039 167.94745956 60.02102661 169.54017639 C60.43086736 191.68521828 47.27889869 207.68250621 32.47949219 223.10083008 C25.89295335 229.91319311 19.22230858 236.35634993 11.77832031 242.23950195 C8.76321232 244.6941648 5.9098174 247.29711468 3.06738281 249.9465332 C-1.49369617 254.18620368 -6.19538642 258.18702728 -11.04980469 262.0871582 C-13.09042014 263.7572554 -15.08695989 265.44082284 -17.06542969 267.1809082 C-23.84036898 273.13340416 -30.79737646 278.71689831 -38.05761719 284.0715332 C-38.87552734 284.67570068 -39.6934375 285.27986816 -40.53613281 285.90234375 C-49.53374674 292.46576166 -49.53374674 292.46576166 -53.20605469 292.4152832 C-57.21813219 290.98978862 -60.22070607 288.54864255 -63.55761719 285.9465332 C-64.62592773 285.1285022 -64.62592773 285.1285022 -65.71582031 284.29394531 C-70.55719656 280.56833791 -75.32515169 276.7578487 -80.02636719 272.85668945 C-83.64017956 269.85975097 -87.28612602 266.90354927 -90.93261719 263.9465332 C-92.31425059 262.82428877 -93.69576325 261.70189566 -95.07714844 260.5793457 C-97.36585306 258.71952856 -99.65487574 256.86010797 -101.94433594 255.0012207 C-107.86773248 250.17603052 -113.72796143 245.28149395 -119.54199219 240.32543945 C-121.82877162 238.37663061 -124.13205123 236.45011373 -126.44824219 234.53637695 C-142.81367738 220.92404773 -158.85815404 204.43167695 -164.93261719 183.4465332 C-165.17871284 180.10014534 -165.17871284 180.10014534 -165.17312622 176.38504028 C-165.17483507 175.69796049 -165.17654392 175.0108807 -165.17830455 174.3029803 C-165.18158405 172.01364644 -165.17062146 169.72460935 -165.15966797 167.43530273 C-165.15910352 165.78911852 -165.15942107 164.1429338 -165.16055298 162.49674988 C-165.16112618 158.03645934 -165.14937709 153.57627665 -165.13540506 149.11601114 C-165.12289233 144.45152237 -165.12172677 139.78703105 -165.11935425 135.12252808 C-165.11314108 126.29350344 -165.09673246 117.4645284 -165.07665527 108.63552558 C-165.0542912 98.58238033 -165.04330156 88.52923268 -165.0332644 78.47606874 C-165.0123661 57.79952922 -164.97719327 37.12303434 -164.93261719 16.4465332 C-157.23709301 13.1267657 -157.23709301 13.1267657 -153.65527344 11.98168945 C-152.90415283 11.7412793 -152.15303223 11.50086914 -151.37915039 11.25317383 C-103.90053188 -3.56657315 -49.08241086 -12.01960015 0 0 Z " fill="#29658F" transform="translate(424.9326171875,63.553466796875)"/>
<path d="M0 0 C5.28344104 -0.17378484 10.56519941 -0.30040897 15.85083008 -0.38452148 C17.64637244 -0.41960141 19.44171659 -0.46728082 21.23657227 -0.52807617 C36.18623261 -1.02156011 36.18623261 -1.02156011 40.70118713 1.52137756 C42.43731979 3.26303648 43.70833656 4.91899185 45 7 C46.29608947 8.1643635 47.60502625 9.31495647 48.9375 10.4375 C52.38421216 13.40605556 55.59110859 16.54079104 58.75 19.8125 C60.68966 21.69828055 62.6688666 23.47380148 64.7109375 25.24609375 C69.1203638 29.07651479 73.38058653 33.05091856 77.625 37.0625 C78.34945312 37.74376953 79.07390625 38.42503906 79.8203125 39.12695312 C80.531875 39.79791016 81.2434375 40.46886719 81.9765625 41.16015625 C82.66266602 41.80484863 83.34876953 42.44954102 84.05566406 43.11376953 C85.86829263 44.87222864 87.56478087 46.700309 89.2734375 48.55859375 C90.17320312 49.36425781 91.07296875 50.16992188 92 51 C95.64624489 50.76865332 97.37071546 48.96136977 99.8203125 46.40234375 C100.52027344 45.68369141 101.22023438 44.96503906 101.94140625 44.22460938 C102.66199219 43.46986328 103.38257813 42.71511719 104.125 41.9375 C105.56055616 40.44223486 107.00044216 38.95111056 108.4453125 37.46484375 C109.07969238 36.800896 109.71407227 36.13694824 110.36767578 35.45288086 C112 34 112 34 114 34 C114 33.34 114 32.68 114 32 C115.46875 30.5546875 115.46875 30.5546875 117.5 28.875 C121.90358911 25.1303987 125.95451435 21.12449904 130 17 C134.62639671 12.28324398 139.31633573 7.74497138 144.3359375 3.4453125 C145.60166464 2.34597202 146.8145434 1.1854566 148 0 C150.78510224 -0.18753311 153.46899646 -0.25561232 156.25390625 -0.23046875 C157.06995834 -0.23001053 157.88601044 -0.22955231 158.72679138 -0.2290802 C160.45255995 -0.22605744 162.17832578 -0.21817042 163.90405273 -0.20581055 C166.55527333 -0.18754978 169.20614496 -0.18530086 171.85742188 -0.18554688 C173.53125304 -0.18063194 175.20508182 -0.17480373 176.87890625 -0.16796875 C178.07574791 -0.16629951 178.07574791 -0.16629951 179.29676819 -0.16459656 C184.88395099 -0.11604901 184.88395099 -0.11604901 186 1 C186.10486593 2.66529999 186.13964776 4.33505006 186.14717102 6.00363159 C186.15790398 7.63050903 186.15790398 7.63050903 186.16885376 9.29025269 C186.17154266 10.49110504 186.17423157 11.6919574 186.17700195 12.92919922 C186.18357315 14.186297 186.19014435 15.44339478 186.19691467 16.73858643 C186.21801802 20.92727367 186.22833889 25.11596146 186.23828125 29.3046875 C186.24232975 30.75081527 186.2464467 32.19694284 186.25063133 33.64307022 C186.26971513 40.45345581 186.28392624 47.26383049 186.2922433 54.0742377 C186.30195775 61.898357 186.32810996 69.72218897 186.36874419 77.54620731 C186.39914146 83.61101998 186.4137352 89.67575162 186.41702431 95.74063885 C186.41935278 99.3524995 186.42801601 102.96405452 186.45348549 106.57583237 C186.6302169 133.04754055 185.13011132 155.27113748 167 176 C165.98659065 177.19387951 164.97499578 178.38930068 163.96484375 179.5859375 C154.14410359 191.17587155 154.14410359 191.17587155 151 194 C150.34 194 149.68 194 149 194 C149 149.45 149 104.9 149 59 C143.00571343 63.79542925 137.01618028 68.59244645 131.0625 73.4375 C130.38372803 73.98954102 129.70495605 74.54158203 129.00561523 75.11035156 C127.00317396 76.73953646 125.00140635 78.36954397 123 80 C122.41347656 80.47775879 121.82695312 80.95551758 121.22265625 81.44775391 C115.96236747 85.55617303 115.96236747 85.55617303 111 90 C110.87669912 91.8096774 110.82209817 93.62407837 110.79467773 95.43774414 C110.77473251 96.59887222 110.75478729 97.76000031 110.73423767 98.95631409 C110.71752518 100.219832 110.70081268 101.48334991 110.68359375 102.78515625 C110.66281265 104.07111191 110.64203156 105.35706757 110.62062073 106.68199158 C110.56533824 110.10635904 110.51595639 113.5307875 110.46777344 116.95526123 C110.41760335 120.44744304 110.36194764 123.93953702 110.30664062 127.43164062 C110.19846236 134.28769359 110.09948803 141.14379328 110 148 C98.45 148 86.9 148 75 148 C75.04382813 143.91753906 75.08765625 139.83507812 75.1328125 135.62890625 C75.13973449 132.35240189 75.13659678 129.07624677 75.12670898 125.79976654 C75.11904107 122.35209457 75.12866193 118.90654726 75.18164062 115.45922852 C75.24174962 111.49430539 75.220345 107.53173984 75.1953125 103.56640625 C75.22505157 102.34417862 75.25479065 101.12195099 75.28543091 99.86268616 C75.20036048 94.7381601 75.07615989 91.34358182 71.80282593 87.25683594 C69.29643032 84.98879859 66.73876917 82.97684118 64 81 C62.95034624 80.07756991 61.91306166 79.14051428 60.8984375 78.1796875 C51.67542194 69.6682914 51.67542194 69.6682914 42 61.6875 C41.01 60.8521875 41.01 60.8521875 40 60 C40 59.34 40 58.68 40 58 C39.34 58 38.68 58 38 58 C38 103.21 38 148.42 38 195 C29.97032113 188.11741811 22.79477515 181.22370822 16.25 172.9375 C15.57855957 172.08961914 15.57855957 172.08961914 14.89355469 171.22460938 C9.28609707 163.98944876 5.39355666 157.46265636 3.25 148.5 C3.04246094 147.69691406 2.83492188 146.89382812 2.62109375 146.06640625 C0.26216443 136.67634568 -0.14253136 127.7169858 -0.11352539 118.06640625 C-0.11367142 116.78752029 -0.11381744 115.50863434 -0.1139679 114.19099426 C-0.11425329 110.70602767 -0.10839843 107.22109593 -0.10139394 103.73613739 C-0.09511728 100.08597493 -0.0945532 96.43581156 -0.09336853 92.78564453 C-0.09026788 85.88333128 -0.08207165 78.98103397 -0.07201904 72.07872772 C-0.06081847 64.21654164 -0.05533753 56.35435478 -0.05032361 48.4921627 C-0.03988791 32.32809915 -0.02231312 16.16405162 0 0 Z " fill="#FCFEFE" transform="translate(278,98)"/>
<path d="M0 0 C1.05389923 0.02088432 1.05389923 0.02088432 2.12908936 0.04219055 C6.94346241 0.18564991 6.94346241 0.18564991 8.06640625 1.30859375 C8.19152769 3.98561811 8.25247194 6.63811648 8.27172852 9.31665039 C8.28162811 10.15560349 8.29152771 10.99455658 8.30172729 11.8589325 C8.3334381 14.64550915 8.35813739 17.43210288 8.3828125 20.21875 C8.40337377 22.14546667 8.42437001 24.07217874 8.44578552 25.99888611 C8.50109167 31.08041675 8.55046313 36.16198867 8.59863281 41.24359131 C8.64878563 46.42480155 8.70450408 51.60595155 8.75976562 56.78710938 C8.86745162 66.96088608 8.96887325 77.134715 9.06640625 87.30859375 C4.92489952 85.77682705 2.69540886 84.19787095 -0.30859375 80.93359375 C-3.38541022 77.735324 -6.00483437 75.59349116 -9.9921875 73.5859375 C-13.89111869 71.02064474 -16.9916221 67.38755558 -20.23046875 64.05078125 C-23.04750965 61.19303166 -25.9898884 58.5864197 -29.0390625 55.984375 C-31.79056997 53.55056736 -34.33023594 50.92150971 -36.90625 48.3046875 C-39.62228305 45.63052008 -42.47690727 43.13928918 -45.3671875 40.65625 C-46.24607773 39.90009756 -47.11377226 39.12841524 -47.93359375 38.30859375 C-50.74335893 38.14842209 -53.53132971 38.04908841 -56.34375 37.9921875 C-57.60680214 37.96101585 -57.60680214 37.96101585 -58.89537048 37.92921448 C-61.59552554 37.86362563 -64.29578092 37.80479099 -66.99609375 37.74609375 C-68.82227616 37.70291738 -70.64844829 37.65930339 -72.47460938 37.61523438 C-76.96083367 37.50793481 -81.44715925 37.40669409 -85.93359375 37.30859375 C-85.87279813 54.09538672 -85.79511701 70.88200629 -85.69787884 87.66862392 C-85.65310384 95.46469703 -85.61364821 103.26072631 -85.5871582 111.05688477 C-85.56402864 117.85993154 -85.53046722 124.66283749 -85.48489219 131.46577221 C-85.46115927 135.06070759 -85.44230121 138.65550524 -85.43597984 142.25051689 C-85.40696662 156.86224674 -85.32989283 171.02619037 -81.93359375 185.30859375 C-81.72163864 186.28046127 -81.50968353 187.2523288 -81.29130554 188.25364685 C-77.45055191 204.93116634 -60.37519152 219.86699598 -48.93359375 231.30859375 C-48.60359375 186.42859375 -48.27359375 141.54859375 -47.93359375 95.30859375 C-45.93359375 95.30859375 -45.93359375 95.30859375 -43.765625 97.37890625 C-43.32557129 97.8368457 -42.88551758 98.29478516 -42.43212891 98.76660156 C-39.60035628 101.68049468 -36.59260516 104.41359134 -33.62109375 107.18359375 C-32.95827393 107.80419678 -32.2954541 108.4247998 -31.61254883 109.06420898 C-28.18591506 112.26063615 -24.72316935 115.37157124 -21.12109375 118.37109375 C-18.30276484 120.7763917 -17.06147673 122.71987519 -15.93359375 126.30859375 C-14.44859375 127.29859375 -14.44859375 127.29859375 -12.93359375 128.30859375 C-12.5728302 130.75100708 -12.5728302 130.75100708 -12.59301758 133.85986328 C-12.59324417 135.02091583 -12.59347076 136.18196838 -12.59370422 137.37820435 C-12.60918808 138.63656097 -12.62467194 139.8949176 -12.640625 141.19140625 C-12.64486984 142.47594696 -12.64911469 143.76048767 -12.65348816 145.08395386 C-12.66494695 148.50032016 -12.69442232 151.91630431 -12.7276001 155.33251953 C-12.75827913 158.81798126 -12.77198881 162.30350469 -12.78710938 165.7890625 C-12.81929154 172.62906332 -12.87049999 179.46881019 -12.93359375 186.30859375 C-12.30267822 186.3336499 -11.6717627 186.35870605 -11.02172852 186.38452148 C-8.1796255 186.50013512 -5.33788292 186.62301691 -2.49609375 186.74609375 C-1.50287109 186.78541016 -0.50964844 186.82472656 0.51367188 186.86523438 C1.9300293 186.92807617 1.9300293 186.92807617 3.375 186.9921875 C4.68682251 187.04717407 4.68682251 187.04717407 6.02514648 187.10327148 C8.06640625 187.30859375 8.06640625 187.30859375 9.06640625 188.30859375 C9.18650233 191.43301523 9.24191158 194.53629997 9.25585938 197.66186523 C9.26829933 199.13493134 9.26829933 199.13493134 9.2809906 200.63775635 C9.29843421 202.7778147 9.31358909 204.91789262 9.32676697 207.05798149 C9.34772113 210.44015987 9.37474979 213.82223998 9.40344238 217.20436096 C9.46325718 224.38490117 9.51535361 231.5654866 9.56640625 238.74609375 C9.62554725 247.05990624 9.68779433 255.37367043 9.75828552 263.6873951 C9.78494155 267.02778211 9.80570821 270.36817374 9.82629395 273.70860291 C9.84289225 275.74771355 9.85976367 277.78682199 9.87695312 279.82592773 C9.88113754 280.76159073 9.88532196 281.69725372 9.88963318 282.66127014 C9.89797684 283.51240387 9.9063205 284.3635376 9.91491699 285.24046326 C9.92264759 286.35296275 9.92264759 286.35296275 9.93053436 287.48793697 C9.95806021 289.40807606 9.95806021 289.40807606 11.06640625 291.30859375 C10.73640625 291.96859375 10.40640625 292.62859375 10.06640625 293.30859375 C5.7143642 292.91295356 3.23459752 291.18912223 -0.08984375 288.5625 C-1.92735533 287.20507161 -1.92735533 287.20507161 -4.26171875 286.4453125 C-7.66989243 284.99534387 -10.33076319 282.86992431 -13.18359375 280.55859375 C-13.78276611 280.0805127 -14.38193848 279.60243164 -14.99926758 279.10986328 C-22.07067882 273.4444054 -29.04767471 267.66162037 -36.02685547 261.88330078 C-38.5691845 259.78368206 -41.12604283 257.70212863 -43.68359375 255.62109375 C-48.68487186 251.53256776 -53.6269913 247.37792001 -58.54296875 243.1875 C-60.82974818 241.23869116 -63.13302779 239.31217428 -65.44921875 237.3984375 C-81.81465395 223.78610828 -97.8591306 207.29373749 -103.93359375 186.30859375 C-104.17968941 182.96220589 -104.17968941 182.96220589 -104.17410278 179.24710083 C-104.17581163 178.56002104 -104.17752048 177.87294124 -104.17928112 177.16504085 C-104.18256061 174.87570698 -104.17159802 172.58666989 -104.16064453 170.29736328 C-104.16008008 168.65117907 -104.16039763 167.00499435 -104.16152954 165.35881042 C-104.16210274 160.89851989 -104.15035366 156.43833719 -104.13638163 151.97807169 C-104.12386889 147.31358291 -104.12270334 142.64909159 -104.12033081 137.98458862 C-104.11411764 129.15556398 -104.09770902 120.32658894 -104.07763183 111.49758613 C-104.05526777 101.44444087 -104.04427812 91.39129323 -104.03424096 81.33812928 C-104.01334266 60.66158977 -103.97816984 39.98509488 -103.93359375 19.30859375 C-96.23806957 15.98882625 -96.23806957 15.98882625 -92.65625 14.84375 C-91.90512939 14.60333984 -91.15400879 14.36292969 -90.38012695 14.11523438 C-81.83317846 11.4474311 -73.29975571 8.81859271 -64.55078125 6.88867188 C-62.60271597 6.4568992 -60.65786728 6.01056299 -58.71484375 5.55664062 C-38.9899315 1.02205482 -20.22682661 -0.41848703 0 0 Z " fill="#0D77B7" transform="translate(363.93359375,60.69140625)"/>
<path d="M0 0 C0.99 0.33 1.98 0.66 3 1 C3.80859375 3.07421875 3.80859375 3.07421875 4.4375 5.6875 C5.66916359 10.21224308 7.08664668 13.33481356 10 17 C10.66 17.33 11.32 17.66 12 18 C12.12375 18.598125 12.2475 19.19625 12.375 19.8125 C13.20835641 22.72924744 14.81042952 23.93922779 17 26 C17.53625 26.7425 18.0725 27.485 18.625 28.25 C19.305625 29.11625 19.305625 29.11625 20 30 C20.66 30 21.32 30 22 30 C22.33 29.34 22.66 28.68 23 28 C23.99 28 24.98 28 26 28 C25.34 26.35 24.68 24.7 24 23 C24.66 22.67 25.32 22.34 26 22 C26.99 22.99 27.98 23.98 29 25 C29.73472644 23.19083946 29.73472644 23.19083946 30 21 C29.04874049 19.0169494 29.04874049 19.0169494 27.5625 17.25 C27.08941406 16.63640625 26.61632812 16.0228125 26.12890625 15.390625 C25.57009766 14.70226562 25.57009766 14.70226562 25 14 C25.33 13.34 25.66 12.68 26 12 C26.51046875 12.71542969 27.0209375 13.43085938 27.546875 14.16796875 C35.55479194 25.14335845 44.40219127 35.42824294 55 44 C54.01 44.495 54.01 44.495 53 45 C53 45.66 53 46.32 53 47 C53.99 47 54.98 47 56 47 C56 48.32 56 49.64 56 51 C55.01 51.495 55.01 51.495 54 52 C54 52.99 54 53.98 54 55 C53.34 55 52.68 55 52 55 C51.505 55.99 51.505 55.99 51 57 C51.33 57.33 51.66 57.66 52 58 C52.721875 58.9075 53.44375 59.815 54.1875 60.75 C56.8285302 63.94703656 59.75149103 66.43141151 63 69 C58.64783477 69 56.58904545 66.33007235 53.5 63.5625 C52.23143806 62.44811436 50.96189719 61.33484217 49.69140625 60.22265625 C49.06379395 59.67109863 48.43618164 59.11954102 47.78955078 58.55126953 C45.38906743 56.47041398 42.91835786 54.48395555 40.4375 52.5 C24.7391364 39.7233407 6.98146844 23.62160079 0 4 C0 2.68 0 1.36 0 0 Z M52 57 C54 58 54 58 54 58 Z " fill="#0E75B3" transform="translate(262,249)"/>
<path d="M0 0 C-6.94205462 2.72237436 -13.81132075 4.78809869 -21 7 C-21.33 62.11 -21.66 117.22 -22 174 C-22.66 173.67 -23.32 173.34 -24 173 C-24 117.89 -24 62.78 -24 6 C-19.3863425 4.02271821 -15.05935511 2.25551144 -10.3125 0.75 C-8.66701172 0.21632813 -8.66701172 0.21632813 -6.98828125 -0.328125 C-4.10264447 -0.97692177 -2.71821621 -1.0317317 0 0 Z " fill="#206A99" transform="translate(284,74)"/>
<path d="M0 0 C2.81256281 -0.02684312 5.62487241 -0.04676188 8.4375 -0.0625 C9.23994141 -0.07087891 10.04238281 -0.07925781 10.86914062 -0.08789062 C12.91295221 -0.0965143 14.95683902 -0.0522815 17 0 C19.1746478 2.1746478 18.17595362 7.32816457 18.18945312 10.35327148 C18.19774643 11.33531555 18.20603973 12.31735962 18.21458435 13.3291626 C18.23202796 15.46922095 18.24718284 17.60929887 18.26036072 19.74938774 C18.28131488 23.13156612 18.30834354 26.51364623 18.33703613 29.89576721 C18.39685093 37.07630742 18.44894736 44.25689285 18.5 51.4375 C18.559141 59.75131249 18.62138808 68.06507668 18.69187927 76.37880135 C18.7185353 79.71918836 18.73930196 83.05957999 18.7598877 86.40000916 C18.776486 88.4391198 18.79335742 90.47822824 18.81054688 92.51733398 C18.8168235 93.92082848 18.8168235 93.92082848 18.82322693 95.35267639 C18.83157059 96.20381012 18.83991425 97.05494385 18.84851074 97.93186951 C18.85366447 98.67353583 18.85881821 99.41520216 18.86412811 100.17934322 C18.89165396 102.09948231 18.89165396 102.09948231 20 104 C19.67 104.66 19.34 105.32 19 106 C14.25 105.25 14.25 105.25 12 103 C13.485 102.505 13.485 102.505 15 102 C15.33 68.67 15.66 35.34 16 1 C10.72 1 5.44 1 0 1 C0 0.67 0 0.34 0 0 Z " fill="#1A70A7" transform="translate(355,248)"/>
<path d="M0 0 C1.71468592 0.0517488 3.4295466 0.09800998 5.14453125 0.13867188 C17.43465265 0.49715265 17.43465265 0.49715265 18.75 1.8125 C18.84622036 3.52075688 18.87187628 5.23302114 18.87025452 6.94398499 C18.87162918 8.05602798 18.87300385 9.16807098 18.87442017 10.31381226 C18.86902725 12.15986557 18.86902725 12.15986557 18.86352539 14.04321289 C18.86367142 15.33083023 18.86381744 16.61844757 18.8639679 17.94508362 C18.86425586 21.4862476 18.85835936 25.02737799 18.85139394 28.56853414 C18.84516017 32.26544988 18.84455658 35.96236631 18.84336853 39.6592865 C18.84025528 46.66453899 18.83204199 53.66977595 18.82201904 60.67502159 C18.8108577 68.64828876 18.8053474 76.62155665 18.80032361 84.59482968 C18.78985937 101.00072889 18.77226005 117.40661247 18.75 133.8125 C18.42 133.8125 18.09 133.8125 17.75 133.8125 C17.42 90.5825 17.09 47.3525 16.75 2.8125 C-2.40198273 1.05065682 -2.40198273 1.05065682 -20.25 4.8125 C-20.58 5.8025 -20.91 6.7925 -21.25 7.8125 C-22.90532623 8.83116229 -24.57260138 9.83060813 -26.25 10.8125 C-27.24 12.2975 -27.24 12.2975 -28.25 13.8125 C-29.57 13.4825 -30.89 13.1525 -32.25 12.8125 C-22.43069335 1.0472537 -14.98227574 -0.87951454 0 0 Z " fill="#D8EEF8" transform="translate(445.25,97.1875)"/>
<path d="M0 0 C0.33 0 0.66 0 1 0 C1.00423194 0.85606433 1.00846388 1.71212866 1.01282406 2.59413433 C1.11609658 23.4171965 1.22472929 44.24022468 1.33933926 65.06322765 C1.39463412 75.1330417 1.44811 85.20285928 1.49731445 95.27270508 C1.54020205 104.0488432 1.5864916 112.82495563 1.63687855 121.60105401 C1.6634426 126.24857128 1.68829476 130.89608357 1.70907402 135.5436306 C1.7286838 139.91759138 1.75284053 144.29150342 1.78049088 148.66542053 C1.78983833 150.27103094 1.79752185 151.87665203 1.80341911 153.48227882 C1.81171957 155.67449305 1.82600707 157.86659024 1.84178162 160.0587616 C1.84823417 161.28566806 1.85468672 162.51257452 1.8613348 163.77665997 C1.98457541 166.64144793 2.3396961 169.21634315 3 172 C2.34 172.33 1.68 172.66 1 173 C-0.45927923 170.08144155 -0.12264154 167.5283434 -0.12025452 164.26766968 C-0.12110894 163.56767337 -0.12196337 162.86767707 -0.12284368 162.14646876 C-0.12449717 159.78951473 -0.11897926 157.43263112 -0.11352539 155.07568359 C-0.11324346 153.39068097 -0.11340136 151.70567822 -0.1139679 150.02067566 C-0.11425566 145.43621887 -0.10836233 140.85178806 -0.10139394 136.26733732 C-0.0951569 131.48003488 -0.09455632 126.6927319 -0.09336853 121.90542603 C-0.09025625 112.83545764 -0.08204425 103.76550126 -0.07201904 94.69553816 C-0.0608547 84.37162696 -0.05534664 74.0477152 -0.05032361 63.72379947 C-0.03986156 42.48252627 -0.02226411 21.24126389 0 0 Z " fill="#E7FEFE" transform="translate(259,80)"/>
<path d="M0 0 C0.66 0.33 1.32 0.66 2 1 C1.67 45.22 1.34 89.44 1 135 C0.67 135 0.34 135 0 135 C-0.33 91.77 -0.66 48.54 -1 4 C-1.99 5.32 -2.98 6.64 -4 8 C-6.6875 8.75 -6.6875 8.75 -9 9 C-6.31941902 5.42589203 -3.57410797 2.68058098 0 0 Z " fill="#225079" transform="translate(425,157)"/>
<path d="M0 0 C3.14217987 1.51129066 4.82270525 2.37003196 7 5 C8.01860089 9.45600007 7.8135773 13.84427358 7.68359375 18.39453125 C7.67368912 19.69702316 7.66378448 20.99951508 7.65357971 22.34147644 C7.62693752 25.79311288 7.55825777 29.2426649 7.48065186 32.69348145 C7.40885394 36.21919557 7.37703351 39.74524887 7.34179688 43.27148438 C7.26687604 50.18184226 7.1475142 57.09082089 7 64 C6.34 64 5.68 64 5 64 C4.99635437 63.28225403 4.99270874 62.56450806 4.98895264 61.82501221 C4.95106538 55.05658066 4.89420452 48.28854493 4.81609726 41.52046585 C4.77660949 38.04096863 4.7444279 34.56172495 4.72900391 31.08203125 C4.71094453 27.08031624 4.66100019 23.07954876 4.609375 19.078125 C4.60814636 17.83009094 4.60691772 16.58205688 4.60565186 15.29620361 C4.58593323 14.13530212 4.5662146 12.97440063 4.54589844 11.77832031 C4.53701599 10.75683899 4.52813354 9.73535767 4.51898193 8.68292236 C3.87123137 5.33431932 2.4910148 4.2350224 0 2 C0 1.34 0 0.68 0 0 Z " fill="#1F6A97" transform="translate(346,183)"/>
<path d="M0 0 C0.99 0 1.98 0 3 0 C3 0.66 3 1.32 3 2 C4.32 2.33 5.64 2.66 7 3 C7 3.66 7 4.32 7 5 C7.99 5.33 8.98 5.66 10 6 C9.67 25.14 9.34 44.28 9 64 C14.61 64 20.22 64 26 64 C26 64.33 26 64.66 26 65 C20.06 65 14.12 65 8 65 C8.00636475 63.27442871 8.01272949 61.54885742 8.01928711 59.77099609 C8.03216773 54.05507781 8.01274919 48.33987291 7.97153378 42.62409019 C7.94772807 39.16006094 7.93669377 35.69699174 7.95532227 32.23291016 C7.97619355 28.24590122 7.94066209 24.26033424 7.90234375 20.2734375 C7.91659897 19.03572601 7.93085419 17.79801453 7.94554138 16.52279663 C7.99769153 10.29901833 7.99769153 10.29901833 5.38162231 4.88067627 C3.65390826 3.41171804 1.91493961 2.20489225 0 1 C0 0.67 0 0.34 0 0 Z " fill="#E3FFFF" transform="translate(345,181)"/>
<path d="M0 0 C0.99 0.33 1.98 0.66 3 1 C3.80859375 3.07421875 3.80859375 3.07421875 4.4375 5.6875 C5.66916359 10.21224308 7.08664668 13.33481356 10 17 C10.66 17.33 11.32 17.66 12 18 C12.12375 18.598125 12.2475 19.19625 12.375 19.8125 C13.21908645 22.76680256 14.74500197 23.93291847 17 26 C18.70496537 27.62746694 20.37897032 29.28891311 22 31 C22 31.66 22 32.32 22 33 C22.66 33.33 23.32 33.66 24 34 C25.58282652 35.75487289 27.06450285 37.57869348 28.5625 39.40625 C29.92966207 41.11676639 29.92966207 41.11676639 32 42 C31.67 42.66 31.34 43.32 31 44 C18.32777274 33.57217266 5.73936086 19.66066808 0 4 C0 2.68 0 1.36 0 0 Z " fill="#196593" transform="translate(262,249)"/>
<path d="M0 0 C0.33 0 0.66 0 1 0 C1.33 27.39 1.66 54.78 2 83 C0.68 82.67 -0.64 82.34 -2 82 C-1.83923477 81.49704407 -1.67846954 80.99408813 -1.51283264 80.47589111 C-0.81713907 77.11717057 -0.82217046 73.80104581 -0.79467773 70.38574219 C-0.78477814 69.62437958 -0.77487854 68.86301697 -0.76467896 68.07858276 C-0.73315224 65.56804488 -0.70834153 63.05748809 -0.68359375 60.546875 C-0.66301659 58.80380773 -0.64201992 57.06074536 -0.62062073 55.31768799 C-0.56547871 50.73433408 -0.51603477 46.15093572 -0.46777344 41.56750488 C-0.4175009 36.88871311 -0.36184488 32.20998572 -0.30664062 27.53125 C-0.19915533 18.3542217 -0.09768903 9.17713744 0 0 Z " fill="#1772AC" transform="translate(371,65)"/>
<path d="M0 0 C3.24965924 1.39777919 5.07563228 3.02649463 7.375 5.6875 C9.10598057 7.58714745 9.10598057 7.58714745 11 9 C14.35406512 9.12610897 14.35406512 9.12610897 17 8 C16.34 9.65 15.68 11.3 15 13 C16.175625 13.1546875 16.175625 13.1546875 17.375 13.3125 C20 14 20 14 22 17 C22.66 17.2475 23.32 17.495 24 17.75 C26 19 26 19 27.25 22.625 C27.4975 23.73875 27.745 24.8525 28 26 C22.70858668 22.93655018 18.78843265 18.89101537 14.53125 14.53125 C12.301997 12.301997 10.02468008 10.22901887 7.625 8.1875 C4.70407823 5.69229962 2.27043148 3.12184329 0 0 Z " fill="#196A9A" transform="translate(329,110)"/>
<path d="M0 0 C2.53446685 1.16975393 4.68691721 2.47225558 7 4.0625 C9.52028428 5.6901836 11.09722532 6.55341928 14 7 C14.33 5.35 14.66 3.7 15 2 C15.763125 2.165 16.52625 2.33 17.3125 2.5 C20.03596236 3.09145396 20.03596236 3.09145396 23 3 C21.61765122 4.03902033 20.21844209 5.05563446 18.8125 6.0625 C18.03519531 6.63097656 17.25789063 7.19945312 16.45703125 7.78515625 C14 9 14 9 11.5 8.90234375 C8.57666506 7.84720254 6.60043021 6.45275281 4.1875 4.5 C3.39730469 3.8709375 2.60710937 3.241875 1.79296875 2.59375 C1.20128906 2.0678125 0.60960937 1.541875 0 1 C0 0.67 0 0.34 0 0 Z " fill="#235B7D" transform="translate(360,347)"/>
<path d="M0 0 C12.54 0 25.08 0 38 0 C38 0.33 38 0.66 38 1 C36.95021973 1.01458252 35.90043945 1.02916504 34.81884766 1.04418945 C30.93096526 1.10207993 27.04366774 1.17931206 23.15625 1.26245117 C21.47242715 1.29574435 19.78849152 1.32376256 18.10449219 1.34643555 C15.68635914 1.37990205 13.26926376 1.43221036 10.8515625 1.48828125 C9.71867294 1.49786613 9.71867294 1.49786613 8.56289673 1.50764465 C6.21354099 1.53980318 6.21354099 1.53980318 3 2 C2.01 3.485 2.01 3.485 1 5 C0.34 5 -0.32 5 -1 5 C-0.67 3.35 -0.34 1.7 0 0 Z " fill="#2E6186" transform="translate(423,96)"/>
<path d="M0 0 C2.82537064 1.19534912 4.67075074 2.56124041 7.0625 4.5625 C9.80205688 7.13537799 9.80205688 7.13537799 13 8 C14.21334408 9.44289566 15.42302392 10.88950276 16.59375 12.3671875 C18.79976734 14.92861874 21.35230146 16.90647092 24 19 C19.57552444 19 17.3975304 16.18387206 14.25 13.375 C13.65445312 12.85292969 13.05890625 12.33085937 12.4453125 11.79296875 C11.24118955 10.73740643 10.04001325 9.67847334 8.84179688 8.61621094 C6.35359967 6.43277171 3.8175574 4.3074314 1.27636719 2.18603516 C0.85516602 1.79464355 0.43396484 1.40325195 0 1 C0 0.67 0 0.34 0 0 Z M13 7 C15 8 15 8 15 8 Z " fill="#1F6790" transform="translate(301,299)"/>
<path d="M0 0 C0.556875 0.28875 1.11375 0.5775 1.6875 0.875 C6.66089507 3.58951598 6.66089507 3.58951598 12 3 C12.99 5.97 13.98 8.94 15 12 C11.46357563 10.23178782 8.86931629 8.4562896 5.8125 6 C4.93207031 5.29875 4.05164063 4.5975 3.14453125 3.875 C1 2 1 2 0 0 Z " fill="#19699A" transform="translate(341,332)"/>
<path d="M0 0 C7.19872326 5.12216847 13.56439479 10.97198312 20 17 C17 17 17 17 15.625 15.6875 C15.08875 15.130625 14.5525 14.57375 14 14 C12.824375 13.3503125 12.824375 13.3503125 11.625 12.6875 C9.24045012 11.15457508 8.09102399 10.04070498 6.375 7.875 C4.25395783 4.79020875 4.25395783 4.79020875 1 4 C0.3125 1.9375 0.3125 1.9375 0 0 Z " fill="#196390" transform="translate(326,165)"/>
<path d="M0 0 C0.66 1.32 1.32 2.64 2 4 C0.06745228 6.0245738 -1.63158688 7.42105792 -4 9 C-3.67 9.66 -3.34 10.32 -3 11 C-3.33 11.99 -3.66 12.98 -4 14 C-5.98 14 -7.96 14 -10 14 C-9.61328125 13.49210937 -9.2265625 12.98421875 -8.828125 12.4609375 C-5.74572807 8.38668017 -2.78428845 4.28352069 0 0 Z " fill="#295777" transform="translate(454,261)"/>
<path d="M0 0 C0.33 0.66 0.66 1.32 1 2 C1.66 2 2.32 2 3 2 C1.95125002 4.62187494 1.35068687 5.79371361 -1.125 7.25 C-1.74375 7.4975 -2.3625 7.745 -3 8 C-3 8.66 -3 9.32 -3 10 C-3.66 10 -4.32 10 -5 10 C-5 9.34 -5 8.68 -5 8 C-5.66 7.67 -6.32 7.34 -7 7 C-6.34 7 -5.68 7 -5 7 C-4.67 5.68 -4.34 4.36 -4 3 C-3.01 3 -2.02 3 -1 3 C-0.67 2.01 -0.34 1.02 0 0 Z " fill="#326487" transform="translate(395,122)"/>
<path d="M0 0 C2.77281723 2.68731185 5.25544419 5.45193702 7.625 8.5 C8.21539062 9.2528125 8.80578125 10.005625 9.4140625 10.78125 C10.85560898 12.79799483 11.96798767 14.75205236 13 17 C11.02 16.34 9.04 15.68 7 15 C7 14.34 7 13.68 7 13 C6.34 13 5.68 13 5 13 C4.9175 12.29875 4.835 11.5975 4.75 10.875 C3.8315061 7.35410673 2.05168554 4.9782532 0 2 C0 1.34 0 0.68 0 0 Z " fill="#196899" transform="translate(287,261)"/>
<path d="M0 0 C2.18847656 0.35571289 2.18847656 0.35571289 4 1 C3.360625 1.268125 2.72125 1.53625 2.0625 1.8125 C-0.33131686 2.88667752 -0.33131686 2.88667752 -1 6 C-2.65532623 7.01866229 -4.32260138 8.01810813 -6 9 C-6.99 10.485 -6.99 10.485 -8 12 C-9.32 11.67 -10.64 11.34 -12 11 C-10.09692171 9.12983659 -8.17977121 7.27975833 -6.25 5.4375 C-5.71117187 4.90447266 -5.17234375 4.37144531 -4.6171875 3.82226562 C-3.015625 2.30859375 -3.015625 2.30859375 0 0 Z " fill="#E9F5F8" transform="translate(425,99)"/>
<path d="M0 0 C0 0.33 0 0.66 0 1 C-2.31 1 -4.62 1 -7 1 C-7 1.66 -7 2.32 -7 3 C-9.95664519 4.4783226 -12.74229737 4.06032783 -16 4 C-16.33 3.34 -16.66 2.68 -17 2 C-5.47835991 -1.62870159 -5.47835991 -1.62870159 0 0 Z " fill="#2673A2" transform="translate(303,69)"/>
<path d="M0 0 C0.98273638 3.05740207 1.17423309 4.98555088 0 8 C-1.62890625 10.140625 -1.62890625 10.140625 -3.5625 12.25 C-4.20316406 12.95640625 -4.84382813 13.6628125 -5.50390625 14.390625 C-5.99761719 14.92171875 -6.49132812 15.4528125 -7 16 C-7 12.11908033 -5.34682267 9.60326704 -3.5 6.3125 C-3.16613281 5.70599609 -2.83226562 5.09949219 -2.48828125 4.47460938 C-1.664463 2.97996769 -0.83296549 1.48956329 0 0 Z " fill="#DDECF2" transform="translate(481,253)"/>
<path d="M0 0 C2.31 0 4.62 0 7 0 C7 0.66 7 1.32 7 2 C10.3 2 13.6 2 17 2 C17 2.33 17 2.66 17 3 C10.73 3 4.46 3 -2 3 C-1.34 2.67 -0.68 2.34 0 2 C0 1.34 0 0.68 0 0 Z " fill="#D6EFF6" transform="translate(366,56)"/>
<path d="M0 0 C4.69159716 3.38772897 9.0299782 6.78185183 13 11 C8.12134885 10.5818299 6.28667379 8.45965662 3 5 C2.01 4.67 1.02 4.34 0 4 C-0.33 3.01 -0.66 2.02 -1 1 C-0.67 0.67 -0.34 0.34 0 0 Z " fill="#DDF5FA" transform="translate(313,310)"/>
<path d="M0 0 C2 1 2 1 2.78125 3.109375 C3.0184375 3.98078125 3.255625 4.8521875 3.5 5.75 C4.4919846 9.26474746 5.54513179 12.64261182 7 16 C5.109375 15.33984375 5.109375 15.33984375 3 14 C1.953125 11.50390625 1.953125 11.50390625 1.25 8.5625 C1.00765625 7.59441406 0.7653125 6.62632812 0.515625 5.62890625 C0 3 0 3 0 0 Z " fill="#1D6897" transform="translate(280,245)"/>
<path d="M0 0 C1.27310312 0.93441535 2.543388 1.87267111 3.8125 2.8125 C4.52019531 3.33457031 5.22789062 3.85664063 5.95703125 4.39453125 C7.78531393 5.83128877 9.39896688 7.31815763 11 9 C7.75 8.875 7.75 8.875 4 8 C0 3.17948718 0 3.17948718 0 0 Z " fill="#E0F6FB" transform="translate(326,321)"/>
<path d="M0 0 C0 4.07624109 -1.64202171 5.45313878 -4.265625 8.4140625 C-6.61159381 10.5592502 -8.92183219 11.34039261 -12 12 C-8 8 -4 4 0 0 Z " fill="#E3F4FA" transform="translate(453,290)"/>
<path d="M0 0 C0.99 0 1.98 0 3 0 C3 0.66 3 1.32 3 2 C4.32 2.33 5.64 2.66 7 3 C7 3.66 7 4.32 7 5 C7.99 5.33 8.98 5.66 10 6 C10 8.64 10 11.28 10 14 C9.67 14 9.34 14 9 14 C9 11.69 9 9.38 9 7 C8.2575 6.773125 7.515 6.54625 6.75 6.3125 C3.48860409 4.75592468 2.07105025 2.91481146 0 0 Z " fill="#DCF2F8" transform="translate(345,181)"/>
<path d="M0 0 C0.33 0.99 0.66 1.98 1 3 C1.66 3.33 2.32 3.66 3 4 C0.03 6.97 -2.94 9.94 -6 13 C-6.66 12.67 -7.32 12.34 -8 12 C-7.21625 11.2575 -6.4325 10.515 -5.625 9.75 C-2.5557675 6.53461358 -1.38354376 4.15063128 0 0 Z " fill="#235373" transform="translate(385,131)"/>
<path d="M0 0 C1.29608947 0.93137592 2.58671632 1.8703566 3.875 2.8125 C4.59429687 3.33457031 5.31359375 3.85664063 6.0546875 4.39453125 C8 6 8 6 10 9 C9.01 9.495 9.01 9.495 8 10 C7.67 9.34 7.34 8.68 7 8 C6.38125 7.87625 5.7625 7.7525 5.125 7.625 C2.27317707 6.78622855 1.48397449 5.52275663 0 3 C0 2.01 0 1.02 0 0 Z " fill="#D7F0F7" transform="translate(294,294)"/>
<path d="M0 0 C0.33 0.99 0.66 1.98 1 3 C-0.07421875 5.0078125 -0.07421875 5.0078125 -1.6875 7.125 C-2.20699219 7.82882812 -2.72648437 8.53265625 -3.26171875 9.2578125 C-5.18169057 11.18209887 -6.34723083 11.61855607 -9 12 C-6 8 -3 4 0 0 Z " fill="#E5F5FA" transform="translate(471,270)"/>
<path d="M0 0 C4.59037956 1.14759489 5.33669182 2.29039218 8 6 C6.02 5.34 4.04 4.68 2 4 C1.67 5.65 1.34 7.3 1 9 C0.67 9 0.34 9 0 9 C0 6.03 0 3.06 0 0 Z " fill="#176A9D" transform="translate(318,159)"/>
<path d="M0 0 C2.92913705 1.46456853 4.50816521 3.89996156 6.5625 6.40625 C7.92966207 8.11676639 7.92966207 8.11676639 10 9 C9.67 9.66 9.34 10.32 9 11 C7.6781638 9.92807816 6.36782073 8.84197305 5.0625 7.75 C4.33160156 7.14671875 3.60070312 6.5434375 2.84765625 5.921875 C0.89673666 3.89258866 0.38268221 2.745593 0 0 Z " fill="#2B6D97" transform="translate(284,282)"/>
<path d="M0 0 C2.97 0.495 2.97 0.495 6 1 C6 1.66 6 2.32 6 3 C6.66 3 7.32 3 8 3 C7.67 3.66 7.34 4.32 7 5 C3.9375 5.625 3.9375 5.625 1 6 C1.20625 5.38125 1.4125 4.7625 1.625 4.125 C1.74875 3.42375 1.8725 2.7225 2 2 C1.34 1.34 0.68 0.68 0 0 Z " fill="#255C86" transform="translate(471,76)"/>
<path d="M0 0 C1.79206547 0.14084796 3.58364917 0.28783701 5.375 0.4375 C6.87160156 0.55931641 6.87160156 0.55931641 8.3984375 0.68359375 C11 1 11 1 13 2 C13 2.66 13 3.32 13 4 C8.428721 3.45144652 4.32564205 2.58255197 0 1 C0 0.67 0 0.34 0 0 Z " fill="#D0E3EB" transform="translate(471,75)"/>
<path d="M0 0 C4.96916636 0.51405169 9.29026351 1.23384882 14 3 C9.91556885 4.53166168 6.20544343 3.63081652 2 3 C2 2.34 2 1.68 2 1 C1.34 0.67 0.68 0.34 0 0 Z " fill="#245072" transform="translate(450,70)"/>
<path d="M0 0 C0.66 0.33 1.32 0.66 2 1 C2 1.99 2 2.98 2 4 C2.99 4.33 3.98 4.66 5 5 C5.33 6.65 5.66 8.3 6 10 C3.06799526 7.14723863 0.35684596 4.34920216 -2 1 C-1.34 0.67 -0.68 0.34 0 0 Z " fill="#DBF2F7" transform="translate(296,269)"/>
<path d="M0 0 C0 4.07746885 -1.52068051 5.83198065 -4 9 C-6.25 9.875 -6.25 9.875 -8 10 C-5.61820737 6.25718301 -3.25524265 3.02272532 0 0 Z " fill="#2A5271" transform="translate(442,277)"/>
<path d="M0 0 C3.5051418 0.64910033 6.15174779 1.84456589 9 4 C9.8125 6.6875 9.8125 6.6875 10 9 C8.8944811 8.06409496 7.79064547 7.12620142 6.6875 6.1875 C6.07261719 5.66542969 5.45773437 5.14335937 4.82421875 4.60546875 C3.14575321 3.12827531 1.56117966 1.59960869 0 0 Z " fill="#D0EDF5" transform="translate(318,157)"/>
<path d="M0 0 C0.99 0 1.98 0 3 0 C5.10770759 2.88834003 6 4.38462395 6 8 C2.24623848 6.74874616 1.75926711 5.4347596 0 2 C0 1.34 0 0.68 0 0 Z " fill="#DAF2F8" transform="translate(284,254)"/>
<path d="M0 0 C3.27286682 2.7819368 4.96427697 6.27954067 7 10 C3.78634109 8.89184175 3.0085776 8.01470446 1.25 5 C0 2 0 2 0 0 Z " fill="#D6F2F9" transform="translate(265,260)"/>
<path d="M0 0 C0.33 0.66 0.66 1.32 1 2 C-1.47812494 5.45167403 -2.79606135 7.23163306 -7 8 C-6.02133662 6.85373678 -5.04205413 5.70800212 -4.0625 4.5625 C-3.51722656 3.92441406 -2.97195313 3.28632813 -2.41015625 2.62890625 C-1.63204305 1.73008851 -0.84063472 0.84063472 0 0 Z " fill="#EEFCFE" transform="translate(381,141)"/>
<path d="M0 0 C2.31 1.98 4.62 3.96 7 6 C6.01 6.33 5.02 6.66 4 7 C2 5.1875 2 5.1875 0 3 C0 2.01 0 1.02 0 0 Z " fill="#DBF2F9" transform="translate(326,108)"/>
<path d="M0 0 C2.97 0.33 5.94 0.66 9 1 C9 1.33 9 1.66 9 2 C5.37 2.33 1.74 2.66 -2 3 C-1.34 2.01 -0.68 1.02 0 0 Z " fill="#D8F0F6" transform="translate(299,65)"/>
<path d="M0 0 C0.99 0.33 1.98 0.66 3 1 C1.95125002 3.62187494 1.35068687 4.79371361 -1.125 6.25 C-1.74375 6.4975 -2.3625 6.745 -3 7 C-2.01 4.69 -1.02 2.38 0 0 Z " fill="#285776" transform="translate(433,303)"/>
<path d="M0 0 C0.66 0.33 1.32 0.66 2 1 C-0.12055614 4.1808342 -1.63050557 5.31525278 -5 7 C-5.66 6.67 -6.32 6.34 -7 6 C-4.69 4.02 -2.38 2.04 0 0 Z " fill="#245270" transform="translate(407,172)"/>
<path d="M0 0 C0.33 0.66 0.66 1.32 1 2 C-1.3125 4.5 -1.3125 4.5 -4 7 C-4.99 7 -5.98 7 -7 7 C-4.69 4.69 -2.38 2.38 0 0 Z " fill="#DFF2FA" transform="translate(412,111)"/>
<path d="M0 0 C2.97 1.65 5.94 3.3 9 5 C6 6 6 6 3.375 4.75 C1 3 1 3 0 0 Z " fill="#D8F0F6" transform="translate(362,350)"/>
</svg>
