<?xml version="1.0" encoding="UTF-8"?>
<svg version="1.1" xmlns="http://www.w3.org/2000/svg" width="1080" height="1080">
<path d="M0 0 C1.08052681 -0.00301597 2.16105362 -0.00603194 3.27432367 -0.0091393 C5.07297678 -0.00648509 5.07297678 -0.00648509 6.90796632 -0.00377727 C8.17772463 -0.0058299 9.44748295 -0.00788253 10.7557188 -0.00999737 C14.3076333 -0.01558873 17.85952381 -0.01488711 21.41144131 -0.01321978 C25.26544194 -0.01249141 29.11943566 -0.01750521 32.97343338 -0.0217948 C40.62992179 -0.02939224 48.28640323 -0.03156874 55.94289501 -0.03212385 C65.10903292 -0.0330358 74.27516433 -0.0396984 83.44129946 -0.04647068 C105.60163796 -0.06255215 127.76197579 -0.06843677 149.92231908 -0.07321942 C160.40320986 -0.07555363 170.88410008 -0.07915612 181.36499043 -0.0829148 C217.23200419 -0.09575336 253.09901763 -0.10647138 288.96603364 -0.1099174 C291.21883235 -0.11013904 293.47163106 -0.11036082 295.72442977 -0.11058275 C297.98273145 -0.1108034 300.24103313 -0.11102388 302.49933481 -0.1112442 C307.03001648 -0.11168676 311.56069815 -0.11213387 316.09137982 -0.11258388 C317.21473073 -0.11269327 318.33808164 -0.11280266 319.49547348 -0.11291536 C355.91311193 -0.11654529 392.33073046 -0.13246137 428.74836128 -0.15577424 C467.23713484 -0.18036795 505.72589701 -0.19409007 544.21467865 -0.19528532 C548.43969423 -0.19545678 552.66470981 -0.19567221 556.88972539 -0.19591975 C557.9300682 -0.19597552 558.97041101 -0.19603129 560.04227936 -0.19608875 C576.78962515 -0.19723973 593.53695053 -0.20826599 610.28428942 -0.22280681 C627.11875517 -0.23717047 643.95319473 -0.24040957 660.78766493 -0.23236683 C670.78967123 -0.22790962 680.79159304 -0.23177479 690.79358825 -0.24760534 C697.47716537 -0.25735509 704.16068329 -0.2561771 710.84425986 -0.24616911 C714.65096403 -0.24077698 718.45750595 -0.2400672 722.26419667 -0.25267783 C726.37105167 -0.26616898 730.47752892 -0.25629989 734.58438843 -0.2442863 C735.75773768 -0.25188149 736.93108692 -0.25947669 738.13999221 -0.26730204 C746.09800932 -0.21704234 753.25772172 1.10267376 760.93830365 3.1276505 C762.28047014 3.43033272 763.62400291 3.72710523 764.96955365 4.01436925 C787.2164709 9.15020037 806.79700674 18.92160609 825.93830365 31.1276505 C826.86513959 31.71030675 827.79197552 32.292963 828.7468974 32.8932755 C829.57318646 33.42436925 830.39947552 33.955463 831.25080365 34.5026505 C832.32781537 35.19487706 832.32781537 35.19487706 833.4265849 35.901088 C833.92545209 36.30585362 834.42431927 36.71061925 834.93830365 37.1276505 C834.93830365 37.7876505 834.93830365 38.4476505 834.93830365 39.1276505 C835.49260052 39.3751505 836.0468974 39.6226505 836.61799115 39.8776505 C849.59651917 46.8694501 859.97701447 59.72655828 868.93830365 71.1276505 C870.1603349 72.64165441 870.1603349 72.64165441 871.40705365 74.18624425 C883.71117616 89.5890065 893.54655891 107.1464315 899.8328349 125.8464005 C900.63685327 128.23288612 901.49215959 130.54311007 902.41486615 132.88155675 C904.22563183 137.67169361 905.36142556 142.57992209 906.50080365 147.5651505 C906.70898724 148.45524816 906.91717084 149.34534581 907.13166302 150.26241612 C907.74216494 152.88240711 908.34480035 155.50375312 908.93830365 158.1276505 C909.10033307 158.72072562 909.2623625 159.31380074 909.4293019 159.92484784 C911.1336006 166.58705813 911.21741124 172.99881952 911.18998593 179.84767556 C911.19289281 181.11350178 911.19579969 182.37932801 911.19879466 183.6835126 C911.20656586 187.19176071 911.20193178 190.69989839 911.19523876 194.20814466 C911.19015893 198.02687478 911.19668773 201.84558815 911.20172542 205.66431588 C911.20894671 212.35539275 911.20873094 219.04643734 911.2036311 225.73751569 C911.19606812 235.68730893 911.19993258 245.63707493 911.20604772 255.58686799 C911.21658235 273.35659453 911.21566519 291.1263067 911.20988989 308.89603461 C911.20486081 324.44590215 911.20354443 339.99576442 911.20593518 355.5456326 C911.20616434 357.09220565 911.20616434 357.09220565 911.20639812 358.67002259 C911.20702079 362.85526658 911.20765758 367.04051056 911.20831765 371.22575455 C911.21443689 410.49361586 911.20888666 449.76146802 911.19812385 489.02932792 C911.1886318 523.92628346 911.18948235 558.82322439 911.19904584 593.7201798 C911.20975184 632.91726346 911.21400364 672.11433903 911.20782131 711.31142396 C911.20717986 715.48877736 911.20655418 719.66613076 911.20593518 723.84348416 C911.20577703 724.87207338 911.20561887 725.9006626 911.20545592 726.9604212 C911.2031797 742.50226131 911.20584389 758.04409557 911.21089429 773.58593488 C911.21660712 791.25454706 911.21519525 808.92314261 911.2043328 826.59175272 C911.19845216 836.48373742 911.19808851 846.37568611 911.20562515 856.26766989 C911.21010213 862.87128386 911.20733288 869.47486888 911.19861561 876.07847854 C911.1938483 879.84346015 911.19225161 883.60837009 911.19942757 887.3733495 C911.2070747 891.42678182 911.19930505 895.48003783 911.18998593 899.53346658 C911.19466826 900.70511519 911.1993506 901.87676381 911.20417482 903.08391693 C911.17620845 909.13609099 910.69104255 914.3300443 908.93830365 920.1276505 C908.60381692 921.65353144 908.27964341 923.18177676 907.9734599 924.713588 C905.37925572 937.48941713 902.14763275 949.13636464 896.93830365 961.1276505 C896.63150677 961.86499425 896.3247099 962.602338 896.00861615 963.3620255 C890.44406558 976.46087906 883.15673754 988.54669581 874.93830365 1000.1276505 C874.54949017 1000.67630773 874.1606767 1001.22496495 873.76008099 1001.79024816 C858.20046166 1023.46045858 838.52244524 1040.11680934 815.93830365 1054.1276505 C815.22029584 1054.60718175 814.50228802 1055.086713 813.7625224 1055.5807755 C795.55613022 1067.35187098 773.71661375 1073.8653624 752.56293673 1077.64340636 C750.87099676 1077.95556886 749.18251895 1078.28745293 747.4992384 1078.64336425 C740.34437379 1080.10065189 733.48728362 1080.4121479 726.19984025 1080.38771272 C724.95627038 1080.39151839 723.71270051 1080.39532406 722.4314467 1080.39924505 C718.99476998 1080.40774607 715.55830612 1080.40738498 712.12163561 1080.40318969 C708.37675092 1080.40081478 704.63189107 1080.41000384 700.88701594 1080.41767389 C694.32811211 1080.4294999 687.76923607 1080.43388748 681.21032208 1080.43335271 C671.4560178 1080.43255831 661.70174851 1080.44312152 651.94745359 1080.45576828 C632.49219338 1080.48049164 613.03694172 1080.48928965 593.58166797 1080.49430477 C592.070647 1080.49469653 592.070647 1080.49469653 590.52910036 1080.49509621 C589.01496071 1080.49548662 589.01496071 1080.49548662 587.47023238 1080.49588492 C576.27460012 1080.49896953 565.07897021 1080.50547526 553.88333958 1080.5120976 C520.04904453 1080.53174635 486.21475203 1080.5481493 452.3804509 1080.55097413 C451.29846377 1080.55106819 450.21647663 1080.55116225 449.101702 1080.55125916 C444.71708016 1080.55163763 440.33245832 1080.55200163 435.94783648 1080.55236214 C432.64786525 1080.55263386 429.34789402 1080.55291054 426.04792279 1080.55318761 C424.95748126 1080.55327563 423.86703972 1080.55336365 422.74355451 1080.55345434 C388.51067527 1080.55635732 354.27785259 1080.57843093 320.0449931 1080.61471105 C281.56185579 1080.65549482 243.07875701 1080.67913314 204.59559691 1080.67943364 C200.48644318 1080.67953046 196.37728945 1080.67969717 192.26813573 1080.67991376 C190.75053607 1080.67997993 190.75053607 1080.67997993 189.20227783 1080.68004744 C172.96327251 1080.68116448 156.7243241 1080.69853265 140.48533707 1080.72173308 C124.14122609 1080.74464914 107.79719147 1080.74875368 91.45307029 1080.73418378 C81.76071973 1080.7260713 72.06861077 1080.73158379 62.37628983 1080.75736463 C55.88029501 1080.77323897 49.38446972 1080.77051654 42.8884786 1080.7534579 C39.20128846 1080.74427813 35.51455984 1080.74239993 31.82740767 1080.76342397 C10.10474959 1080.87925661 -11.43891195 1079.49895376 -32.06169635 1072.1276505 C-33.46607003 1071.68031046 -34.87212436 1071.23818193 -36.28044635 1070.80343175 C-49.89667519 1066.50365294 -63.21397497 1061.21453555 -75.06169635 1053.1276505 C-76.16642291 1052.42124425 -77.27114948 1051.714838 -78.4093526 1050.9870255 C-87.23004599 1045.31111099 -95.18084877 1039.03267308 -103.06169635 1032.1276505 C-104.14055589 1031.23606042 -105.22126238 1030.34670009 -106.30388385 1029.45968175 C-108.98479231 1027.19268126 -110.9186317 1024.89289521 -113.06169635 1022.1276505 C-114.71863699 1020.45131423 -116.38645458 1018.78569771 -118.06169635 1017.1276505 C-136.32499566 998.80104685 -149.58874357 974.82491727 -157.92107135 950.44405675 C-158.73061661 948.09027618 -159.61223759 945.76073939 -160.5421651 943.45186925 C-162.51094897 938.23278177 -163.53472484 932.83531852 -164.62419635 927.3776505 C-164.83237994 926.36960362 -165.04056354 925.36155675 -165.25505573 924.322963 C-165.87964857 921.26069587 -166.49114529 918.20055344 -167.06169635 915.1276505 C-167.30474049 913.88475583 -167.30474049 913.88475583 -167.5526946 912.61675218 C-168.92830728 905.12377411 -169.34486039 897.93779209 -169.31337863 890.33076787 C-169.31628551 889.09306923 -169.3191924 887.85537058 -169.32218736 886.58016592 C-169.32820079 883.1647209 -169.32534197 879.74949824 -169.31863146 876.33406893 C-169.31353554 872.61071011 -169.32008678 868.88736812 -169.32511812 865.16401172 C-169.33232777 858.64491703 -169.33213082 852.1258555 -169.3270238 845.60675931 C-169.3194501 835.91253488 -169.32333086 826.21833834 -169.32944042 816.52411409 C-169.33996687 799.20893797 -169.33906112 781.89377663 -169.33328259 764.57859911 C-169.32825055 749.42575345 -169.32693852 734.2729132 -169.32932788 719.12006688 C-169.32948065 718.11475914 -169.32963342 717.10945141 -169.32979082 716.0736798 C-169.3304135 711.99275977 -169.3310503 707.91183974 -169.33171035 703.83091971 C-169.3378277 665.55244435 -169.33228244 627.2739784 -169.32151655 588.99550449 C-169.31202542 554.99088276 -169.31287468 520.98627601 -169.32243854 486.98165441 C-169.33314889 448.77297621 -169.33739385 410.56430631 -169.33121401 372.35562682 C-169.33057258 368.28216259 -169.3299469 364.20869835 -169.32932788 360.13523412 C-169.32916973 359.1322508 -169.32901157 358.12926748 -169.32884862 357.09589073 C-169.32657413 341.95294619 -169.3292334 326.81000766 -169.33428699 311.66706395 C-169.34000478 294.44805972 -169.33857737 277.22907255 -169.3277255 260.01007044 C-169.3218531 250.3744164 -169.32146935 240.73879932 -169.32901785 231.10314623 C-169.33350475 224.66539586 -169.3307076 218.2276751 -169.32200831 211.78992912 C-169.3172548 208.12301451 -169.31561566 204.45617332 -169.32282028 200.78926104 C-169.33051144 196.83431281 -169.32266729 192.8794798 -169.31337863 188.92453313 C-169.31806096 187.79312833 -169.3227433 186.66172352 -169.32756752 185.49603373 C-169.29324246 178.18830368 -168.45280715 171.29576405 -167.06169635 164.1276505 C-166.71397653 162.22141209 -166.3663123 160.31516355 -166.0187276 158.4089005 C-162.19654332 138.74306452 -156.172577 120.45418783 -146.74919635 102.7526505 C-146.35675739 102.01514562 -145.96431842 101.27764073 -145.55998737 100.51778722 C-138.53803254 87.46131766 -130.27584498 75.35162759 -120.20232135 64.4557755 C-118.32183858 62.41057891 -116.53236235 60.31956233 -114.74919635 58.1901505 C-108.68529882 51.21737839 -101.47678944 44.61841147 -94.06169635 39.1276505 C-93.40169635 39.1276505 -92.74169635 39.1276505 -92.06169635 39.1276505 C-92.06169635 38.4676505 -92.06169635 37.8076505 -92.06169635 37.1276505 C-89.84366215 35.47018505 -87.63252235 33.94181212 -85.31169635 32.4401505 C-84.62720416 31.99244298 -83.94271198 31.54473546 -83.2374776 31.08346105 C-60.03565339 16.01793762 -36.38723679 6.55766443 -9.19035846 1.58907628 C-1.86432031 0.0010258 -1.86432031 0.0010258 0 0 Z " fill="#001E36" transform="translate(169.0616963505745,-0.12765049934387207)"/>
<path d="M0 0 C3.53916645 -0.00439992 7.07809122 -0.01839379 10.6171875 -0.04101562 C49.34698082 -0.28324199 91.34893398 0.54299726 126.7434082 18.24023438 C128.36762695 18.92666016 128.36762695 18.92666016 130.0246582 19.62695312 C168.25196674 35.85533377 196.96235999 66.11141926 212.7434082 104.24023438 C220.69961583 124.81646862 224.13098252 147.4374596 224.00415039 169.40380859 C223.9933136 171.63470986 224.00418409 173.86482415 224.0168457 176.09570312 C224.0232684 182.61437755 223.96690485 188.88202084 222.26489258 195.22216797 C221.27910482 199.0370189 220.8964756 202.96565977 220.3684082 206.86523438 C218.48255434 219.95213792 215.35070217 232.20543056 209.7434082 244.24023438 C209.45981445 244.8497998 209.1762207 245.45936523 208.8840332 246.08740234 C201.46881612 261.86437641 192.52047761 275.38021605 180.7434082 288.24023438 C179.98157227 289.07425781 179.21973633 289.90828125 178.43481445 290.76757812 C152.89522475 317.431847 114.28391008 333.76601315 78.1730957 338.88085938 C75.91703092 339.21455384 73.76719828 339.68949798 71.5559082 340.24023438 C53.96827717 344.26479139 35.25977883 344.42157649 17.28857422 344.37060547 C15.07357817 344.36527688 12.85878858 344.37058046 10.64379883 344.37695312 C2.13363867 344.37947054 -6.34518228 344.14002141 -14.84570312 343.73193359 C-15.85247353 343.68483749 -16.85924393 343.63774139 -17.89652252 343.58921814 C-20.34994661 343.47425442 -22.80329619 343.35790276 -25.2565918 343.24023438 C-25.25382642 344.02506824 -25.25106104 344.80990211 -25.24821186 345.61851883 C-25.18199117 364.70537481 -25.1323303 383.7922079 -25.10115528 402.87915421 C-25.085679 412.10941948 -25.06457495 421.33960812 -25.03027344 430.56982422 C-25.00039437 438.61382941 -24.98102233 446.65777911 -24.97432631 454.70183825 C-24.97041151 458.96207468 -24.96119546 463.22215235 -24.93940163 467.48233795 C-24.91906 471.49107879 -24.91275325 475.49959525 -24.91726875 479.5083828 C-24.91644251 480.98059241 -24.91046291 482.45280942 -24.89897537 483.92497444 C-24.88406946 485.93350947 -24.88942126 487.94216451 -24.89582825 489.95074463 C-24.89306287 491.07533207 -24.89029749 492.19991951 -24.88744831 493.35858536 C-25.30345292 496.60604693 -25.88733382 497.99634082 -28.2565918 500.24023438 C-30.13503361 500.73801231 -30.13503361 500.73801231 -32.28639221 500.73471069 C-33.10379883 500.74309967 -33.92120544 500.75148865 -34.76338196 500.76013184 C-35.65647568 500.74889282 -36.5495694 500.73765381 -37.46972656 500.72607422 C-38.4130484 500.72987091 -39.35637024 500.7336676 -40.32827759 500.73757935 C-43.45185404 500.74499956 -46.57450403 500.72358306 -49.69799805 500.70117188 C-51.86368195 500.69878843 -54.02936795 500.69788192 -56.1950531 500.69839478 C-60.7354729 500.69526434 -65.27557746 500.67867885 -69.81591797 500.65185547 C-75.64605725 500.61785515 -81.4758502 500.6102273 -87.306077 500.61174583 C-91.77808459 500.61120293 -96.25001593 500.60024889 -100.72199821 500.58574295 C-102.87226725 500.57936341 -105.02254496 500.57543337 -107.17282295 500.57395554 C-110.17298336 500.56963594 -113.17277082 500.55216451 -116.17285156 500.53076172 C-117.06796951 500.53166809 -117.96308746 500.53257446 -118.8853302 500.5335083 C-125.02763721 500.46918896 -125.02763721 500.46918896 -127.2565918 498.24023438 C-127.45383683 495.55444394 -127.52426642 492.97176125 -127.50827408 490.28474426 C-127.51118096 489.44897917 -127.51408784 488.61321407 -127.51708281 487.75212276 C-127.52444489 484.92102166 -127.51741076 482.09013311 -127.51055908 479.2590332 C-127.51286106 477.22107996 -127.51603581 475.18312755 -127.52001357 473.14517689 C-127.5284063 467.52115701 -127.5242161 461.89720451 -127.51804113 456.2731843 C-127.51353585 450.21722347 -127.5204908 444.16127464 -127.52600098 438.10531616 C-127.53440127 426.91939326 -127.53364377 415.73349207 -127.52817804 404.5475696 C-127.52315394 394.2151926 -127.52183024 383.88282353 -127.52422333 373.55044556 C-127.5243761 372.86601798 -127.52452887 372.1815904 -127.52468627 371.47642259 C-127.52530891 368.69835572 -127.5259457 365.92028886 -127.5266058 363.14222201 C-127.53272868 337.06294976 -127.52716914 310.98369129 -127.516412 284.90442117 C-127.50692025 261.71654683 -127.50776948 238.52869446 -127.51733398 215.34082031 C-127.52803502 189.31032696 -127.53229451 163.27984579 -127.52610946 137.24935055 C-127.52546799 134.47624143 -127.52484231 131.70313231 -127.52422333 128.93002319 C-127.52406517 128.2471747 -127.52390702 127.56432621 -127.52374407 126.86078534 C-127.52146572 116.53297018 -127.524136 106.2051638 -127.52918243 95.87734985 C-127.53488969 84.13833699 -127.53330201 72.39934511 -127.52262095 60.66033387 C-127.51734685 54.66526837 -127.51533689 48.67024756 -127.52191925 42.67518234 C-127.52784506 37.19540704 -127.52465979 31.7157182 -127.51396415 26.23595083 C-127.51171572 24.24541033 -127.51289833 22.25486263 -127.51771572 20.26432669 C-127.52372959 17.5746863 -127.51762888 14.88534861 -127.50827408 12.19572449 C-127.51295641 11.40900356 -127.51763874 10.62228264 -127.52246296 9.81172168 C-127.48489254 4.46853512 -127.48489254 4.46853512 -125.2565918 2.24023438 C-122.89543152 1.9684906 -122.89543152 1.9684906 -119.89013672 1.93725586 C-118.19886909 1.91229286 -118.19886909 1.91229286 -116.47343445 1.88682556 C-115.24043106 1.87841141 -114.00742767 1.86999725 -112.73706055 1.86132812 C-110.77482437 1.83532339 -108.81258824 1.80931551 -106.85035419 1.78315067 C-104.07773609 1.74866423 -101.30506107 1.72320532 -98.53234863 1.69763184 C-93.14787595 1.64632716 -87.76356429 1.57940734 -82.37927818 1.51156235 C-81.02502708 1.49462145 -79.67076989 1.47816124 -78.31650734 1.46216202 C-68.96453941 1.34997909 -59.62577996 1.09759569 -50.2800293 0.72851562 C-33.52269335 0.0881851 -16.767787 0.01769143 0 0 Z " fill="#30A7FE" transform="translate(344.256591796875,253.759765625)"/>
<path d="M0 0 C2.19631912 3.08936975 1.77466848 6.47324865 1.73933411 10.12623596 C1.74298477 10.96226852 1.74663544 11.79830109 1.75039673 12.65966797 C1.75850977 15.42599228 1.74488711 18.19173228 1.7303009 20.95802307 C1.72978244 22.87708536 1.73029962 24.79614819 1.73181152 26.71520996 C1.73172177 30.73771591 1.72128493 34.76002156 1.70320129 38.78248596 C1.68049878 43.94674862 1.67997244 49.1107189 1.68671894 54.27501774 C1.69005496 58.23746352 1.68343603 62.19984224 1.67358971 66.16227531 C1.66973221 68.06693102 1.66859176 69.97159418 1.67017555 71.87625313 C1.67054506 74.53394501 1.65795894 77.19125719 1.64167786 79.84889221 C1.64415527 80.64115204 1.64663269 81.43341187 1.64918518 82.24967957 C1.59576249 87.69412399 1.59576249 87.69412399 -0.63298035 89.92286682 C-4.49416121 90.47446409 -6.98663092 89.90048832 -10.3478241 88.11036682 C-25.31860504 80.39555221 -41.24206413 76.42982541 -57.63298035 72.92286682 C-58.45201843 72.74739319 -59.27105652 72.57191956 -60.11491394 72.39112854 C-73.19504576 69.64444288 -86.08794022 68.7205765 -99.44108582 68.68263245 C-101.49894915 68.67290949 -103.55581726 68.64174362 -105.6134491 68.61036682 C-117.9807179 68.51127352 -131.99559851 69.25104498 -141.63298035 77.92286682 C-145.44578753 83.00660973 -147.46009797 88.38013923 -147.05485535 94.76271057 C-145.58856577 102.27065628 -140.74099941 108.48825189 -134.82048035 113.12599182 C-118.90395384 123.34689855 -101.39569238 131.16671789 -83.57048035 137.42286682 C-77.40275589 139.59971075 -71.53599246 142.11675515 -65.63298035 144.92286682 C-64.13861396 145.61389142 -62.64378178 146.30390919 -61.14860535 146.99317932 C-52.03237092 151.21970613 -43.18063741 155.61484655 -34.63298035 160.92286682 C-33.74868347 161.45138245 -32.8643866 161.97989807 -31.95329285 162.52442932 C-6.77648746 177.92241754 13.38706394 199.28200204 20.64045715 228.54786682 C22.51297717 237.24602434 22.65157181 245.75227542 22.67951965 254.61036682 C22.68213806 255.39709778 22.68475647 256.18382874 22.68745422 256.99440002 C22.69177262 269.07973421 21.93639331 280.30078859 18.36701965 291.92286682 C18.06666809 292.93993713 17.76631653 293.95700745 17.4568634 295.00489807 C13.27670182 307.65395846 6.7702462 318.66362329 -1.63298035 328.92286682 C-2.28137878 329.7246637 -2.92977722 330.52646057 -3.5978241 331.35255432 C-28.86691169 361.22071921 -69.56011754 372.52912781 -106.8946991 376.54786682 C-113.90533781 377.12013773 -120.93584789 377.07222907 -127.96476746 377.05323792 C-130.29890051 377.04791602 -132.63283778 377.05319272 -134.96696472 377.05958557 C-150.65981489 377.07025957 -165.93325358 376.04245791 -181.38298035 373.23536682 C-182.48967575 373.03753601 -182.48967575 373.03753601 -183.61872864 372.83570862 C-195.56566894 370.68578491 -207.19560786 368.05724152 -218.63298035 363.92286682 C-219.3501825 363.66473206 -220.06738464 363.40659729 -220.80632019 363.14064026 C-238.95253307 356.49183491 -238.95253307 356.49183491 -242.63298035 349.92286682 C-242.91357584 346.98602795 -243.02261982 344.26532603 -242.98942566 341.33058167 C-242.99147003 340.46514236 -242.9935144 339.59970306 -242.99562073 338.70803833 C-242.99862694 335.84974485 -242.98015843 332.99202915 -242.96110535 330.13380432 C-242.95804772 328.14891198 -242.95617163 326.16401749 -242.95542908 324.17912292 C-242.95082723 320.02135495 -242.93640406 315.86378079 -242.91423035 311.70606995 C-242.88591132 306.36813782 -242.87501501 301.03035813 -242.87054825 295.69235802 C-242.86639837 291.59524502 -242.8565851 287.49816303 -242.84467316 283.40106583 C-242.83896415 281.43221409 -242.83420754 279.46335936 -242.83040619 277.49450302 C-242.8235564 274.74840258 -242.80993099 272.00242449 -242.79411316 269.25636292 C-242.7929953 268.43762192 -242.79187744 267.61888092 -242.79072571 266.77532959 C-242.74767484 261.1522558 -242.74767484 261.1522558 -241.63298035 258.92286682 C-237.58389189 258.61897538 -235.68117754 259.19935791 -232.4415741 261.61036682 C-227.7363294 264.92279689 -222.89512082 267.4756894 -217.69548035 269.92286682 C-216.32794617 270.56796204 -216.32794617 270.56796204 -214.93278503 271.22608948 C-200.9827211 277.66812143 -186.61912259 281.71043675 -171.63298035 284.92286682 C-170.2852655 285.22837463 -170.2852655 285.22837463 -168.9103241 285.54005432 C-166.49184091 286.06493381 -164.0725453 286.50698969 -161.63298035 286.92286682 C-160.63137878 287.10849182 -159.62977722 287.29411682 -158.5978241 287.48536682 C-136.9141614 290.88302452 -108.45090269 292.60424144 -88.63298035 281.92286682 C-87.72548035 281.55161682 -86.81798035 281.18036682 -85.88298035 280.79786682 C-81.38544785 277.04992307 -79.17801288 271.82292797 -78.10954285 266.13771057 C-77.74714963 260.00291117 -79.0896158 256.06085997 -82.6368866 251.09083557 C-87.94427448 245.32645147 -93.73713398 241.45886732 -100.69548035 237.92286682 C-101.54054138 237.48772766 -102.38560242 237.0525885 -103.25627136 236.60426331 C-112.35253845 231.97021818 -121.64532631 228.07332973 -131.1603241 224.39552307 C-143.97585614 219.43483917 -156.5383411 214.46443853 -168.63298035 207.92286682 C-169.58173035 207.4252887 -170.53048035 206.92771057 -171.50798035 206.41505432 C-174.24258493 204.96030828 -176.93952224 203.4523929 -179.63298035 201.92286682 C-180.76993347 201.2912262 -181.9068866 200.65958557 -183.07829285 200.00880432 C-200.72596526 189.9867558 -217.83553035 176.28396391 -228.63298035 158.92286682 C-229.6365155 157.3508551 -229.6365155 157.3508551 -230.6603241 155.74708557 C-235.94434223 147.18867239 -238.92865562 138.56619531 -241.63298035 128.92286682 C-241.98618347 127.94317932 -242.3393866 126.96349182 -242.70329285 125.95411682 C-245.10128375 118.1354574 -244.84985373 110.00788127 -244.87321472 101.8986969 C-244.88284291 99.88905411 -244.91400633 97.87955183 -244.94548035 95.87013245 C-244.99561475 83.09212634 -243.20869947 71.09287804 -237.94548035 59.36036682 C-237.59735291 58.5637262 -237.24922546 57.76708557 -236.89054871 56.94630432 C-231.61295926 45.11652883 -225.31550433 34.62498995 -216.63298035 24.92286682 C-216.10575378 24.31314026 -215.57852722 23.7034137 -215.0353241 23.07521057 C-196.2377936 2.73926325 -168.46284638 -8.35042542 -142.00798035 -13.76463318 C-140.95868347 -13.97950378 -139.9093866 -14.19437439 -138.82829285 -14.41575623 C-99.09284919 -22.21870413 -34.75898082 -22.92743546 0 0 Z " fill="#30A7FE" transform="translate(853.6329803466797,385.07713317871094)"/>
<path d="M0 0 C1.38813148 -0.0049926 1.38813148 -0.0049926 2.80430603 -0.01008606 C4.74087029 -0.01508779 6.67744296 -0.01749652 8.61401367 -0.01733398 C11.49868791 -0.01950964 14.38297157 -0.03770986 17.26757812 -0.05664062 C27.00108411 -0.08667336 36.64483025 0.19215375 46.34375 1.046875 C47.67310326 1.16190117 47.67310326 1.16190117 49.02931213 1.2792511 C71.10898525 3.435671 93.07697684 13.7705353 107.5390625 30.75 C112.00914559 36.3625384 114.96957454 42.03050698 117.71484375 48.66796875 C117.97354248 49.28502686 118.23224121 49.90208496 118.4987793 50.5378418 C125.76916472 68.90908931 123.05090021 95.21936115 116.33984375 113.35546875 C109.74932473 127.99232294 98.32129973 138.54154724 84.46484375 146.16796875 C82.86769531 147.14443359 82.86769531 147.14443359 81.23828125 148.140625 C77.11296018 150.49644286 72.80640551 151.90978481 68.27734375 153.29296875 C67.01506958 153.68307129 67.01506958 153.68307129 65.72729492 154.08105469 C60.40014205 155.68651203 55.14172632 157.05149357 49.61157227 157.7590332 C47.51585449 158.03138383 45.42404785 158.33576042 43.33764648 158.67211914 C31.32495595 160.4618035 19.38706388 160.43874776 7.26074219 160.3737793 C3.6802675 160.3552902 0.10004917 160.35327179 -3.48046875 160.35351562 C-5.76432516 160.34860739 -8.04817982 160.34278214 -10.33203125 160.3359375 C-11.39862976 160.33482468 -12.46522827 160.33371185 -13.56414795 160.33256531 C-14.55328186 160.32618546 -15.54241577 160.3198056 -16.56152344 160.31323242 C-17.86147247 160.30751472 -17.86147247 160.30751472 -19.18768311 160.30168152 C-21.53515625 160.16796875 -21.53515625 160.16796875 -25.53515625 159.16796875 C-25.53515625 107.02796875 -25.53515625 54.88796875 -25.53515625 1.16796875 C-8.17855819 0.01086221 -8.17855819 0.01086221 0 0 Z " fill="#001E36" transform="translate(344.53515625,345.83203125)"/>
<path d="M0 0 C0.33 0.99 0.66 1.98 1 3 C-1.64 5.64 -4.28 8.28 -7 11 C-7.33 10.01 -7.66 9.02 -8 8 C-5.36 5.36 -2.72 2.72 0 0 Z " fill="#042541" transform="translate(450,472)"/>
</svg>
