<?xml version="1.0" encoding="UTF-8"?>
<svg version="1.1" xmlns="http://www.w3.org/2000/svg" width="679" height="679">
<path d="M0 0 C1.02763621 -0.00350607 2.05527241 -0.00701215 3.11404911 -0.01062447 C6.56781776 -0.01995045 10.02141825 -0.01501197 13.47519398 -0.01015663 C15.97231347 -0.01389228 18.4694318 -0.01849346 20.96654826 -0.02388728 C26.40121252 -0.03358207 31.83582579 -0.03703083 37.27049732 -0.03497505 C45.35227292 -0.03192542 53.4340091 -0.04024822 61.51577703 -0.0507243 C76.79019315 -0.07007061 92.06459585 -0.07569277 107.33902278 -0.07683842 C119.13509516 -0.07775739 130.93116227 -0.0818735 142.72723293 -0.08823967 C146.12235683 -0.09003475 149.51748073 -0.09181438 152.91260463 -0.09358943 C153.75663828 -0.09403152 154.60067192 -0.09447362 155.47028234 -0.09492911 C179.21318689 -0.10723842 202.95608962 -0.11513015 226.6989975 -0.11424255 C227.59424608 -0.1142114 228.48949467 -0.11418024 229.41187199 -0.11414814 C233.94938952 -0.11398192 238.48690705 -0.11378384 243.02442458 -0.11357872 C243.92559527 -0.11353883 244.82676596 -0.11349894 245.75524485 -0.11345784 C247.57763221 -0.11337697 249.40001957 -0.11329337 251.22240692 -0.11320706 C279.57368299 -0.11198164 307.92491121 -0.12699268 336.27617359 -0.15435219 C368.12736027 -0.18507651 399.9785155 -0.20228446 431.82971793 -0.20042574 C435.22641361 -0.20027648 438.62310928 -0.20017907 442.01980495 -0.20011711 C442.85615957 -0.2000938 443.69251418 -0.20007049 444.55421287 -0.20004648 C458.01081077 -0.19998494 471.46736712 -0.21275437 484.92395267 -0.22998164 C498.44982967 -0.24693939 511.97564593 -0.24891086 525.50152769 -0.235763 C533.53530459 -0.22837468 541.56889687 -0.23202819 549.6026542 -0.25164768 C555.604073 -0.26506454 561.60527438 -0.2575336 567.60669575 -0.24190123 C570.03266093 -0.23882308 572.45864611 -0.24249426 574.88458773 -0.25362138 C593.3339627 -0.33263454 606.46611901 0.81935524 620.55180836 13.97992516 C629.09632408 23.20015513 632.01824594 34.31900219 631.96532726 46.53359318 C631.96883334 47.55954101 631.97233941 48.58548884 631.97595173 49.642526 C631.98527756 53.09055135 631.98033927 56.53840823 631.97548389 59.98644066 C631.97921955 62.47943536 631.98382073 64.97242888 631.98921454 67.46542054 C631.99890927 72.89107244 632.0023581 78.31667327 632.00030231 83.74233246 C631.99725267 91.81070683 632.00557553 99.87904171 632.01605157 107.9474084 C632.03539781 123.19650306 632.04102003 138.44558429 632.04216568 153.69468977 C632.04308466 165.471216 632.04720077 177.24773696 632.05356693 189.02426147 C632.05536202 192.41376838 632.05714164 195.8032753 632.05891669 199.19278222 C632.05957983 200.45673837 632.05957983 200.45673837 632.06025637 201.74622899 C632.07256567 225.4498377 632.08045742 249.15344457 632.07956982 272.85705662 C632.07953866 273.75082234 632.0795075 274.64458807 632.0794754 275.5654376 C632.07930918 280.09543858 632.0791111 284.62543955 632.07890598 289.15544053 C632.07884615 290.50495716 632.07884615 290.50495716 632.0787851 291.88173675 C632.07870423 293.70110502 632.07862063 295.52047328 632.07853432 297.33984155 C632.0773089 325.64412499 632.09231993 353.94836051 632.11967945 382.25263023 C632.15040384 414.0510792 632.16761172 445.84949669 632.16575301 477.64796144 C632.16560375 481.03904013 632.16550633 484.43011882 632.16544437 487.82119751 C632.16540941 489.0736547 632.16540941 489.0736547 632.16537374 490.35141406 C632.16531221 503.78569599 632.17808157 517.21993631 632.1953089 530.65420587 C632.21226674 544.15767876 632.21423805 557.6610908 632.20109026 571.16456845 C632.193702 579.18501475 632.19735528 587.20527613 632.21697494 595.22570282 C632.23039199 601.21719832 632.2228607 607.20847603 632.2072285 613.1999741 C632.20415039 615.62190163 632.20782136 618.04384918 632.21894865 620.4657531 C632.2980403 638.90247455 631.13669011 652.02526395 617.98540211 666.10101891 C608.75940708 674.65087718 597.63733501 677.56739582 585.41611671 677.51453781 C584.38848051 677.51804389 583.3608443 677.52154996 582.30206761 677.52516228 C578.84829895 677.53448826 575.39469846 677.52954978 571.94092274 677.52469444 C569.44380324 677.52843009 566.94668492 677.53303127 564.44956845 677.53842509 C559.0149042 677.54811988 553.58029093 677.55156864 548.14561939 677.54951286 C540.06384379 677.54646324 531.98210762 677.55478604 523.90033968 677.56526211 C508.62592356 677.58460842 493.35152086 677.59023058 478.07709394 677.59137623 C466.28102156 677.5922952 454.48495445 677.59641131 442.68888378 677.60277748 C439.29375989 677.60457256 435.89863599 677.60635219 432.50351208 677.60812724 C431.65947844 677.60856933 430.81544479 677.60901143 429.94583437 677.60946692 C406.20292982 677.62177623 382.4600271 677.62966796 358.71711922 677.62878036 C357.82187063 677.62874921 356.92662205 677.62871805 356.00424472 677.62868595 C351.46672719 677.62851973 346.92920967 677.62832165 342.39169214 677.62811653 C341.49052145 677.62807664 340.58935076 677.62803675 339.66087186 677.62799565 C337.83848451 677.62791478 336.01609715 677.62783118 334.19370979 677.62774487 C305.84243372 677.62651945 277.4912055 677.64153049 249.13994312 677.66889 C217.28875645 677.69961432 185.43760121 677.71682227 153.58639878 677.71496356 C150.18970311 677.71481429 146.79300744 677.71471688 143.39631176 677.71465492 C142.55995715 677.71463161 141.72360253 677.71460831 140.86190384 677.71458429 C127.40530595 677.71452276 113.9487496 677.72729218 100.49216405 677.74451945 C86.96628704 677.7614772 73.44047078 677.76344867 59.91458903 677.75030081 C51.88081212 677.74291249 43.84721984 677.746566 35.81346252 677.76618549 C29.81204372 677.77960235 23.81084234 677.77207141 17.80942097 677.75643905 C15.38345578 677.75336089 12.95747061 677.75703207 10.53152899 677.7681592 C-7.91784599 677.84717235 -21.0500023 676.69518257 -35.13569164 663.53461266 C-43.68020736 654.31438268 -46.60212922 643.19553562 -46.54921055 630.98094463 C-46.55271662 629.9549968 -46.5562227 628.92904897 -46.55983502 627.87201181 C-46.56916085 624.42398647 -46.56422256 620.97612958 -46.55936718 617.52809715 C-46.56310284 615.03510246 -46.56770402 612.54210893 -46.57309783 610.04911727 C-46.58279256 604.62346537 -46.58624139 599.19786454 -46.5841856 593.77220535 C-46.58113595 585.70383098 -46.58945881 577.6354961 -46.59993485 569.56712941 C-46.61928109 554.31803475 -46.62490332 539.06895353 -46.62604897 523.81984804 C-46.62696794 512.04332181 -46.63108406 500.26680085 -46.63745022 488.49027634 C-46.6392453 485.10076943 -46.64102493 481.71126251 -46.64279997 478.32175559 C-46.64324207 477.47911815 -46.64368417 476.63648072 -46.64413966 475.76830882 C-46.65644896 452.06470011 -46.6643407 428.36109324 -46.6634531 404.65748119 C-46.66342194 403.76371547 -46.66339079 402.86994975 -46.66335869 401.94910021 C-46.66319247 397.41909923 -46.66299439 392.88909826 -46.66278927 388.35909728 C-46.66274938 387.45941953 -46.66270949 386.55974178 -46.66266839 385.63280106 C-46.66258752 383.8134328 -46.66250392 381.99406453 -46.66241761 380.17469626 C-46.66119219 351.87041282 -46.67620322 323.5661773 -46.70356274 295.26190758 C-46.73428713 263.46345861 -46.751495 231.66504113 -46.74963629 199.86657637 C-46.74948703 196.47549768 -46.74938962 193.08441899 -46.74932766 189.6933403 C-46.74930435 188.85836884 -46.74928104 188.02339738 -46.74925703 187.16312375 C-46.74919549 173.72884182 -46.76196486 160.2946015 -46.77919219 146.86033194 C-46.79615003 133.35685905 -46.79812134 119.85344701 -46.78497355 106.34996936 C-46.77758529 98.32952306 -46.78123856 90.30926168 -46.80085823 82.28883499 C-46.81427528 76.29733949 -46.80674399 70.30606178 -46.79111178 64.31456371 C-46.78803367 61.89263618 -46.79170464 59.47068863 -46.80283193 57.04878471 C-46.88192359 38.61206327 -45.72057339 25.48927386 -32.56928539 11.41351891 C-23.34329037 2.86366063 -12.2212183 -0.05285801 0 0 Z " fill="#FEFEFE" transform="translate(47.29194164276123,0.7427310943603516)"/>
<path d="M0 0 C4.09324755 1.32100743 7.64406475 2.77390393 11.359375 4.94921875 C12.88908936 5.83879272 12.88908936 5.83879272 14.44970703 6.74633789 C15.53880371 7.38692139 16.62790039 8.02750488 17.75 8.6875 C18.9057488 9.36182715 20.06184266 10.03556318 21.21826172 10.70874023 C23.61980548 12.10729796 26.01984804 13.50838294 28.41894531 14.91113281 C33.9723187 18.15475911 39.5506203 21.35516677 45.125 24.5625 C54.4142798 29.9172593 63.6818254 35.30827589 72.93945312 40.7175293 C86.95956521 48.90402544 101.01515966 57.03153505 115.125 65.0625 C119.36098464 67.47473156 123.57729942 69.91788444 127.78515625 72.37890625 C128.83751465 72.99435303 129.88987305 73.6097998 130.97412109 74.24389648 C133.05478206 75.46190991 135.13459134 76.68137987 137.21337891 77.90258789 C138.67590088 78.75904907 138.67590088 78.75904907 140.16796875 79.6328125 C141.45610474 80.38908936 141.45610474 80.38908936 142.77026367 81.16064453 C147.47605583 83.84062322 152.24582742 86.40681496 157 89 C157 148.73 157 208.46 157 270 C153.13650609 268.45460244 149.87579302 266.88793449 146.30078125 264.83203125 C144.63063965 263.87466064 144.63063965 263.87466064 142.92675781 262.89794922 C141.72195086 262.20289367 140.51719971 261.5077414 139.3125 260.8125 C138.05711328 260.09105251 136.80157708 259.36986506 135.54589844 258.64892578 C132.31879708 256.7949706 129.09403586 254.93698535 125.86993408 253.07781982 C124.09079075 252.05233129 122.31095951 251.02805128 120.53076172 250.00439453 C108.00602858 242.80235022 95.50822286 235.55546289 83.03369141 228.2668457 C75.74348771 224.00994509 68.43847359 219.77928742 61.125 215.5625 C60.04766602 214.94133301 58.97033203 214.32016602 57.86035156 213.68017578 C52.35892355 210.50943029 46.85576481 207.34170789 41.3515625 204.17578125 C39.69229736 203.22046509 39.69229736 203.22046509 37.99951172 202.24584961 C35.95228389 201.06719395 33.90450871 199.889488 31.85595703 198.71313477 C29.87476021 197.57219092 27.91715793 196.38941321 25.98370361 195.16931152 C22.94599106 193.37107845 19.93981219 192.28221943 16.58706665 191.19224548 C9.91083547 188.68446383 4.31074223 185.83824384 0 180 C-3.89784721 168.07279463 -2.63002248 154.7078413 -2.23066664 142.33464217 C-2.09239856 137.32516997 -2.08015985 132.31536132 -2.05410767 127.30427551 C-1.98593211 117.83177468 -1.80571936 108.36491148 -1.58441889 98.89488536 C-1.33784242 88.10719753 -1.21739366 77.31922889 -1.10711932 66.52942121 C-0.87763345 44.34980966 -0.49110805 22.1752609 0 0 Z " fill="#7B42BC" transform="translate(261,363)"/>
<path d="M0 0 C1.72389692 0.9384665 3.447566 1.87735154 5.17114258 2.81640625 C6.61098259 3.60059937 6.61098259 3.60059937 8.07991028 4.40063477 C12.63686577 6.89652937 17.16469293 9.44286678 21.6875 12 C22.67661377 12.55905029 23.66572754 13.11810059 24.68481445 13.6940918 C32.7180333 18.2474948 40.69742201 22.88924316 48.66479492 27.55664062 C56.41355728 32.09031187 64.19961641 36.5560619 72 41 C80.69410203 45.95363524 89.3650059 50.94373204 98 56 C107.82676298 61.75363854 117.69989712 67.42291882 127.59570312 73.05664062 C129.76057062 74.28982575 131.9035093 75.56239188 134.02148438 76.8744812 C136.89247767 78.54635593 139.5876078 79.50416634 142.78796387 80.37515259 C148.74686264 82.32424549 153.41456815 84.70537534 157 90 C160.46694058 102.0213934 159.26839565 115.2930378 158.92648482 127.66449904 C158.80724417 132.70752224 158.79651435 137.75078287 158.77400208 142.79499817 C158.71507621 152.3341502 158.55936154 161.86913702 158.36836177 171.40645915 C158.15556658 182.26927838 158.05142269 193.13230276 157.95614851 203.9966892 C157.75784701 226.33343059 157.42392624 248.66648142 157 271 C153.93020495 269.79161924 151.04724209 268.55801456 148.19921875 266.890625 C147.48258057 266.47337158 146.76594238 266.05611816 146.02758789 265.6262207 C145.25535889 265.17206787 144.48312988 264.71791504 143.6875 264.25 C142.44504517 263.52526489 142.44504517 263.52526489 141.17749023 262.78588867 C138.44969072 261.19393609 135.72469852 259.59725346 133 258 C129.18848468 255.76914644 125.37583902 253.54023467 121.5625 251.3125 C120.56500732 250.72952148 119.56751465 250.14654297 118.53979492 249.54589844 C110.12938755 244.63921999 101.67842194 239.80540546 93.21850586 234.9848938 C83.97405282 229.71614548 74.76911739 224.38274456 65.5859375 219.0078125 C59.24548587 215.30004506 52.88311947 211.63377471 46.5 208 C24.33273848 195.37880483 24.33273848 195.37880483 15.05643082 189.72219944 C12.05408241 187.94007202 12.05408241 187.94007202 8.86785507 186.75618649 C5.29739202 185.19071381 2.79532787 183.7356291 0 181 C-1.78006529 175.21627149 -1.52144454 169.59165446 -1.36230469 163.59008789 C-1.3589176 161.80582916 -1.36082414 160.02155371 -1.36761475 158.23730469 C-1.37105339 153.40375631 -1.30059428 148.57379275 -1.21672726 143.74107671 C-1.14162707 138.68706225 -1.13465622 133.63296228 -1.12042236 128.57847595 C-1.08314815 119.01206485 -0.9847107 109.44730254 -0.86422849 99.88161701 C-0.73002269 88.98951329 -0.66410221 78.09733012 -0.60388327 67.20460522 C-0.47850613 44.80215658 -0.26748503 22.40117073 0 0 Z " fill="#7B42BC" transform="translate(261,162)"/>
<path d="M0 0 C4.14010191 1.60952769 7.95894147 3.55233679 11.8125 5.75 C12.49844238 6.13849121 13.18438477 6.52698242 13.89111328 6.92724609 C21.11416193 11.03459388 28.28438188 15.23316293 35.45727539 19.42724609 C52.54466764 29.41777825 69.70993166 39.2719449 86.9041748 49.0770874 C95.92896072 54.22519479 104.91509743 59.43642031 113.88061523 64.68701172 C123.15766029 70.11161277 132.48756489 75.44210652 141.82617188 80.75976562 C142.94958984 81.39978516 144.07300781 82.03980469 145.23046875 82.69921875 C146.22457764 83.26471436 147.21868652 83.83020996 148.24291992 84.4128418 C149.15275635 84.936604 150.06259277 85.46036621 151 86 C151.86946353 86.37857053 152.73892706 86.75714106 153.63473797 87.14718342 C156 89 156 89 156.61523914 92.19588757 C156.63628133 93.54117638 156.62944011 94.88706502 156.60127258 96.23222351 C156.60768077 97.34475289 156.60768077 97.34475289 156.61421841 98.47975761 C156.62247385 100.97238397 156.59492374 103.46333851 156.56762695 105.95581055 C156.56621702 107.7394812 156.56700738 109.52315477 156.56983948 111.30682373 C156.57127719 116.15591788 156.54183002 121.00439671 156.50696969 125.85334754 C156.4757653 130.91821681 156.47278013 135.98309936 156.46684265 141.04804993 C156.45128678 150.64227198 156.41023472 160.23620999 156.3600952 169.83030683 C156.30425596 180.75153115 156.27672888 191.67276887 156.25161803 202.59410036 C156.19932041 225.06289119 156.11134425 247.5314297 156 270 C154.3939087 269.20106748 152.78828541 268.40119407 151.18286133 267.60092163 C150.28867996 267.15559271 149.3944986 266.71026379 148.47322083 266.25144005 C145.8231806 264.91053008 143.24511313 263.48611935 140.6875 261.9765625 C139.77129883 261.43854004 138.85509766 260.90051758 137.91113281 260.34619141 C136.95045898 259.77819824 135.98978516 259.21020508 135 258.625 C132.87011611 257.37444726 130.73989624 256.1244666 128.609375 254.875 C127.51818359 254.23433594 126.42699219 253.59367188 125.30273438 252.93359375 C119.96468638 249.80842077 114.60860982 246.71474815 109.25 243.625 C108.17766113 243.0064917 107.10532227 242.3879834 106.00048828 241.75073242 C97.38010197 236.7841257 88.73983391 231.8527682 80.09783936 226.92391968 C71.01859551 221.7438882 61.97427474 216.5065769 52.95239258 211.22729492 C45.50618206 206.87163678 38.03824628 202.55474282 30.5625 198.25 C23.00784423 193.8970873 15.45794449 189.53682045 7.9375 185.125 C7.2350415 184.71411133 6.53258301 184.30322266 5.80883789 183.87988281 C1.12063054 181.12063054 1.12063054 181.12063054 0 180 C-0.0976134 177.67232986 -0.12997765 175.37437981 -0.12025452 173.04624939 C-0.12110894 172.31035554 -0.12196337 171.57446169 -0.12284368 170.81626803 C-0.12450067 168.33183354 -0.11897356 165.84746545 -0.11352539 163.36303711 C-0.11324354 161.58951316 -0.11340121 159.81598909 -0.1139679 158.04246521 C-0.11425595 153.21208983 -0.1083579 148.38173906 -0.10139394 143.55136943 C-0.09516176 138.50914683 -0.09455671 133.46692373 -0.09336853 128.42469788 C-0.09025481 118.86949773 -0.08204088 109.31430897 -0.07201904 99.75911385 C-0.06085916 88.88384567 -0.05534777 78.00857695 -0.05032361 67.13330448 C-0.0398583 44.75553 -0.02225807 22.37776564 0 0 Z " fill="#7B42BC" transform="translate(88,62)"/>
<path d="M0 0 C0.56169114 23.3562547 0.98435305 46.71139037 1.24349213 70.0730381 C1.36704129 80.92176219 1.53530784 91.76628124 1.81054688 102.61230469 C2.05046014 112.07083069 2.20474754 121.52631219 2.25812387 130.98779619 C2.28931695 135.99547341 2.36203567 140.99444588 2.53752136 145.99931717 C3.56394814 176.42273652 3.56394814 176.42273652 -2.35663605 184.02668381 C-8.01401998 188.84800765 -14.22168623 191.65326125 -21.21753025 194.01685047 C-24.84065976 195.2970362 -27.80474789 197.03864461 -31.046875 199.0859375 C-32.94749956 200.1830146 -34.84853142 201.27938642 -36.75 202.375 C-37.8030835 202.98239014 -38.85616699 203.58978027 -39.94116211 204.21557617 C-48.73832649 209.28456943 -57.55618576 214.31694355 -66.37585449 219.34661865 C-73.7589134 223.55830105 -81.1161124 227.80826015 -88.42773438 232.14282227 C-95.69474418 236.43704483 -103.03626542 240.60110904 -110.3699646 244.77990723 C-120.97044894 250.82177323 -131.52128584 256.94441329 -142.05078125 263.109375 C-143.32816162 263.85477539 -143.32816162 263.85477539 -144.63134766 264.61523438 C-146.13925944 265.49679236 -147.64446275 266.38301176 -149.14599609 267.27539062 C-153.78045644 270 -153.78045644 270 -156 270 C-156.51476297 246.75663594 -156.9022687 223.51421579 -157.13986778 200.26630116 C-157.25314395 189.47059516 -157.40744157 178.67843725 -157.65966797 167.88500977 C-157.8795069 158.47300962 -158.02100176 149.06357851 -158.06994689 139.64908236 C-158.09855089 134.66606989 -158.16530652 129.69040328 -158.32606125 124.70975685 C-159.26399696 94.48987048 -159.26399696 94.48987048 -153.90283966 87.11520004 C-148.8377479 82.59570368 -143.26377992 80.15148395 -136.8725729 78.04727459 C-132.12440409 76.31620049 -127.92750304 73.68192165 -123.625 71.0625 C-121.87918226 70.06852547 -120.13316303 69.07490451 -118.38671875 68.08203125 C-112.7129133 64.84564524 -107.07445391 61.55003044 -101.4375 58.25 C-92.65619819 53.11127526 -83.83985707 48.03701981 -75 43 C-65.29043684 37.46681411 -55.6134608 31.88119182 -45.96826172 26.23632812 C-37.30242125 21.16689111 -28.60706716 16.14963486 -19.90185547 11.14819336 C-14.17811015 7.85461372 -8.49239891 4.5124197 -2.85888672 1.06640625 C-1 0 -1 0 0 0 Z " fill="#7B42BC" transform="translate(591,162)"/>
</svg>
